<svg width="1366" height="768" viewBox="0 0 1366 768" fill="none" xmlns="http://www.w3.org/2000/svg">
<path d="M612.67 364.35C703.913 364.35 777.88 290.383 777.88 199.14C777.88 107.897 703.913 33.93 612.67 33.93C521.427 33.93 447.46 107.897 447.46 199.14C447.46 290.383 521.427 364.35 612.67 364.35Z" fill="#0A0031" stroke="#371EAD" stroke-width="2" stroke-miterlimit="10"/>
<path d="M612.67 364.36C521.42 364.36 447.46 438.33 447.46 529.57C447.46 620.81 521.43 694.78 612.67 694.78C703.91 694.78 777.88 620.81 777.88 529.57C777.88 438.33 703.91 364.36 612.67 364.36Z" fill="#0A0031" stroke="#371EAD" stroke-width="2" stroke-miterlimit="10"/>
<path d="M607.62 418.19C604.38 390.79 582.97 369.38 555.57 366.14L544.17 364.79L555.57 363.44C582.97 360.2 604.38 338.79 607.62 311.39L608.97 299.99L610.32 311.39C613.56 338.79 634.97 360.2 662.37 363.44L673.77 364.79L662.37 366.14C634.97 369.39 613.56 390.79 610.32 418.19L608.97 429.59L607.62 418.19Z" fill="#A98EE9"/>
<path d="M608.97 305.68L609.65 311.46C612.93 339.17 634.58 360.82 662.29 364.1L668.07 364.78L662.29 365.46C634.58 368.74 612.93 390.39 609.65 418.1L608.97 423.88L608.29 418.1C605.01 390.39 583.36 368.74 555.65 365.46L549.87 364.78L555.65 364.1C583.36 360.82 605.01 339.17 608.29 311.46L608.97 305.68ZM608.97 294.29L606.95 311.31C603.75 338.3 582.47 359.58 555.49 362.77L538.47 364.79L555.49 366.81C582.48 370.01 603.76 391.29 606.95 418.27L608.97 435.29L610.99 418.27C614.19 391.28 635.47 370 662.45 366.81L679.47 364.79L662.45 362.77C635.46 359.57 614.18 338.29 610.99 311.31L608.97 294.29Z" fill="#A98EE9"/>
<path d="M704.02 217.43C703.86 218.14 704.12 217.91 704.41 218.1C705.53 218.84 712.09 221.05 713.06 220.6C713.69 220.3 714.49 219.02 715.78 219.24L714.58 221.35C720.89 222.09 726.61 221.79 732.6 219.62C734.07 219.09 738.96 216.46 739.75 216.49C740.79 216.53 741.05 217.14 740.76 218.12C740.55 218.81 735.75 221.1 734.78 221.49C727.59 224.39 720.14 224.53 712.54 223.52L711.27 226.17C714 226.58 716.81 226.54 719.57 226.49C720.39 226.48 721.32 226.09 721.95 226.17C722.92 226.29 723.38 227.4 722.75 228.17C721.61 229.56 711.51 228.82 709.37 228.34L704.64 233.41C708.75 234.86 712.84 235.03 717.16 234.93C718.2 234.91 719.57 234.18 720.49 234.89L720.93 235.69C721.06 237.19 718.59 237.26 717.46 237.34C712.53 237.69 707.66 236.98 702.96 235.54L698.91 239.29C699.22 239.52 699.91 239.66 700.3 239.71C705.69 240.3 712.19 239.69 717.42 238.21C718.68 237.86 721.71 236.41 722.57 236.4C723.63 236.39 723.85 237.11 723.57 238.02C723.26 239.04 719.16 240.31 718.02 240.62C711 242.52 703.56 242.79 696.41 241.6C685.33 249.99 673.66 259.26 661.61 266.21C622.89 288.52 572.29 275.36 536.02 254.15C521.91 245.9 509.51 235.48 495.31 227.33C493.15 226.09 489.59 225.7 491.94 222.57C493.09 223.31 494.4 223.69 495.61 224.32C509.96 231.78 523.42 243.98 537.82 252.34C563.1 267.02 598.47 277.89 627.89 274.7C652.86 271.99 673.56 256.26 692.36 240.97L692.55 240.34C686.86 238.75 681.19 236.55 677.33 231.91C675.67 233.52 673.24 234.15 671.15 235.08C670.9 235.19 670.33 235.11 670.55 235.66C671.24 237.38 678.69 240.45 680.65 240.64C681.98 240.77 685.89 240.18 686.53 240.49C686.96 240.7 687.19 241.21 687.15 241.68C686.97 243.66 681.2 242.74 679.76 243.37C674.8 243.61 669.18 242.5 665.03 239.69C664.39 239.26 663.5 237.98 662.88 237.95L655.48 240.2C658.82 244 664.02 244.22 668.76 244.4C670.52 247.78 663.8 246.65 661.99 246.35C658.3 245.72 654.87 243.73 652.62 240.76L644.32 242.47C643.32 243.47 652.12 245.64 652.46 245.93C653.17 246.53 652.76 248.09 651.7 248.19C649.65 248.38 642.43 245.32 641.39 243.06L634.07 243.67C637.57 247.11 643.12 249.43 647.92 250.46C649.17 250.73 653.26 250.61 653.38 251.96C653.61 254.4 647.49 252.87 646.12 252.56C642.74 251.79 634.51 248.43 632.55 245.62C632.09 244.96 631.98 244.8 632.25 243.97L624.27 244.58C602.51 245.24 571.53 241.41 551.08 233.94C537.53 228.99 518.56 217.73 504.58 217.14C503.16 217.08 498.78 218.03 498.45 216.62C498.39 216.2 498.54 215.52 498.91 215.3C499.37 215.02 503.47 214.45 504.27 214.41C515.27 213.9 537.69 226.28 548.89 230.4C574.89 239.96 610.94 244.46 638.39 240.9C661.61 237.89 677.95 229.71 697.87 218.39C699.57 217.42 701.29 216.37 702.95 215.33C705.02 214.03 712.25 209.56 713.51 208.1C714.17 207.33 713.74 206.25 714.44 206.01C716.55 206.22 718.61 207.02 720.74 207.18C732.55 208.08 743.09 205.97 751.94 198C752.92 197.12 756.46 192.22 757.24 195.13C757.59 196.44 755.43 197.41 754.93 198.28C753.99 199.93 753.95 200.69 752.53 202.51C741.89 216.08 727.24 216.97 711.43 212.69C708.91 214.11 706.81 216.63 704 217.44L704.02 217.43ZM746.23 205.37C742.53 207.13 738.9 208.29 734.83 208.89C730.37 209.55 725.25 209.79 720.74 209.6C718.14 209.49 715.46 207.88 713.97 210.79C723.24 213.14 734.84 213.65 743.13 208.15C744.25 207.41 745.46 206.48 746.23 205.37ZM710.65 222.86C707.36 222.08 704.17 220.88 701.15 219.35L696.78 221.35C696.63 222.05 696.87 221.83 697.17 222.02C700.06 223.88 704.84 224.4 708.11 225.55L710.65 222.85V222.86ZM702.16 232.44C702.93 230.77 705.03 229.76 705.85 228.13C705.99 227.84 706.35 227.9 705.84 227.52C701.78 226.24 697.35 225.51 693.88 222.9L688.66 225.87C688.33 226.32 689.99 227.33 690.37 227.62C693.63 230.06 698.23 231.69 702.17 232.44H702.16ZM686.49 227.41L679.9 230.69C683.37 235.39 689.54 236.78 694.84 238.51L699.5 234.75C699.64 234.09 699.22 234.36 698.84 234.22C694.41 232.6 689.6 231.1 686.5 227.4L686.49 227.41ZM671.46 239.73C669.38 238.28 668.57 235.4 665.73 237.02C667.11 238.47 669.51 239.31 671.46 239.73Z" fill="#DBD4B9"/>
<path d="M526.06 141.97L525.1 142.66C520.42 147.93 515.58 153.07 511.1 158.51C505.41 165.41 500.25 172.82 494.6 179.7C491.57 179.94 493.37 177.45 494.27 176.04C498.88 168.85 506.25 160.15 511.84 153.52C525.18 137.74 547.47 115.33 568.55 111.96C615.52 104.45 675.68 125.54 709.27 158.68C711.73 161.11 717.88 167.24 719.41 169.94C719.77 170.58 720.01 171.91 719.21 172.18L717.73 171.93C710.13 162.79 701.45 154.54 691.94 147.38C661.65 124.57 613.57 110.38 575.76 114.05C556.4 115.93 539.29 128.62 526.06 141.97Z" fill="#DBD4B9"/>
<path d="M712.46 202.66C712.7 204.22 710.94 205.1 709.84 205.92C698.16 214.63 678.33 224.77 664.6 229.71C617.42 246.67 564.97 234.09 520.52 214.77C515.47 212.58 507.66 207.79 502.45 207.21C499.7 206.9 492.95 208.3 492.97 203.72C492.97 202.19 493.87 203.37 494.79 203.72C498.32 205.04 499.29 204.44 502.78 204.78C507.78 205.27 513.25 208.87 517.8 210.86C557.63 228.26 603.75 241.73 647.39 232.11C667.9 227.59 685.96 217.85 703.68 207.01C706.5 205.29 708.98 202.61 712.45 202.67L712.46 202.66Z" fill="#DBD4B9"/>
<path d="M496.47 215.32C497.06 215.5 497.11 216.8 496.63 217.29C495.97 217.96 491.04 217.83 489.87 217.7C482.23 216.85 476.4 209.47 478.45 201.82C478.73 200.78 480.98 194.26 482.62 196.61C483.34 197.64 480.66 202.29 480.42 204.09C479.77 209.03 485.14 215.32 490.14 215.32C491.44 215.32 495.62 215.06 496.47 215.32Z" fill="#DBD4B9"/>
<path d="M727.8 482.23C765.83 446.57 783.83 393.57 776.83 340.57C770.83 299.57 750.83 263.57 719.89 237.89" stroke="#371EAD" stroke-width="2" stroke-miterlimit="10"/>
<path d="M498.18 244.77C467.01 274.82 447.62 317 447.62 363.72C447.62 412.88 469.1 457.02 503.17 487.28" stroke="#371EAD" stroke-width="2" stroke-miterlimit="10"/>
<path d="M698.93 595.75C681.11 627.57 647.07 649.08 608.01 649.08C550.49 649.08 503.87 602.45 503.87 544.94C503.87 487.43 550.49 440.79 608.01 440.79C647.07 440.79 681.11 462.3 698.93 494.12C683.77 474.61 660.08 462.06 633.46 462.06C587.69 462.06 550.58 499.17 550.58 544.94C550.58 590.71 587.69 627.81 633.46 627.81C660.08 627.81 683.77 615.26 698.93 595.75Z" stroke="#DBD4B9" stroke-width="2" stroke-miterlimit="10"/>
</svg>
