<svg width="68" height="68" viewBox="0 0 68 68" fill="none" xmlns="http://www.w3.org/2000/svg">
<path d="M33.93 59.29C31.4 46.54 21.32 36.4699 8.57001 33.9299C21.32 31.3999 31.39 21.3201 33.93 8.57007C36.46 21.3201 46.54 31.3899 59.29 33.9299C46.54 36.4599 36.47 46.54 33.93 59.29Z" fill="#A98EE9"/>
<path d="M33.93 12.53C37.21 22.64 45.22 30.6499 55.33 33.9299C45.22 37.2099 37.21 45.2201 33.93 55.3301C30.64 45.2201 22.64 37.2099 12.53 33.9299C22.64 30.6399 30.65 22.64 33.93 12.53ZM33.93 0L33.39 5.38989C31.91 20.1999 20.2 31.9099 5.39001 33.3899L0 33.9299L5.39001 34.47C20.2 35.95 31.91 47.66 33.39 62.47L33.93 67.8599L34.47 62.47C35.95 47.66 47.66 35.95 62.47 34.47L67.86 33.9299L62.47 33.3899C47.66 31.9099 35.95 20.1999 34.47 5.38989L33.93 0Z" fill="#A98EE9"/>
</svg>
