<svg width="333" height="251" viewBox="0 0 333 251" fill="none" xmlns="http://www.w3.org/2000/svg">
<path d="M161 181.07C157.76 153.67 136.35 132.259 108.95 129.019L97.55 127.669L108.95 126.32C136.35 123.08 157.76 101.669 161 74.2695L162.35 62.8694L163.7 74.2695C166.94 101.669 188.35 123.08 215.75 126.32L227.15 127.669L215.75 129.019C188.35 132.259 166.94 153.67 163.7 181.07L162.35 192.47L161 181.07Z" fill="#371EAD"/>
<path d="M162.35 68.5595L163.03 74.3395C166.31 102.05 187.96 123.699 215.67 126.979L221.45 127.659L215.67 128.34C187.96 131.62 166.31 153.269 163.03 180.979L162.35 186.759L161.67 180.979C158.39 153.269 136.74 131.62 109.03 128.34L103.25 127.659L109.03 126.979C136.74 123.699 158.39 102.05 161.67 74.3395L162.35 68.5595ZM162.35 57.1695L160.33 74.1895C157.13 101.18 135.85 122.459 108.87 125.659L91.85 127.68L108.87 129.7C135.86 132.9 157.14 154.179 160.33 181.159L162.35 198.18L164.37 181.159C167.57 154.169 188.85 132.89 215.83 129.7L232.85 127.68L215.83 125.659C188.84 122.459 167.56 101.18 164.37 74.1895L162.35 57.1695Z" fill="#DBD4B9"/>
<path d="M281.18 245.109C319.21 209.449 337.21 156.45 330.21 103.45C324.21 62.4495 304.21 26.4495 273.27 0.76947" stroke="#371EAD" stroke-width="2" stroke-miterlimit="10"/>
<path d="M51.56 7.63947C20.39 37.6895 1 79.8695 1 126.59C1 175.75 22.48 219.889 56.55 250.149" stroke="#371EAD" stroke-width="2" stroke-miterlimit="10"/>
</svg>
