<svg width="333" height="251" viewBox="0 0 333 251" fill="none" xmlns="http://www.w3.org/2000/svg">
<path d="M161 181.069C157.76 153.669 136.35 132.259 108.95 129.02L97.55 127.669L108.95 126.319C136.35 123.079 157.76 101.67 161 74.2695L162.35 62.8695L163.7 74.2695C166.94 101.67 188.35 123.079 215.75 126.319L227.15 127.669L215.75 129.02C188.35 132.27 166.94 153.669 163.7 181.069L162.35 192.469L161 181.069Z" fill="#A98EE9"/>
<path d="M162.35 68.5595L163.03 74.3395C166.31 102.05 187.96 123.7 215.67 126.98L221.45 127.66L215.67 128.34C187.96 131.62 166.31 153.27 163.03 180.98L162.35 186.76L161.67 180.98C158.39 153.27 136.74 131.62 109.03 128.34L103.25 127.66L109.03 126.98C136.74 123.7 158.39 102.05 161.67 74.3395L162.35 68.5595ZM162.35 57.1695L160.33 74.1895C157.13 101.18 135.85 122.46 108.87 125.65L91.8501 127.67L108.87 129.69C135.86 132.89 157.14 154.17 160.33 181.15L162.35 198.17L164.37 181.15C167.57 154.16 188.85 132.88 215.83 129.69L232.85 127.67L215.83 125.65C188.84 122.45 167.56 101.17 164.37 74.1895L162.35 57.1695Z" fill="#A98EE9"/>
<path d="M281.18 245.109C319.21 209.449 337.21 156.449 330.21 103.449C324.21 62.4495 304.21 26.4495 273.27 0.76947" stroke="#371EAD" stroke-width="2" stroke-miterlimit="10"/>
<path d="M51.56 7.64948C20.39 37.6995 1 79.8795 1 126.599C1 175.759 22.48 219.899 56.55 250.159" stroke="#371EAD" stroke-width="2" stroke-miterlimit="10"/>
</svg>
