<svg width="333" height="333" viewBox="0 0 333 333" fill="none" xmlns="http://www.w3.org/2000/svg">
<path d="M166.21 1C74.96 1 1 74.97 1 166.21C1 257.45 74.97 331.42 166.21 331.42C257.45 331.42 331.42 257.45 331.42 166.21C331.42 74.97 257.45 1 166.21 1Z" fill="#0A0031" stroke="#371EAD" stroke-width="2" stroke-miterlimit="10"/>
<path d="M252.47 232.39C234.65 264.21 200.61 285.72 161.55 285.72C104.03 285.72 57.4099 239.09 57.4099 181.58C57.4099 124.07 104.03 77.4301 161.55 77.4301C200.61 77.4301 234.65 98.94 252.47 130.76C237.31 111.25 213.62 98.7 187 98.7C141.23 98.7 104.12 135.81 104.12 181.58C104.12 227.35 141.23 264.45 187 264.45C213.62 264.45 237.31 251.9 252.47 232.39Z" stroke="#DBD4B9" stroke-width="2" stroke-miterlimit="10"/>
</svg>
