<svg width="334" height="334" viewBox="0 0 334 334" fill="none" xmlns="http://www.w3.org/2000/svg">
<path d="M166.18 333.36C257.959 333.36 332.36 258.959 332.36 167.18C332.36 75.4013 257.959 1 166.18 1C74.4013 1 0 75.4013 0 167.18C0 258.959 74.4013 333.36 166.18 333.36Z" fill="url(#paint0_linear_30_13746)"/>
<path d="M166.98 331.42C258.223 331.42 332.19 257.453 332.19 166.21C332.19 74.967 258.223 1 166.98 1C75.737 1 1.77 74.967 1.77 166.21C1.77 257.453 75.737 331.42 166.98 331.42Z" stroke="#371EAD" stroke-width="2" stroke-miterlimit="10"/>
<path d="M192.32 120.01C192.25 120.43 192.86 120.45 193.16 120.52C194.31 120.8 199.04 121.65 199.94 121.46C200.67 121.3 202.32 119.92 203.02 119.4C203.89 118.75 205.51 116.74 206.58 117.04L207.35 117.82C207.83 119.58 204.34 120.94 203.48 122.28C203.47 122.62 206.46 123.34 206.92 123.32C209.07 123.22 213.85 120.44 215.68 119.11C216.47 118.53 217.42 116.83 218.56 117.13C221.65 117.96 216.28 121.75 215.33 122.38C214 123.26 212.53 124.04 211.02 124.55L216.32 126.95C221.05 126.48 225.77 125.71 230.22 124C231.68 123.44 232.48 122.03 234.46 122.96C236.1 123.73 234.38 125.86 233.62 126.8C231.85 129 228.8 130.58 226.27 131.77C225.91 131.85 226.06 132.17 226.24 132.39C226.44 132.63 229.32 134.5 229.71 134.65C232.45 135.68 238.61 136.44 241.62 136.6C243.08 136.68 249.21 136.33 249.91 136.75C250.97 137.39 250.29 138.79 249.15 139.01C247.61 139.3 243.39 139.11 241.61 139.03C240.11 138.97 238.29 138.59 236.76 138.45C236.42 138.42 235.68 138.17 235.74 138.71C239.69 139.39 243.94 140.21 247.96 139.93C249.61 139.82 254.83 138.31 255.61 138.56C256.81 138.94 257.28 140.04 256.03 140.77C255.17 141.26 249.79 142.25 248.56 142.34C245.69 142.56 242.81 142.07 239.96 142.03L242.7 144.26C252.75 149.05 265.61 151.35 276.5 148.27C277.82 147.9 281.21 146.23 282.16 146.69C285.42 148.3 277.34 150.62 276.38 150.86C269.46 152.59 261.95 152.23 254.97 150.97C252.96 150.61 251.02 149.91 249 149.71C251.4 151.53 253.85 154.69 256.33 156.25C258.21 157.43 262.3 158.77 264.52 159.51C272.4 162.15 279.29 163.17 287.28 159.95C288.64 159.4 292.53 156.59 293.4 156.83L294.18 157.61C294.59 159.09 292.34 159.72 291.51 160.56C295.11 161.91 291.72 163.75 289.9 164.68C284.99 167.21 278.15 168.2 272.67 167.94C271.56 167.89 267.65 167.12 266.97 167.32C266.8 167.37 266.53 169.24 265.29 168.71C261.85 165.96 258.97 161.75 255.64 159.05C254.67 158.26 252.42 157.27 251.84 156.52C251.39 155.94 251.5 155.34 251.1 154.84C249.21 152.47 242.48 147.2 239.8 145.04C229.75 136.97 218.37 129.41 205.89 125.74C206.73 128 207.94 130.13 208.69 132.43C219.03 164.12 191.78 195.74 158.8 187.14C131.64 180.05 118.92 146.87 133.84 123.17C133.73 122.88 133.07 123 132.78 123.01C129.5 123.15 124.5 124.28 121.17 124.97C98.89 129.58 84.17 138.94 66.77 152.87C62.37 156.4 53.32 163.31 50.69 167.84C47.43 173.44 54.03 171.51 57.39 171.89C63.16 172.53 74.71 179.15 80.79 181.64C118.39 197.06 161.07 208.15 201.72 199.19C224.5 194.17 245.69 182.4 264.75 169.37L266.36 169.42L266.8 170.22C266.87 171.01 266.21 171.38 265.72 171.85C262.75 174.67 255.69 178.43 251.92 180.65C233.03 191.77 214.1 200.38 192.13 203.45C153.06 208.92 110.53 197.36 74.86 181.85C69.81 179.66 62 174.87 56.79 174.29C54.21 174 48.5 175.22 47.46 171.86C46.42 168.5 49.13 166.5 50.17 163.69C68.93 147.53 87.61 131.32 112.07 124.61C131.87 119.18 153.61 118.31 174.1 118.79C181.21 118.95 188.15 121.16 194.29 116.1C195.35 115.23 198.33 111.41 199.15 111.34C200.61 111.2 200.68 112.61 199.99 113.67C199.44 114.53 196.92 117.18 196.08 117.89C194.99 118.81 193.72 119.65 192.32 120.01ZM152.76 121.3C149.67 121.42 146.55 121.62 143.48 121.97C127.07 141.67 135.9 174.65 161.5 180.81C190.21 187.72 212.45 157.59 201.8 131.17C201.26 129.82 198.88 124.98 198.01 124.11C197.71 123.81 197.7 123.78 197.28 123.64C195.6 123.07 191.67 122.7 189.72 122.46C177.88 120.99 164.73 120.85 152.77 121.3H152.76ZM142.27 122.12C138.56 121.31 136.22 124 134.48 126.84C124.88 142.54 130.96 166.08 144.84 177.27C176.3 202.62 219.1 170.32 206.1 132.6C205.62 131.22 203.29 125.58 202.4 124.84C201.9 124.43 199.72 124.12 198.94 124.08C217.06 150.27 194.92 188.73 162.46 181.95C135.77 176.38 125.67 142.89 142.26 122.12H142.27ZM229.4 126.94L220.36 128.89C223.29 131.73 226.87 128.95 229.4 126.94ZM289.39 161.9C280.08 165.54 270.45 164.91 261.36 161C263.32 163.97 266.01 164.72 269.38 165.18C275.29 165.98 281.42 165.41 286.98 163.25L289.4 161.9H289.39Z" fill="#36248B"/>
<path d="M80.37 109.05L79.41 109.74C74.73 115.01 69.89 120.15 65.41 125.59C59.72 132.49 54.56 139.9 48.91 146.78C45.88 147.02 47.68 144.53 48.58 143.12C53.19 135.93 60.56 127.23 66.15 120.6C79.49 104.82 101.78 82.41 122.86 79.04C169.83 71.53 229.99 92.62 263.58 125.76C266.04 128.19 272.19 134.32 273.72 137.02C274.08 137.66 274.32 138.99 273.52 139.26L272.04 139.01C264.44 129.87 255.76 121.62 246.25 114.46C215.96 91.65 167.88 77.46 130.07 81.13C110.71 83.01 93.6 95.6999 80.37 109.05Z" fill="#36248B"/>
<path d="M272.66 181.19C273.55 181.29 275.77 181.96 276.64 182.34C278.17 183 281.69 184.98 279.23 186.58C278.62 186.73 275.83 184.66 274.7 184.28C270.84 182.96 262.59 183.58 258.55 184.58C256.96 184.97 254.04 187.59 252.31 188.29C253.73 188.5 258.15 189.6 258.58 191.06C259.56 194.38 254.43 191.13 252.98 190.92C251.25 190.67 249.44 190.99 247.71 190.59C228.96 202.21 209.45 209.04 187.34 211.03C163.25 213.21 128.2 209.32 105.42 201.01C91.87 196.06 72.9 184.8 58.92 184.21C57.43 184.15 52.89 185.23 52.76 183.46C52.83 182.99 52.92 182.51 53.41 182.3C55.71 181.31 61.12 181.42 63.6 181.94C77.01 184.77 90.38 192.76 103.23 197.48C135.42 209.31 178.82 213.2 211.98 204.02C229.24 199.24 249.04 187.87 263.98 177.95C267.39 175.68 268.42 174.35 272.79 173.5C275.69 172.94 280.49 172.69 283.15 174.02C284.96 174.93 290.01 180.05 290.73 181.81C290.96 182.38 291.14 183.64 290.4 183.88C288.83 184.39 286.9 180.77 285.92 179.68C280.49 173.62 274.59 174.66 267.89 178.24L263.76 181.2C266.59 181.43 269.88 180.89 272.65 181.2L272.66 181.19Z" fill="#36248B"/>
<path d="M271.45 184.81C272.72 184.76 270.94 186.51 270.87 186.64C268.33 191.08 260.15 199.35 256.23 203.35C246.15 213.65 228.31 226.16 215.73 233.38C177.08 255.56 126.5 242.36 90.33 221.21C76.22 212.96 63.82 202.54 49.62 194.39C47.46 193.15 43.9 192.76 46.25 189.63C47.4 190.37 48.71 190.75 49.92 191.38C64.27 198.84 77.73 211.04 92.13 219.4C119.79 235.47 162.45 248.22 194.11 239.5C214.69 233.83 241 214.65 256.18 199.68C259.27 196.63 265.64 188.1 268.71 186.27C269.39 185.87 269.73 186.27 270.09 186.13C270.45 185.99 271.23 184.81 271.43 184.8L271.45 184.81Z" fill="#36248B"/>
<path d="M50.78 182.39C51.37 182.57 51.42 183.87 50.94 184.36C50.28 185.03 45.35 184.9 44.18 184.77C36.54 183.92 30.71 176.54 32.76 168.89C33.04 167.85 35.29 161.33 36.93 163.68C37.65 164.71 34.97 169.36 34.73 171.16C34.08 176.1 39.45 182.39 44.45 182.39C45.75 182.39 49.93 182.13 50.78 182.39Z" fill="#36248B"/>
<path d="M184.73 128.21C195.72 127.82 198.32 142.21 189.46 147.41C189.81 164.11 167.34 171.15 156.74 158.74C146.01 146.17 157.71 128.76 173.17 129.95C174.43 130.05 176.75 130.91 177.68 130.84C179.08 130.74 181.58 128.32 184.73 128.21ZM184.98 130.67C174.12 130.82 173.81 147.8 184.85 146.45C194.64 145.25 194.88 130.53 184.98 130.67Z" fill="#36248B"/>
<defs>
<linearGradient id="paint0_linear_30_13746" x1="166.18" y1="333.35" x2="166.18" y2="0.989996" gradientUnits="userSpaceOnUse">
<stop offset="0.38" stop-color="#DBD4B9"/>
<stop offset="0.55" stop-color="#D8D0BB"/>
<stop offset="0.69" stop-color="#D1C7C1"/>
<stop offset="0.82" stop-color="#C6B6CD"/>
<stop offset="0.93" stop-color="#B59FDC"/>
<stop offset="1" stop-color="#A98EE9"/>
</linearGradient>
</defs>
</svg>
