<svg width="333" height="333" viewBox="0 0 333 333" fill="none" xmlns="http://www.w3.org/2000/svg">
<path d="M166.21 331.42C257.453 331.42 331.42 257.453 331.42 166.21C331.42 74.967 257.453 1 166.21 1C74.967 1 1 74.967 1 166.21C1 257.453 74.967 331.42 166.21 331.42Z" fill="#0A0031" stroke="#371EAD" stroke-width="2" stroke-miterlimit="10"/>
<path d="M257.56 184.5C257.4 185.21 257.66 184.98 257.95 185.17C259.07 185.91 265.63 188.12 266.6 187.67C267.23 187.37 268.03 186.09 269.32 186.31L268.12 188.42C274.43 189.16 280.15 188.86 286.14 186.69C287.61 186.16 292.5 183.53 293.29 183.56C294.33 183.6 294.59 184.21 294.3 185.19C294.09 185.88 289.29 188.17 288.32 188.56C281.13 191.46 273.68 191.6 266.08 190.59L264.81 193.24C267.54 193.65 270.35 193.61 273.11 193.56C273.93 193.55 274.86 193.16 275.49 193.24C276.46 193.36 276.92 194.47 276.29 195.24C275.15 196.63 265.05 195.89 262.91 195.41L258.18 200.48C262.29 201.93 266.38 202.1 270.7 202C271.74 201.98 273.11 201.25 274.03 201.96L274.47 202.76C274.6 204.26 272.13 204.33 271 204.41C266.07 204.76 261.2 204.05 256.5 202.61L252.45 206.36C252.76 206.59 253.45 206.73 253.84 206.78C259.23 207.37 265.73 206.76 270.96 205.28C272.22 204.93 275.25 203.48 276.11 203.47C277.17 203.46 277.39 204.18 277.11 205.09C276.8 206.11 272.7 207.38 271.56 207.69C264.54 209.59 257.1 209.86 249.95 208.67C238.87 217.06 227.2 226.33 215.15 233.28C176.43 255.59 125.83 242.43 89.5601 221.22C75.4501 212.97 63.0501 202.55 48.8501 194.4C46.6901 193.16 43.1301 192.77 45.4801 189.64C46.6301 190.38 47.9401 190.76 49.1501 191.39C63.5001 198.85 76.9601 211.05 91.3601 219.41C116.64 234.09 152.01 244.96 181.43 241.77C206.4 239.06 227.1 223.33 245.9 208.04L246.09 207.41C240.4 205.82 234.73 203.62 230.87 198.98C229.21 200.59 226.78 201.22 224.69 202.15C224.44 202.26 223.87 202.18 224.09 202.73C224.78 204.45 232.23 207.52 234.19 207.71C235.52 207.84 239.43 207.25 240.07 207.56C240.5 207.77 240.73 208.28 240.69 208.75C240.51 210.73 234.74 209.81 233.3 210.44C228.34 210.68 222.72 209.57 218.57 206.76C217.93 206.33 217.04 205.05 216.42 205.02L209.02 207.27C212.36 211.07 217.56 211.29 222.3 211.47C224.06 214.85 217.34 213.72 215.53 213.42C211.84 212.79 208.41 210.8 206.16 207.83L197.86 209.54C196.86 210.54 205.66 212.71 206 213C206.71 213.6 206.3 215.16 205.24 215.26C203.19 215.45 195.97 212.39 194.93 210.13L187.61 210.74C191.11 214.18 196.66 216.5 201.46 217.53C202.71 217.8 206.8 217.68 206.92 219.03C207.15 221.47 201.03 219.94 199.66 219.63C196.28 218.86 188.05 215.5 186.09 212.69C185.63 212.03 185.52 211.87 185.79 211.04L177.81 211.65C156.05 212.31 125.07 208.48 104.62 201.01C91.0701 196.06 72.1001 184.8 58.1201 184.21C56.7001 184.15 52.3201 185.1 51.9901 183.69C51.9301 183.27 52.0801 182.59 52.4501 182.37C52.9101 182.09 57.0101 181.52 57.8101 181.48C68.8101 180.97 91.2301 193.35 102.43 197.47C128.43 207.03 164.48 211.53 191.93 207.97C215.15 204.96 231.49 196.78 251.41 185.46C253.11 184.49 254.83 183.44 256.49 182.4C258.56 181.1 265.79 176.63 267.05 175.17C267.71 174.4 267.28 173.32 267.98 173.08C270.09 173.29 272.15 174.09 274.28 174.25C286.09 175.15 296.63 173.04 305.48 165.07C306.46 164.19 310 159.29 310.78 162.2C311.13 163.51 308.97 164.48 308.47 165.35C307.53 167 307.49 167.76 306.07 169.58C295.43 183.15 280.78 184.04 264.97 179.76C262.45 181.18 260.35 183.7 257.54 184.51L257.56 184.5ZM299.77 172.44C296.07 174.2 292.44 175.36 288.37 175.96C283.91 176.62 278.79 176.86 274.28 176.67C271.68 176.56 269 174.95 267.51 177.86C276.78 180.21 288.38 180.72 296.67 175.22C297.79 174.48 299 173.55 299.77 172.44ZM264.19 189.93C260.9 189.15 257.71 187.95 254.69 186.42L250.32 188.42C250.17 189.12 250.41 188.9 250.71 189.09C253.6 190.95 258.38 191.47 261.65 192.62L264.19 189.92V189.93ZM255.7 199.51C256.47 197.84 258.57 196.83 259.39 195.2C259.53 194.91 259.89 194.97 259.38 194.59C255.32 193.31 250.89 192.58 247.42 189.97L242.2 192.94C241.87 193.39 243.53 194.4 243.91 194.69C247.17 197.13 251.77 198.76 255.71 199.51H255.7ZM240.03 194.48L233.44 197.76C236.91 202.46 243.08 203.85 248.38 205.58L253.04 201.82C253.18 201.16 252.76 201.43 252.38 201.29C247.95 199.67 243.14 198.17 240.04 194.47L240.03 194.48ZM225 206.8C222.92 205.35 222.11 202.47 219.27 204.09C220.65 205.54 223.05 206.38 225 206.8Z" fill="#DBD4B9"/>
<path d="M79.6002 109.04L78.6402 109.73C73.9602 115 69.1202 120.14 64.6402 125.58C58.9502 132.48 53.7902 139.89 48.1402 146.77C45.1102 147.01 46.9102 144.52 47.8102 143.11C52.4202 135.92 59.7902 127.22 65.3802 120.59C78.7202 104.81 101.01 82.4 122.09 79.03C169.06 71.52 229.22 92.61 262.81 125.75C265.27 128.18 271.42 134.31 272.95 137.01C273.31 137.65 273.55 138.98 272.75 139.25L271.27 139C263.67 129.86 254.99 121.61 245.48 114.45C215.19 91.64 167.11 77.45 129.3 81.12C109.94 83 92.8302 95.69 79.6002 109.04Z" fill="#DBD4B9"/>
<path d="M266 169.73C266.24 171.29 264.48 172.17 263.38 172.99C251.7 181.7 231.87 191.84 218.14 196.78C170.96 213.74 118.51 201.16 74.0601 181.84C69.0101 179.65 61.2001 174.86 55.9901 174.28C53.2401 173.97 46.4901 175.37 46.5101 170.79C46.5101 169.26 47.4101 170.44 48.3301 170.79C51.8601 172.11 52.8301 171.51 56.3201 171.85C61.3201 172.34 66.79 175.94 71.34 177.93C111.17 195.33 157.29 208.8 200.93 199.18C221.44 194.66 239.5 184.92 257.22 174.08C260.04 172.36 262.52 169.68 265.99 169.74L266 169.73Z" fill="#DBD4B9"/>
<path d="M50.0101 182.39C50.6001 182.57 50.6501 183.87 50.1701 184.36C49.5101 185.03 44.5801 184.9 43.4101 184.77C35.7701 183.92 29.9401 176.54 31.9901 168.89C32.2701 167.85 34.5201 161.33 36.1601 163.68C36.8801 164.71 34.2001 169.36 33.9601 171.16C33.3101 176.1 38.6801 182.39 43.6801 182.39C44.9801 182.39 49.1601 182.13 50.0101 182.39Z" fill="#DBD4B9"/>
</svg>
