<svg width="335" height="334" viewBox="0 0 335 334" fill="none" xmlns="http://www.w3.org/2000/svg">
<path d="M166.18 332.36C257.959 332.36 332.36 257.959 332.36 166.18C332.36 74.4014 257.959 0 166.18 0C74.4013 0 0 74.4014 0 166.18C0 257.959 74.4013 332.36 166.18 332.36Z" fill="url(#paint0_linear_30_13762)"/>
<path d="M168.59 2.25C77.34 2.25 3.38 76.2201 3.38 167.46C3.38 258.7 77.35 332.67 168.59 332.67C259.83 332.67 333.8 258.7 333.8 167.46C333.8 76.2201 259.83 2.25 168.59 2.25Z" stroke="#371EAD" stroke-width="2" stroke-miterlimit="10"/>
<path d="M164.99 276.5V230.79" stroke="#36248B" stroke-width="2" stroke-miterlimit="10"/>
<path d="M164.99 111.8V65.3301" stroke="#36248B" stroke-width="2" stroke-miterlimit="10"/>
<path d="M183.33 66.9401L175.25 112.73" stroke="#36248B" stroke-width="2" stroke-miterlimit="10"/>
<path d="M154.59 229.95L146.66 274.89" stroke="#36248B" stroke-width="2" stroke-miterlimit="10"/>
<path d="M201.1 71.7001L185.19 115.42" stroke="#36248B" stroke-width="2" stroke-miterlimit="10"/>
<path d="M144.48 227.29L128.88 270.13" stroke="#36248B" stroke-width="2" stroke-miterlimit="10"/>
<path d="M217.78 79.4801L194.5 119.8" stroke="#36248B" stroke-width="2" stroke-miterlimit="10"/>
<path d="M134.99 222.88L112.2 262.36" stroke="#36248B" stroke-width="2" stroke-miterlimit="10"/>
<path d="M232.86 90.04L202.91 125.72" stroke="#36248B" stroke-width="2" stroke-miterlimit="10"/>
<path d="M126.43 216.88L97.13 251.8" stroke="#36248B" stroke-width="2" stroke-miterlimit="10"/>
<path d="M245.88 103.05L210.2 132.99" stroke="#36248B" stroke-width="2" stroke-miterlimit="10"/>
<path d="M119.04 209.48L84.11 238.79" stroke="#36248B" stroke-width="2" stroke-miterlimit="10"/>
<path d="M256.43 118.13L216.13 141.4" stroke="#36248B" stroke-width="2" stroke-miterlimit="10"/>
<path d="M113.06 200.91L73.56 223.71" stroke="#36248B" stroke-width="2" stroke-miterlimit="10"/>
<path d="M264.21 134.81L220.52 150.71" stroke="#36248B" stroke-width="2" stroke-miterlimit="10"/>
<path d="M108.66 191.42L65.78 207.03" stroke="#36248B" stroke-width="2" stroke-miterlimit="10"/>
<path d="M268.97 152.59L223.23 160.65" stroke="#36248B" stroke-width="2" stroke-miterlimit="10"/>
<path d="M106.01 181.32L61.02 189.25" stroke="#36248B" stroke-width="2" stroke-miterlimit="10"/>
<path d="M270.57 170.92H224.17" stroke="#36248B" stroke-width="2" stroke-miterlimit="10"/>
<path d="M105.18 170.92H59.41" stroke="#36248B" stroke-width="2" stroke-miterlimit="10"/>
<path d="M270.57 170.92H224.17" stroke="#36248B" stroke-width="2" stroke-miterlimit="10"/>
<path d="M105.18 170.92H59.41" stroke="#36248B" stroke-width="2" stroke-miterlimit="10"/>
<path d="M106.14 160.54L61.02 152.59" stroke="#36248B" stroke-width="2" stroke-miterlimit="10"/>
<path d="M268.97 189.25L223.36 181.21" stroke="#36248B" stroke-width="2" stroke-miterlimit="10"/>
<path d="M108.91 150.5L65.78 134.81" stroke="#36248B" stroke-width="2" stroke-miterlimit="10"/>
<path d="M264.21 207.03L220.76 191.22" stroke="#36248B" stroke-width="2" stroke-miterlimit="10"/>
<path d="M113.38 141.12L73.56 118.13" stroke="#36248B" stroke-width="2" stroke-miterlimit="10"/>
<path d="M256.43 223.71L216.45 200.63" stroke="#36248B" stroke-width="2" stroke-miterlimit="10"/>
<path d="M119.42 132.67L84.11 103.05" stroke="#36248B" stroke-width="2" stroke-miterlimit="10"/>
<path d="M245.88 238.79L210.57 209.16" stroke="#36248B" stroke-width="2" stroke-miterlimit="10"/>
<path d="M126.8 125.4L97.13 90.04" stroke="#36248B" stroke-width="2" stroke-miterlimit="10"/>
<path d="M232.86 251.8L203.29 216.57" stroke="#36248B" stroke-width="2" stroke-miterlimit="10"/>
<path d="M135.32 119.53L112.2 79.4801" stroke="#36248B" stroke-width="2" stroke-miterlimit="10"/>
<path d="M217.78 262.36L194.83 222.6" stroke="#36248B" stroke-width="2" stroke-miterlimit="10"/>
<path d="M144.73 115.23L128.88 71.7001" stroke="#36248B" stroke-width="2" stroke-miterlimit="10"/>
<path d="M201.1 270.13L185.43 227.08" stroke="#36248B" stroke-width="2" stroke-miterlimit="10"/>
<path d="M154.72 112.63L146.66 66.9401" stroke="#36248B" stroke-width="2" stroke-miterlimit="10"/>
<path d="M183.33 274.89L175.38 229.84" stroke="#36248B" stroke-width="2" stroke-miterlimit="10"/>
<path d="M164.99 111.8V65.3301" stroke="#36248B" stroke-width="2" stroke-miterlimit="10"/>
<path d="M164.99 276.5V230.79" stroke="#36248B" stroke-width="2" stroke-miterlimit="10"/>
<path d="M171.73 249.82L170.09 230.55" stroke="#36248B" stroke-width="2" stroke-miterlimit="10"/>
<path d="M159.96 111.98L158.26 92.02" stroke="#36248B" stroke-width="2" stroke-miterlimit="10"/>
<path d="M172.06 92.05L170.27 112.06" stroke="#36248B" stroke-width="2" stroke-miterlimit="10"/>
<path d="M159.65 230.58L157.93 249.79" stroke="#36248B" stroke-width="2" stroke-miterlimit="10"/>
<path d="M185.65 94.4701L180.4 113.9" stroke="#36248B" stroke-width="2" stroke-miterlimit="10"/>
<path d="M149.35 228.81L144.34 247.36" stroke="#36248B" stroke-width="2" stroke-miterlimit="10"/>
<path d="M198.6 99.2201L190.05 117.47" stroke="#36248B" stroke-width="2" stroke-miterlimit="10"/>
<path d="M139.52 225.24L131.38 242.62" stroke="#36248B" stroke-width="2" stroke-miterlimit="10"/>
<path d="M210.55 106.15L198.94 122.65" stroke="#36248B" stroke-width="2" stroke-miterlimit="10"/>
<path d="M130.48 220L119.44 235.69" stroke="#36248B" stroke-width="2" stroke-miterlimit="10"/>
<path d="M221.1 115.04L206.81 129.28" stroke="#36248B" stroke-width="2" stroke-miterlimit="10"/>
<path d="M122.49 213.25L108.88 226.79" stroke="#36248B" stroke-width="2" stroke-miterlimit="10"/>
<path d="M229.95 125.63L213.41 137.16" stroke="#36248B" stroke-width="2" stroke-miterlimit="10"/>
<path d="M115.79 205.22L100.04 216.21" stroke="#36248B" stroke-width="2" stroke-miterlimit="10"/>
<path d="M236.83 137.6L218.58 146.07" stroke="#36248B" stroke-width="2" stroke-miterlimit="10"/>
<path d="M110.6 196.15L93.16 204.24" stroke="#36248B" stroke-width="2" stroke-miterlimit="10"/>
<path d="M241.52 150.58L222.12 155.74" stroke="#36248B" stroke-width="2" stroke-miterlimit="10"/>
<path d="M107.08 186.31L88.46 191.26" stroke="#36248B" stroke-width="2" stroke-miterlimit="10"/>
<path d="M243.9 164.18L223.93 165.88" stroke="#36248B" stroke-width="2" stroke-miterlimit="10"/>
<path d="M105.35 176.01L86.09 177.66" stroke="#36248B" stroke-width="2" stroke-miterlimit="10"/>
<path d="M243.9 164.18L223.93 165.88" stroke="#36248B" stroke-width="2" stroke-miterlimit="10"/>
<path d="M105.35 176.01L86.09 177.66" stroke="#36248B" stroke-width="2" stroke-miterlimit="10"/>
<path d="M105.45 165.58L86.13 163.85" stroke="#36248B" stroke-width="2" stroke-miterlimit="10"/>
<path d="M243.86 177.98L223.98 176.21" stroke="#36248B" stroke-width="2" stroke-miterlimit="10"/>
<path d="M107.34 155.34L88.55 150.26" stroke="#36248B" stroke-width="2" stroke-miterlimit="10"/>
<path d="M241.44 191.57L222.25 186.39" stroke="#36248B" stroke-width="2" stroke-miterlimit="10"/>
<path d="M110.99 145.61L93.3 137.31" stroke="#36248B" stroke-width="2" stroke-miterlimit="10"/>
<path d="M236.69 204.53L218.77 196.13" stroke="#36248B" stroke-width="2" stroke-miterlimit="10"/>
<path d="M116.29 136.66L100.22 125.36" stroke="#36248B" stroke-width="2" stroke-miterlimit="10"/>
<path d="M229.76 216.47L213.63 205.12" stroke="#36248B" stroke-width="2" stroke-miterlimit="10"/>
<path d="M224.17 170.92C224.17 169.22 224.08 167.54 223.93 165.88C223.77 164.11 223.54 162.37 223.23 160.65C222.93 158.99 222.56 157.35 222.12 155.74C221.66 154.03 221.13 152.35 220.53 150.71C219.95 149.13 219.3 147.58 218.59 146.07C217.84 144.48 217.03 142.92 216.14 141.41C215.3 139.95 214.39 138.54 213.42 137.17C212.41 135.73 211.34 134.33 210.2 132.99C209.12 131.71 207.99 130.47 206.81 129.29C205.57 128.04 204.27 126.85 202.92 125.73C201.64 124.64 200.31 123.62 198.95 122.66C197.52 121.64 196.04 120.69 194.51 119.81C193.07 118.97 191.59 118.19 190.06 117.47C188.48 116.72 186.86 116.04 185.2 115.43C183.64 114.86 182.04 114.35 180.41 113.91C178.72 113.44 177 113.05 175.26 112.74C173.62 112.45 171.96 112.22 170.28 112.07C168.54 111.9 166.78 111.82 165 111.81C164.89 111.81 164.79 111.81 164.68 111.81C163.09 111.81 161.52 111.87 159.96 111.99C158.19 112.13 156.44 112.34 154.72 112.64C153.05 112.91 151.4 113.27 149.78 113.68C148.06 114.12 146.37 114.64 144.72 115.23C143.13 115.79 141.56 116.43 140.04 117.12C138.43 117.85 136.85 118.66 135.32 119.53C133.85 120.36 132.42 121.26 131.04 122.21C129.58 123.21 128.17 124.27 126.81 125.4C125.51 126.48 124.25 127.61 123.05 128.79C121.78 130.02 120.57 131.32 119.42 132.68C118.32 133.96 117.27 135.29 116.29 136.67C115.25 138.11 114.28 139.6 113.38 141.13C112.52 142.59 111.72 144.08 110.98 145.61C110.22 147.2 109.52 148.84 108.9 150.51C108.31 152.09 107.78 153.71 107.33 155.35C106.85 157.05 106.45 158.79 106.13 160.55C105.82 162.2 105.59 163.89 105.43 165.59C105.25 167.35 105.16 169.13 105.16 170.93C105.16 171.06 105.16 171.18 105.16 171.3C105.16 172.89 105.22 174.46 105.34 176.02C105.48 177.81 105.7 179.58 106 181.33C106.28 183.02 106.65 184.68 107.07 186.32C107.52 188.06 108.05 189.76 108.65 191.43C109.23 193.04 109.87 194.62 110.59 196.16C111.33 197.79 112.15 199.38 113.05 200.92C113.9 202.4 114.81 203.84 115.78 205.24C116.8 206.71 117.88 208.13 119.03 209.49C120.12 210.79 121.26 212.05 122.47 213.26C123.72 214.53 125.05 215.74 126.41 216.89C127.71 217.99 129.07 219.03 130.46 220.01C131.92 221.04 133.42 222 134.97 222.89C136.44 223.74 137.95 224.53 139.5 225.25C141.11 226 142.77 226.69 144.46 227.3C146.05 227.88 147.68 228.38 149.33 228.82C151.05 229.28 152.79 229.66 154.56 229.96C156.22 230.24 157.91 230.46 159.62 230.6C161.27 230.75 162.95 230.82 164.65 230.82C164.76 230.82 164.86 230.82 164.97 230.82C166.69 230.82 168.39 230.74 170.06 230.58C171.85 230.42 173.62 230.18 175.36 229.86C177.04 229.56 178.7 229.18 180.33 228.73C182.06 228.27 183.75 227.72 185.41 227.1C187.01 226.51 188.57 225.85 190.1 225.12C191.71 224.36 193.28 223.53 194.8 222.62C196.26 221.77 197.69 220.84 199.07 219.86C200.51 218.83 201.92 217.74 203.26 216.59C204.55 215.5 205.79 214.34 206.98 213.13C208.23 211.87 209.42 210.55 210.54 209.18C211.62 207.88 212.64 206.53 213.6 205.14C214.61 203.69 215.56 202.19 216.42 200.65C217.26 199.19 218.03 197.69 218.74 196.15C219.47 194.55 220.14 192.92 220.73 191.24C221.29 189.66 221.79 188.05 222.22 186.41C222.66 184.71 223.04 182.98 223.33 181.23C223.61 179.58 223.82 177.91 223.95 176.23C224.08 174.61 224.15 172.97 224.15 171.32C224.15 171.19 224.15 171.07 224.15 170.95L224.17 170.92Z" stroke="#36248B" stroke-width="2" stroke-miterlimit="10"/>
<path d="M123.04 128.79L109.12 114.81" stroke="#36248B" stroke-width="2" stroke-miterlimit="10"/>
<path d="M220.87 227.03L207.01 213.11" stroke="#36248B" stroke-width="2" stroke-miterlimit="10"/>
<path d="M131.04 122.21L119.71 105.96" stroke="#36248B" stroke-width="2" stroke-miterlimit="10"/>
<path d="M210.28 235.88L199.1 219.84" stroke="#36248B" stroke-width="2" stroke-miterlimit="10"/>
<path d="M140.04 117.12L131.68 99.0801" stroke="#36248B" stroke-width="2" stroke-miterlimit="10"/>
<path d="M198.31 242.76L190.12 225.1" stroke="#36248B" stroke-width="2" stroke-miterlimit="10"/>
<path d="M149.78 113.68L144.66 94.39" stroke="#36248B" stroke-width="2" stroke-miterlimit="10"/>
<path d="M185.33 247.45L180.35 228.71" stroke="#36248B" stroke-width="2" stroke-miterlimit="10"/>
<path d="M159.96 111.98L158.26 92.02" stroke="#36248B" stroke-width="2" stroke-miterlimit="10"/>
<path d="M171.73 249.82L170.09 230.55" stroke="#36248B" stroke-width="2" stroke-miterlimit="10"/>
<defs>
<linearGradient id="paint0_linear_30_13762" x1="166.18" y1="-0.01" x2="166.18" y2="332.35" gradientUnits="userSpaceOnUse">
<stop offset="0.32" stop-color="#DBD4B9"/>
<stop offset="0.51" stop-color="#D8D0BB"/>
<stop offset="0.65" stop-color="#D1C7C1"/>
<stop offset="0.78" stop-color="#C6B6CD"/>
<stop offset="0.9" stop-color="#B59FDC"/>
<stop offset="0.97" stop-color="#A98EE9"/>
</linearGradient>
</defs>
</svg>
