<svg width="102" height="23" viewBox="0 0 102 23" fill="none" xmlns="http://www.w3.org/2000/svg">
<path d="M0.139999 11.62C0.139999 5.19 4.6 0.910004 11.45 0.910004C18.3 0.910004 22.79 5.16001 22.79 11.56C22.79 17.96 18.27 22.27 11.45 22.27C4.63 22.27 0.139999 18.02 0.139999 11.62ZM18.15 11.65C18.15 5.49001 15.57 1.40001 11.45 1.40001C7.33 1.40001 4.78 5.46 4.78 11.53C4.78 17.6 7.39 21.78 11.45 21.78C15.51 21.78 18.15 17.72 18.15 11.65Z" fill="url(#paint0_linear_92_3480)"/>
<path d="M36.17 1.34V21.87H31.92L26.07 4.91999V21.87H25.46V3.46L24.73 1.34H28.95L35.56 20.11V1.34H36.17Z" fill="url(#paint1_linear_92_3480)"/>
<path d="M39.6 21.88V1.35001H43.72V21.88H39.6Z" fill="url(#paint2_linear_92_3480)"/>
<path d="M59.34 21.88H54.94L53.82 14.75C53.52 12.96 52.88 11.66 51.51 11.66H51.3V21.88H47.18V1.35001H52.73C56.76 1.35001 58.55 3.41001 58.55 6.11001C58.55 9.48001 56.09 11.08 53.3 11.39C56.06 11.75 57.42 13.12 57.91 15.3L59.34 21.88ZM51.3 11.11H51.88C53.03 11.11 54.12 9.93001 54.12 6.50001C54.12 3.92001 53.67 1.89001 52 1.89001H51.3V11.11Z" fill="url(#paint3_linear_92_3480)"/>
<path d="M61.52 21.88V1.35001H65.64V21.88H61.52Z" fill="url(#paint4_linear_92_3480)"/>
<path d="M80.3 0.930004C80.3 0.930004 80.35 0.930004 80.37 0.930004C80.2 0.920004 80.04 0.910004 79.87 0.910004C73.77 0.910004 68.28 4.52001 68.28 11.49C68.28 18.98 73.62 22.26 79.32 22.26C79.68 22.26 80.03 22.25 80.37 22.22V22.19C80.15 22.21 79.92 22.22 79.69 22.22C75.44 22.22 72.93 18.08 72.93 11.55C72.93 5.02 75.14 0.920002 80.3 0.920002V0.930004Z" fill="url(#paint5_linear_92_3480)"/>
<path d="M78.5 11.62C78.5 5.19 82.96 0.910004 89.81 0.910004C96.66 0.910004 101.15 5.16001 101.15 11.56C101.15 17.96 96.63 22.27 89.81 22.27C82.99 22.27 78.5 18.02 78.5 11.62ZM96.52 11.65C96.52 5.49001 93.94 1.40001 89.82 1.40001C85.7 1.40001 83.15 5.46 83.15 11.53C83.15 17.6 85.76 21.78 89.82 21.78C93.88 21.78 96.52 17.72 96.52 11.65Z" fill="url(#paint6_linear_92_3480)"/>
<path d="M89.9 5.20001C90.22 8.46001 92.8 11.04 96.06 11.36C92.8 11.68 90.22 14.26 89.9 17.52C89.58 14.26 87 11.68 83.74 11.36C87 11.04 89.58 8.46001 89.9 5.20001Z" fill="url(#paint7_linear_92_3480)"/>
<defs>
<linearGradient id="paint0_linear_92_3480" x1="11.47" y1="22.27" x2="11.47" y2="0.920003" gradientUnits="userSpaceOnUse">
<stop offset="0.23" stop-color="#A98EE9"/>
<stop offset="0.47" stop-color="#BBA8D7"/>
<stop offset="0.81" stop-color="#D2C7C1"/>
<stop offset="1" stop-color="#DBD4B9"/>
</linearGradient>
<linearGradient id="paint1_linear_92_3480" x1="30.45" y1="21.88" x2="30.45" y2="1.34" gradientUnits="userSpaceOnUse">
<stop offset="0.23" stop-color="#A98EE9"/>
<stop offset="0.47" stop-color="#BBA8D7"/>
<stop offset="0.81" stop-color="#D2C7C1"/>
<stop offset="1" stop-color="#DBD4B9"/>
</linearGradient>
<linearGradient id="paint2_linear_92_3480" x1="41.66" y1="21.88" x2="41.66" y2="1.34001" gradientUnits="userSpaceOnUse">
<stop offset="0.23" stop-color="#A98EE9"/>
<stop offset="0.47" stop-color="#BBA8D7"/>
<stop offset="0.81" stop-color="#D2C7C1"/>
<stop offset="1" stop-color="#DBD4B9"/>
</linearGradient>
<linearGradient id="paint3_linear_92_3480" x1="53.26" y1="21.88" x2="53.26" y2="1.34001" gradientUnits="userSpaceOnUse">
<stop offset="0.23" stop-color="#A98EE9"/>
<stop offset="0.47" stop-color="#BBA8D7"/>
<stop offset="0.81" stop-color="#D2C7C1"/>
<stop offset="1" stop-color="#DBD4B9"/>
</linearGradient>
<linearGradient id="paint4_linear_92_3480" x1="63.59" y1="21.88" x2="63.59" y2="1.34001" gradientUnits="userSpaceOnUse">
<stop offset="0.23" stop-color="#A98EE9"/>
<stop offset="0.47" stop-color="#BBA8D7"/>
<stop offset="0.81" stop-color="#D2C7C1"/>
<stop offset="1" stop-color="#DBD4B9"/>
</linearGradient>
<linearGradient id="paint5_linear_92_3480" x1="74.33" y1="22.27" x2="74.33" y2="0.920003" gradientUnits="userSpaceOnUse">
<stop offset="0.23" stop-color="#A98EE9"/>
<stop offset="0.47" stop-color="#BBA8D7"/>
<stop offset="0.81" stop-color="#D2C7C1"/>
<stop offset="1" stop-color="#DBD4B9"/>
</linearGradient>
<linearGradient id="paint6_linear_92_3480" x1="89.83" y1="-47" x2="89.83" y2="-47" gradientUnits="userSpaceOnUse">
<stop offset="0.23" stop-color="#A98EE9"/>
<stop offset="0.47" stop-color="#BBA8D7"/>
<stop offset="0.81" stop-color="#D2C7C1"/>
<stop offset="1" stop-color="#DBD4B9"/>
</linearGradient>
<linearGradient id="paint7_linear_92_3480" x1="89.9" y1="17.53" x2="89.9" y2="5.20001" gradientUnits="userSpaceOnUse">
<stop stop-color="#A98EE9"/>
<stop offset="0.31" stop-color="#BBA8D7"/>
<stop offset="0.75" stop-color="#D2C7C1"/>
<stop offset="1" stop-color="#DBD4B9"/>
</linearGradient>
</defs>
</svg>
