<svg width="68" height="69" viewBox="0 0 68 69" fill="none" xmlns="http://www.w3.org/2000/svg">
<path d="M34.04 13.3201C37.32 23.4301 45.33 31.44 55.44 34.72C45.33 38 37.32 46.0101 34.04 56.1201C30.75 46.0101 22.75 38 12.64 34.72C22.75 31.43 30.76 23.4301 34.04 13.3201ZM34.04 0.790039L33.5 6.17993C32.02 20.9899 20.31 32.6999 5.5 34.1799L0.109985 34.72L5.5 35.26C20.31 36.74 32.02 48.45 33.5 63.26L34.04 68.6499L34.58 63.26C36.06 48.45 47.77 36.74 62.58 35.26L67.97 34.72L62.58 34.1799C47.77 32.6999 36.06 20.9899 34.58 6.17993L34.04 0.790039Z" fill="#A98EE9"/>
</svg>
