<svg width="452" height="431" viewBox="0 0 452 431" fill="none" xmlns="http://www.w3.org/2000/svg">
<path d="M400.74 117.6H54.1901C33.4186 117.6 16.5801 134.438 16.5801 155.21V331.93C16.5801 352.701 33.4186 369.54 54.1901 369.54H400.74C421.512 369.54 438.35 352.701 438.35 331.93V155.21C438.35 134.438 421.512 117.6 400.74 117.6Z" fill="#DBD4B9" stroke="#36248B" stroke-width="2" stroke-miterlimit="10"/>
<path d="M121.528 227.508C121.416 227.975 121.425 228.357 121.556 228.656C121.687 228.936 121.957 229.104 122.368 229.16L124.608 229.496C124.869 229.552 125.056 229.636 125.168 229.748C125.28 229.841 125.336 229.981 125.336 230.168C125.336 230.373 125.243 230.541 125.056 230.672C124.869 230.784 124.627 230.84 124.328 230.84H111.616C111.299 230.84 111.075 230.784 110.944 230.672C110.813 230.56 110.748 230.411 110.748 230.224C110.729 230.019 110.795 229.86 110.944 229.748C111.112 229.617 111.317 229.524 111.56 229.468L113.772 229.16C114.239 229.067 114.603 228.889 114.864 228.628C115.144 228.348 115.368 227.947 115.536 227.424C115.779 226.603 116.087 225.511 116.46 224.148C116.833 222.767 117.253 221.217 117.72 219.5C118.205 217.783 118.709 215.981 119.232 214.096C119.755 212.192 120.268 210.288 120.772 208.384C121.276 206.48 121.752 204.66 122.2 202.924C122.667 201.188 123.077 199.629 123.432 198.248C123.787 196.867 124.057 195.747 124.244 194.888C124.337 194.44 124.319 194.095 124.188 193.852C124.057 193.609 123.777 193.451 123.348 193.376L121.136 193.012C120.856 192.937 120.66 192.844 120.548 192.732C120.436 192.62 120.38 192.48 120.38 192.312C120.38 192.088 120.483 191.92 120.688 191.808C120.893 191.696 121.183 191.64 121.556 191.64H134.156C134.473 191.64 134.688 191.696 134.8 191.808C134.931 191.901 134.996 192.032 134.996 192.2C134.996 192.405 134.921 192.573 134.772 192.704C134.623 192.816 134.399 192.909 134.1 192.984L131.72 193.432C131.309 193.507 130.983 193.656 130.74 193.88C130.516 194.085 130.32 194.44 130.152 194.944C129.909 195.821 129.592 196.979 129.2 198.416C128.808 199.835 128.369 201.431 127.884 203.204C127.399 204.977 126.895 206.835 126.372 208.776C125.849 210.717 125.336 212.649 124.832 214.572C124.328 216.476 123.852 218.277 123.404 219.976C122.956 221.675 122.573 223.177 122.256 224.484C121.939 225.791 121.696 226.799 121.528 227.508ZM133.495 210.708C133.346 210.633 133.271 210.512 133.271 210.344C133.29 210.157 133.374 209.924 133.523 209.644C134.345 208.3 135.381 207.236 136.631 206.452C137.882 205.668 139.207 205.276 140.607 205.276C141.541 205.276 142.269 205.491 142.791 205.92C143.314 206.349 143.575 206.993 143.575 207.852C143.575 208.431 143.463 209.121 143.239 209.924C143.015 210.708 142.717 211.585 142.343 212.556C141.97 213.508 141.559 214.535 141.111 215.636C140.682 216.719 140.262 217.857 139.851 219.052L139.739 218.408C140.785 215.944 141.933 213.872 143.183 212.192C144.434 210.512 145.713 209.168 147.019 208.16C148.326 207.152 149.605 206.424 150.855 205.976C152.106 205.509 153.235 205.276 154.243 205.276C155.625 205.276 156.605 205.584 157.183 206.2C157.762 206.816 158.023 207.693 157.967 208.832C157.93 209.952 157.65 211.277 157.127 212.808L153.319 224.26C152.778 225.847 152.582 226.929 152.731 227.508C152.899 228.087 153.226 228.376 153.711 228.376C154.066 228.376 154.449 228.245 154.859 227.984C155.289 227.723 155.811 227.237 156.427 226.528C156.633 226.323 156.801 226.192 156.931 226.136C157.062 226.08 157.193 226.08 157.323 226.136C157.473 226.192 157.538 226.323 157.519 226.528C157.519 226.715 157.445 226.957 157.295 227.256C156.567 228.525 155.606 229.533 154.411 230.28C153.217 231.008 151.863 231.372 150.351 231.372C149.325 231.372 148.541 231.148 147.999 230.7C147.477 230.252 147.197 229.589 147.159 228.712C147.122 227.816 147.318 226.715 147.747 225.408L151.695 213.564C152.33 211.697 152.535 210.409 152.311 209.7C152.106 208.972 151.537 208.608 150.603 208.608C149.913 208.608 149.091 208.86 148.139 209.364C147.206 209.849 146.217 210.615 145.171 211.66C144.145 212.687 143.137 214.012 142.147 215.636C141.177 217.241 140.309 219.164 139.543 221.404C139.151 222.561 138.843 223.513 138.619 224.26C138.395 224.988 138.237 225.576 138.143 226.024C138.069 226.453 138.031 226.817 138.031 227.116C138.031 227.527 138.097 227.863 138.227 228.124C138.377 228.385 138.451 228.712 138.451 229.104C138.451 229.776 138.041 230.327 137.219 230.756C136.417 231.167 135.325 231.372 133.943 231.372C132.898 231.372 132.273 231.045 132.067 230.392C131.862 229.72 132.002 228.693 132.487 227.312L137.499 212.696C138.059 211.072 138.274 209.961 138.143 209.364C138.031 208.767 137.714 208.468 137.191 208.468C136.855 208.468 136.463 208.599 136.015 208.86C135.586 209.121 135.045 209.616 134.391 210.344C134.186 210.512 134.018 210.633 133.887 210.708C133.757 210.764 133.626 210.764 133.495 210.708ZM177.036 205.248C179.146 205.323 180.938 205.873 182.412 206.9C183.887 207.908 184.942 209.345 185.576 211.212C186.23 213.06 186.342 215.272 185.912 217.848C185.595 219.789 184.988 221.6 184.092 223.28C183.215 224.941 182.114 226.388 180.788 227.62C179.482 228.833 177.998 229.776 176.336 230.448C174.694 231.101 172.939 231.409 171.072 231.372C169.038 231.335 167.274 230.831 165.78 229.86C164.287 228.871 163.195 227.452 162.504 225.604C161.832 223.756 161.711 221.535 162.14 218.94C162.476 216.887 163.092 215.011 163.988 213.312C164.903 211.613 166.023 210.148 167.348 208.916C168.692 207.684 170.186 206.751 171.828 206.116C173.471 205.481 175.207 205.192 177.036 205.248ZM171.156 229.86C171.94 229.897 172.715 229.692 173.48 229.244C174.264 228.796 175.02 228.152 175.748 227.312C176.476 226.453 177.139 225.455 177.736 224.316C178.352 223.177 178.884 221.936 179.332 220.592C179.78 219.229 180.126 217.811 180.368 216.336C180.76 214.208 180.863 212.453 180.676 211.072C180.49 209.691 180.079 208.655 179.444 207.964C178.81 207.255 178.007 206.863 177.036 206.788C176.234 206.713 175.44 206.9 174.656 207.348C173.872 207.777 173.107 208.412 172.36 209.252C171.632 210.092 170.951 211.091 170.316 212.248C169.7 213.405 169.159 214.684 168.692 216.084C168.244 217.465 167.899 218.912 167.656 220.424C167.264 222.589 167.171 224.363 167.376 225.744C167.582 227.107 168.011 228.115 168.664 228.768C169.336 229.421 170.167 229.785 171.156 229.86ZM190.504 210.708C190.373 210.633 190.308 210.512 190.308 210.344C190.326 210.157 190.401 209.924 190.532 209.644C191.092 208.748 191.745 207.973 192.492 207.32C193.238 206.667 194.041 206.163 194.9 205.808C195.777 205.453 196.664 205.276 197.56 205.276C198.474 205.276 199.174 205.5 199.66 205.948C200.145 206.377 200.388 207.012 200.388 207.852C200.388 208.543 200.257 209.327 199.996 210.204C199.734 211.081 199.408 212.043 199.016 213.088C198.642 214.115 198.25 215.197 197.84 216.336C197.448 217.475 197.112 218.651 196.832 219.864L196.496 219.808C197.13 217.68 197.896 215.729 198.792 213.956C199.688 212.183 200.668 210.652 201.732 209.364C202.796 208.057 203.888 207.049 205.008 206.34C206.146 205.631 207.276 205.276 208.396 205.276C209.609 205.276 210.514 205.649 211.112 206.396C211.709 207.143 211.98 208.095 211.924 209.252C211.868 210.111 211.672 210.848 211.336 211.464C211.018 212.061 210.608 212.528 210.104 212.864C209.618 213.181 209.077 213.34 208.48 213.34C207.864 213.34 207.388 213.191 207.052 212.892C206.716 212.593 206.548 212.211 206.548 211.744C206.548 211.352 206.594 210.988 206.688 210.652C206.8 210.297 206.856 209.943 206.856 209.588C206.856 209.159 206.772 208.823 206.604 208.58C206.436 208.337 206.156 208.216 205.764 208.216C204.98 208.216 204.065 208.72 203.02 209.728C201.974 210.717 200.901 212.211 199.8 214.208C198.717 216.187 197.709 218.669 196.776 221.656C196.402 222.869 196.104 223.868 195.88 224.652C195.674 225.436 195.572 226.136 195.572 226.752C195.572 227.163 195.656 227.489 195.824 227.732C195.992 227.956 196.16 228.161 196.328 228.348C196.514 228.535 196.608 228.787 196.608 229.104C196.608 229.459 196.393 229.813 195.964 230.168C195.553 230.523 194.965 230.812 194.2 231.036C193.434 231.26 192.548 231.372 191.54 231.372C190.812 231.372 190.28 231.213 189.944 230.896C189.608 230.579 189.449 230.103 189.468 229.468C189.486 228.815 189.654 228.003 189.972 227.032L194.564 212.696C195.086 211.072 195.282 209.961 195.152 209.364C195.04 208.767 194.722 208.468 194.2 208.468C193.864 208.468 193.481 208.599 193.052 208.86C192.622 209.121 192.072 209.616 191.4 210.344C191.194 210.531 191.026 210.652 190.896 210.708C190.765 210.764 190.634 210.764 190.504 210.708ZM214.348 210.708C214.217 210.633 214.152 210.512 214.152 210.344C214.17 210.157 214.245 209.924 214.376 209.644C214.936 208.748 215.589 207.973 216.336 207.32C217.082 206.667 217.885 206.163 218.744 205.808C219.621 205.453 220.508 205.276 221.404 205.276C222.318 205.276 223.018 205.5 223.504 205.948C223.989 206.377 224.232 207.012 224.232 207.852C224.232 208.543 224.101 209.327 223.84 210.204C223.578 211.081 223.252 212.043 222.86 213.088C222.486 214.115 222.094 215.197 221.684 216.336C221.292 217.475 220.956 218.651 220.676 219.864L220.34 219.808C220.974 217.68 221.74 215.729 222.636 213.956C223.532 212.183 224.512 210.652 225.576 209.364C226.64 208.057 227.732 207.049 228.852 206.34C229.99 205.631 231.12 205.276 232.24 205.276C233.453 205.276 234.358 205.649 234.956 206.396C235.553 207.143 235.824 208.095 235.768 209.252C235.712 210.111 235.516 210.848 235.18 211.464C234.862 212.061 234.452 212.528 233.948 212.864C233.462 213.181 232.921 213.34 232.324 213.34C231.708 213.34 231.232 213.191 230.896 212.892C230.56 212.593 230.392 212.211 230.392 211.744C230.392 211.352 230.438 210.988 230.532 210.652C230.644 210.297 230.7 209.943 230.7 209.588C230.7 209.159 230.616 208.823 230.448 208.58C230.28 208.337 230 208.216 229.608 208.216C228.824 208.216 227.909 208.72 226.864 209.728C225.818 210.717 224.745 212.211 223.644 214.208C222.561 216.187 221.553 218.669 220.62 221.656C220.246 222.869 219.948 223.868 219.724 224.652C219.518 225.436 219.416 226.136 219.416 226.752C219.416 227.163 219.5 227.489 219.668 227.732C219.836 227.956 220.004 228.161 220.172 228.348C220.358 228.535 220.452 228.787 220.452 229.104C220.452 229.459 220.237 229.813 219.808 230.168C219.397 230.523 218.809 230.812 218.044 231.036C217.278 231.26 216.392 231.372 215.384 231.372C214.656 231.372 214.124 231.213 213.788 230.896C213.452 230.579 213.293 230.103 213.312 229.468C213.33 228.815 213.498 228.003 213.816 227.032L218.408 212.696C218.93 211.072 219.126 209.961 218.996 209.364C218.884 208.767 218.566 208.468 218.044 208.468C217.708 208.468 217.325 208.599 216.896 208.86C216.466 209.121 215.916 209.616 215.244 210.344C215.038 210.531 214.87 210.652 214.74 210.708C214.609 210.764 214.478 210.764 214.348 210.708ZM238.439 219.164C238.439 219.164 238.794 219.033 239.503 218.772C240.212 218.492 241.127 218.147 242.247 217.736C243.386 217.307 244.59 216.859 245.859 216.392C247.128 215.907 248.332 215.449 249.471 215.02C250.628 214.591 251.571 214.245 252.299 213.984L251.711 214.684C251.86 214.273 251.982 213.779 252.075 213.2C252.168 212.603 252.224 211.884 252.243 211.044C252.243 209.756 251.991 208.701 251.487 207.88C251.002 207.059 250.348 206.648 249.527 206.648C248.65 206.648 247.763 206.975 246.867 207.628C245.971 208.263 245.122 209.168 244.319 210.344C243.535 211.501 242.854 212.883 242.275 214.488C241.715 216.093 241.332 217.857 241.127 219.78C240.847 222.599 241.202 224.736 242.191 226.192C243.18 227.648 244.636 228.376 246.559 228.376C247.698 228.376 248.78 228.152 249.807 227.704C250.834 227.237 251.767 226.565 252.607 225.688C253.466 224.792 254.175 223.681 254.735 222.356C254.903 222.076 255.052 221.889 255.183 221.796C255.332 221.703 255.491 221.656 255.659 221.656C255.846 221.675 255.986 221.768 256.079 221.936C256.191 222.104 256.2 222.375 256.107 222.748C255.622 224.372 254.828 225.837 253.727 227.144C252.626 228.451 251.235 229.487 249.555 230.252C247.894 230.999 245.952 231.372 243.731 231.372C241.79 231.372 240.166 230.971 238.859 230.168C237.571 229.365 236.638 228.199 236.059 226.668C235.499 225.137 235.322 223.289 235.527 221.124C235.732 218.977 236.264 216.952 237.123 215.048C238 213.125 239.111 211.427 240.455 209.952C241.818 208.477 243.339 207.32 245.019 206.48C246.699 205.64 248.463 205.22 250.311 205.22C251.711 205.22 252.887 205.509 253.839 206.088C254.791 206.667 255.51 207.441 255.995 208.412C256.48 209.364 256.742 210.419 256.779 211.576C256.779 211.819 256.835 212.015 256.947 212.164C257.078 212.313 257.274 212.379 257.535 212.36C257.74 212.36 257.89 212.397 257.983 212.472C258.076 212.547 258.132 212.659 258.151 212.808C258.151 212.995 258.076 213.172 257.927 213.34C257.778 213.489 257.488 213.639 257.059 213.788C256.555 213.956 255.752 214.236 254.651 214.628C253.568 215.001 252.327 215.44 250.927 215.944C249.546 216.448 248.136 216.961 246.699 217.484C245.262 217.988 243.927 218.464 242.695 218.912C241.482 219.341 240.502 219.696 239.755 219.976C239.008 220.237 238.635 220.368 238.635 220.368L238.439 219.164ZM274.667 206.648C273.472 206.648 272.268 207.152 271.055 208.16C269.86 209.149 268.806 210.521 267.891 212.276C266.995 214.012 266.388 216.028 266.071 218.324C265.604 221.684 265.828 224.195 266.743 225.856C267.658 227.499 269.095 228.32 271.055 228.32C272.007 228.32 272.94 228.115 273.855 227.704C274.788 227.275 275.647 226.631 276.431 225.772C277.234 224.913 277.878 223.849 278.363 222.58C278.55 222.281 278.708 222.067 278.839 221.936C278.988 221.805 279.147 221.749 279.315 221.768C279.52 221.768 279.67 221.861 279.763 222.048C279.856 222.235 279.856 222.505 279.763 222.86C279.446 223.999 278.96 225.091 278.307 226.136C277.654 227.163 276.832 228.077 275.843 228.88C274.872 229.664 273.752 230.289 272.483 230.756C271.232 231.204 269.851 231.428 268.339 231.428C265.24 231.428 262.982 230.373 261.563 228.264C260.144 226.155 259.734 223.224 260.331 219.472C260.63 217.512 261.218 215.673 262.095 213.956C262.991 212.22 264.102 210.699 265.427 209.392C266.752 208.085 268.236 207.059 269.879 206.312C271.522 205.565 273.267 205.192 275.115 205.192C276.646 205.192 277.924 205.463 278.951 206.004C279.996 206.527 280.771 207.227 281.275 208.104C281.798 208.963 282.031 209.915 281.975 210.96C281.919 212.043 281.602 212.855 281.023 213.396C280.463 213.937 279.828 214.208 279.119 214.208C278.484 214.208 277.971 214.031 277.579 213.676C277.206 213.321 277.028 212.845 277.047 212.248C277.066 211.744 277.14 211.259 277.271 210.792C277.42 210.307 277.495 209.775 277.495 209.196C277.495 208.468 277.243 207.861 276.739 207.376C276.254 206.891 275.563 206.648 274.667 206.648ZM289 207.796L286.704 207.432C286.499 207.357 286.349 207.264 286.256 207.152C286.163 207.021 286.116 206.872 286.116 206.704C286.116 206.499 286.2 206.331 286.368 206.2C286.555 206.069 286.797 206.004 287.096 206.004H289.812C290.111 206.004 290.372 205.957 290.596 205.864C290.82 205.752 291.044 205.575 291.268 205.332L295.216 201.076C295.365 200.871 295.524 200.731 295.692 200.656C295.879 200.581 296.075 200.544 296.28 200.544C296.485 200.544 296.644 200.6 296.756 200.712C296.868 200.824 296.924 200.992 296.924 201.216C296.924 201.347 296.905 201.524 296.868 201.748C296.831 201.972 296.765 202.243 296.672 202.56L290.4 223.952C289.877 225.707 289.737 226.883 289.98 227.48C290.241 228.059 290.783 228.348 291.604 228.348C292.369 228.348 293.116 228.133 293.844 227.704C294.572 227.256 295.347 226.537 296.168 225.548C296.317 225.361 296.448 225.24 296.56 225.184C296.672 225.109 296.784 225.081 296.896 225.1C297.045 225.1 297.148 225.165 297.204 225.296C297.279 225.408 297.288 225.567 297.232 225.772C297.008 226.425 296.616 227.088 296.056 227.76C295.515 228.413 294.843 229.02 294.04 229.58C293.256 230.121 292.369 230.551 291.38 230.868C290.391 231.204 289.336 231.372 288.216 231.372C287.021 231.372 286.107 231.139 285.472 230.672C284.856 230.187 284.511 229.459 284.436 228.488C284.361 227.517 284.539 226.295 284.968 224.82L289.42 209.84C289.644 209.131 289.719 208.636 289.644 208.356C289.588 208.057 289.373 207.871 289 207.796ZM293.676 207.572L294.208 206.06H301.04C301.488 206.06 301.712 206.247 301.712 206.62C301.712 206.919 301.581 207.152 301.32 207.32C301.059 207.488 300.704 207.572 300.256 207.572H293.676ZM316.325 205.248C318.435 205.323 320.227 205.873 321.701 206.9C323.176 207.908 324.231 209.345 324.865 211.212C325.519 213.06 325.631 215.272 325.201 217.848C324.884 219.789 324.277 221.6 323.381 223.28C322.504 224.941 321.403 226.388 320.077 227.62C318.771 228.833 317.287 229.776 315.625 230.448C313.983 231.101 312.228 231.409 310.361 231.372C308.327 231.335 306.563 230.831 305.069 229.86C303.576 228.871 302.484 227.452 301.793 225.604C301.121 223.756 301 221.535 301.429 218.94C301.765 216.887 302.381 215.011 303.277 213.312C304.192 211.613 305.312 210.148 306.637 208.916C307.981 207.684 309.475 206.751 311.117 206.116C312.76 205.481 314.496 205.192 316.325 205.248ZM310.445 229.86C311.229 229.897 312.004 229.692 312.769 229.244C313.553 228.796 314.309 228.152 315.037 227.312C315.765 226.453 316.428 225.455 317.025 224.316C317.641 223.177 318.173 221.936 318.621 220.592C319.069 219.229 319.415 217.811 319.657 216.336C320.049 214.208 320.152 212.453 319.965 211.072C319.779 209.691 319.368 208.655 318.733 207.964C318.099 207.255 317.296 206.863 316.325 206.788C315.523 206.713 314.729 206.9 313.945 207.348C313.161 207.777 312.396 208.412 311.649 209.252C310.921 210.092 310.24 211.091 309.605 212.248C308.989 213.405 308.448 214.684 307.981 216.084C307.533 217.465 307.188 218.912 306.945 220.424C306.553 222.589 306.46 224.363 306.665 225.744C306.871 227.107 307.3 228.115 307.953 228.768C308.625 229.421 309.456 229.785 310.445 229.86Z" fill="#36248B"/>
<path d="M148.55 260.28C147.27 263.08 144.29 270.3 142.87 273.92C142.67 273.9 142.37 273.88 142.11 273.88C141.85 273.88 141.57 273.9 141.31 273.92C140.39 271.28 137.75 264.72 135.85 260.28L135.91 260.24C136.31 260.26 136.83 260.28 137.17 260.28C137.55 260.28 137.97 260.26 138.33 260.24C139.41 263.5 141.43 268.76 142.65 271.62H142.71C143.91 268.92 146.15 262.98 146.93 260.24C147.19 260.26 147.45 260.28 147.67 260.28C147.87 260.28 148.27 260.26 148.51 260.24L148.55 260.28ZM163.985 267.08C163.985 271.38 161.105 274.22 156.745 274.22C152.405 274.22 149.525 271.44 149.525 267.08C149.525 262.72 152.405 259.94 156.745 259.94C161.205 259.94 163.985 262.68 163.985 267.08ZM161.665 267.08C161.665 262.98 159.685 260.76 156.745 260.76C153.825 260.76 151.845 262.86 151.845 267.08C151.845 271.2 153.825 273.36 156.745 273.36C159.685 273.36 161.665 271.22 161.665 267.08ZM174.483 273.92C172.863 273.9 170.743 273.86 169.043 273.86C168.523 273.86 167.363 273.9 166.903 273.92C167.003 272.32 167.063 269.68 167.063 267.88V265.88C167.063 264.08 167.003 261.84 166.903 260.24C167.263 260.26 167.703 260.28 168.063 260.28C168.423 260.28 168.863 260.26 169.223 260.24C169.123 261.84 169.063 264.08 169.063 265.88V267.88C169.063 269.68 169.103 272.08 169.143 272.94C170.823 272.94 172.823 272.86 174.483 272.6C174.463 272.94 174.463 273.14 174.463 273.28C174.463 273.4 174.463 273.6 174.483 273.92ZM186.636 260.28C185.356 263.08 182.376 270.3 180.956 273.92C180.756 273.9 180.456 273.88 180.196 273.88C179.936 273.88 179.656 273.9 179.396 273.92C178.476 271.28 175.836 264.72 173.936 260.28L173.996 260.24C174.396 260.26 174.916 260.28 175.256 260.28C175.636 260.28 176.056 260.26 176.416 260.24C177.496 263.5 179.516 268.76 180.736 271.62H180.796C181.996 268.92 184.236 262.98 185.016 260.24C185.276 260.26 185.536 260.28 185.756 260.28C185.956 260.28 186.356 260.26 186.596 260.24L186.636 260.28ZM195.425 273.92C194.165 273.9 192.305 273.86 190.605 273.86C190.085 273.86 188.945 273.9 188.485 273.92C188.585 272.32 188.645 269.68 188.645 267.88V265.88C188.645 264.08 188.585 261.84 188.485 260.24C188.945 260.26 189.885 260.3 190.525 260.3C191.845 260.3 194.005 260.28 195.325 260.24C195.305 260.48 195.305 260.68 195.305 260.86C195.305 261.02 195.305 261.28 195.325 261.5C194.465 261.32 192.545 261.22 190.725 261.22C190.685 262.14 190.645 264.04 190.645 265.62V266.26C192.905 266.26 194.205 266.16 194.945 266.06C194.925 266.28 194.925 266.52 194.925 266.7C194.925 266.86 194.925 267.12 194.945 267.34C194.205 267.22 192.905 267.18 190.645 267.18V267.92C190.645 269.7 190.685 272.14 190.725 272.94C192.405 272.94 193.985 272.86 195.425 272.6C195.405 272.94 195.405 273.14 195.405 273.28C195.405 273.4 195.405 273.6 195.425 273.92ZM208.27 273.82L208.21 273.9C207.75 273.88 207.43 273.88 207.13 273.88C206.75 273.88 205.93 273.92 205.59 273.96C204.71 272.54 202.17 269.04 200.71 267.38C200.65 267.3 200.57 267.28 200.37 267.28V267.9C200.37 269.68 200.43 272.32 200.53 273.92C200.19 273.9 199.77 273.88 199.41 273.88C199.03 273.88 198.61 273.9 198.25 273.92C198.35 272.32 198.41 269.68 198.41 267.88V265.88C198.41 264.08 198.39 261.84 198.31 260.24C199.07 260.26 199.65 260.28 200.15 260.28C200.49 260.28 200.93 260.26 201.35 260.24C201.79 260.24 202.23 260.22 202.53 260.22C204.79 260.22 206.65 260.96 206.65 263.34C206.65 265.96 204.67 266.9 202.83 267.1C203.77 268.4 207.05 272.42 208.27 273.82ZM204.49 263.6C204.49 261.4 202.83 261.04 201.43 261.04C201.17 261.04 200.79 261.06 200.47 261.1C200.39 262.32 200.37 264.64 200.37 265.86V266.64H201.05C202.79 266.64 204.49 266.18 204.49 263.6ZM225.482 273.88L225.422 273.92C224.982 273.9 224.422 273.88 224.062 273.88C223.762 273.88 223.362 273.9 222.942 273.92C222.582 272.62 221.862 270.56 221.202 268.76C220.502 268.74 219.442 268.74 218.602 268.74C217.782 268.74 216.982 268.74 216.202 268.76C215.422 270.64 214.662 272.7 214.322 273.92C214.102 273.9 213.802 273.88 213.562 273.88C213.282 273.88 212.962 273.9 212.742 273.92L212.682 273.88C214.902 269.2 217.022 264.62 218.982 260.08H219.982C221.622 264.52 224.462 271.68 225.482 273.88ZM220.862 267.82C220.462 266.72 219.502 264.12 218.882 262.6C218.282 263.88 217.162 266.4 216.582 267.82C217.142 267.84 217.982 267.84 218.642 267.84C219.362 267.84 220.282 267.84 220.862 267.82ZM240.445 263.7C240.445 267.3 237.265 267.86 234.865 267.86H233.965V267.98C233.965 269.66 234.025 272.32 234.125 273.92C233.765 273.9 233.325 273.88 232.965 273.88C232.605 273.88 232.165 273.9 231.805 273.92C231.905 272.32 231.965 269.68 231.965 267.88V265.88C231.965 264.08 231.905 261.84 231.805 260.24C232.545 260.26 233.465 260.28 233.965 260.28C234.385 260.28 234.885 260.26 235.365 260.24C235.825 260.24 236.265 260.22 236.545 260.22C238.165 260.22 240.445 260.62 240.445 263.7ZM238.245 263.76C238.245 261.62 236.885 261.04 235.245 261.04C234.845 261.04 234.405 261.08 234.025 261.12C233.985 262.34 233.965 264.68 233.965 265.9V267.06H234.705C236.605 267.06 238.245 266.56 238.245 263.76ZM253.114 273.82L253.054 273.9C252.594 273.88 252.274 273.88 251.974 273.88C251.594 273.88 250.774 273.92 250.434 273.96C249.554 272.54 247.014 269.04 245.554 267.38C245.494 267.3 245.414 267.28 245.214 267.28V267.9C245.214 269.68 245.274 272.32 245.374 273.92C245.034 273.9 244.614 273.88 244.254 273.88C243.874 273.88 243.454 273.9 243.094 273.92C243.194 272.32 243.254 269.68 243.254 267.88V265.88C243.254 264.08 243.234 261.84 243.154 260.24C243.914 260.26 244.494 260.28 244.994 260.28C245.334 260.28 245.774 260.26 246.194 260.24C246.634 260.24 247.074 260.22 247.374 260.22C249.634 260.22 251.494 260.96 251.494 263.34C251.494 265.96 249.514 266.9 247.674 267.1C248.614 268.4 251.894 272.42 253.114 273.82ZM249.334 263.6C249.334 261.4 247.674 261.04 246.274 261.04C246.014 261.04 245.634 261.06 245.314 261.1C245.234 262.32 245.214 264.64 245.214 265.86V266.64H245.894C247.634 266.64 249.334 266.18 249.334 263.6ZM268.789 267.08C268.789 271.38 265.909 274.22 261.549 274.22C257.209 274.22 254.329 271.44 254.329 267.08C254.329 262.72 257.209 259.94 261.549 259.94C266.009 259.94 268.789 262.68 268.789 267.08ZM266.469 267.08C266.469 262.98 264.489 260.76 261.549 260.76C258.629 260.76 256.649 262.86 256.649 267.08C256.649 271.2 258.629 273.36 261.549 273.36C264.489 273.36 266.469 271.22 266.469 267.08ZM280.567 269.96C280.567 273.16 277.887 273.92 275.567 273.92C274.927 273.92 273.827 273.88 273.267 273.88C272.907 273.88 272.127 273.9 271.707 273.92C271.807 272.26 271.867 269.68 271.867 267.88V265.88C271.867 264.08 271.807 261.9 271.707 260.24C272.267 260.26 272.987 260.28 273.447 260.28C273.787 260.28 274.207 260.26 274.647 260.24C275.087 260.24 275.547 260.22 275.907 260.22C277.887 260.22 279.987 260.66 279.987 263.06C279.987 265.02 278.747 266.14 276.647 266.56V266.6C279.027 266.76 280.567 267.68 280.567 269.96ZM277.907 263.5C277.907 261.4 276.287 261.02 274.887 261.02C274.627 261.02 274.207 261.06 273.907 261.12C273.827 262.34 273.827 263.6 273.827 264.82V266.26H274.707C276.447 266.26 277.907 265.68 277.907 263.5ZM278.367 269.92C278.367 267.7 277.067 267.06 274.607 267.06H273.827V268.58C273.827 269.84 273.827 272.04 273.907 272.98C274.327 273.06 274.767 273.12 275.307 273.12C276.887 273.12 278.367 272.28 278.367 269.92ZM294.525 273.88L294.465 273.92C294.025 273.9 293.465 273.88 293.105 273.88C292.805 273.88 292.405 273.9 291.985 273.92C291.625 272.62 290.905 270.56 290.245 268.76C289.545 268.74 288.485 268.74 287.645 268.74C286.825 268.74 286.025 268.74 285.245 268.76C284.465 270.64 283.705 272.7 283.365 273.92C283.145 273.9 282.845 273.88 282.605 273.88C282.325 273.88 282.005 273.9 281.785 273.92L281.725 273.88C283.945 269.2 286.065 264.62 288.025 260.08H289.025C290.665 264.52 293.505 271.68 294.525 273.88ZM289.905 267.82C289.505 266.72 288.545 264.12 287.925 262.6C287.325 263.88 286.205 266.4 285.625 267.82C286.185 267.84 287.025 267.84 287.685 267.84C288.405 267.84 289.325 267.84 289.905 267.82ZM306.571 273.82L306.511 273.9C306.051 273.88 305.731 273.88 305.431 273.88C305.051 273.88 304.231 273.92 303.891 273.96C303.011 272.54 300.471 269.04 299.011 267.38C298.951 267.3 298.871 267.28 298.671 267.28V267.9C298.671 269.68 298.731 272.32 298.831 273.92C298.491 273.9 298.071 273.88 297.711 273.88C297.331 273.88 296.911 273.9 296.551 273.92C296.651 272.32 296.711 269.68 296.711 267.88V265.88C296.711 264.08 296.691 261.84 296.611 260.24C297.371 260.26 297.951 260.28 298.451 260.28C298.791 260.28 299.231 260.26 299.651 260.24C300.091 260.24 300.531 260.22 300.831 260.22C303.091 260.22 304.951 260.96 304.951 263.34C304.951 265.96 302.971 266.9 301.131 267.1C302.071 268.4 305.351 272.42 306.571 273.82ZM302.791 263.6C302.791 261.4 301.131 261.04 299.731 261.04C299.471 261.04 299.091 261.06 298.771 261.1C298.691 262.32 298.671 264.64 298.671 265.86V266.64H299.351C301.091 266.64 302.791 266.18 302.791 263.6Z" fill="#36248B"/>
<path d="M121.27 246.6H326.98C335.223 246.6 341.91 253.286 341.91 261.529V277.6C341.91 285.843 335.224 292.529 326.98 292.529H121.27C113.026 292.529 106.34 285.843 106.34 277.6V261.529C106.34 253.414 112.819 246.809 120.885 246.604L121.27 246.6ZM121.27 246.85C113.174 246.85 106.59 253.433 106.59 261.529V277.6C106.59 285.696 113.174 292.279 121.27 292.279H326.98C335.076 292.279 341.66 285.696 341.66 277.6V261.529C341.66 253.433 335.076 246.85 326.98 246.85H121.27Z" fill="#DBD4B9" stroke="#36248B"/>
<path d="M400.74 118H54.1901C33.4186 118 16.5801 134.839 16.5801 155.61V332.33C16.5801 353.101 33.4186 369.94 54.1901 369.94H400.74C421.512 369.94 438.35 353.101 438.35 332.33V155.61C438.35 134.839 421.512 118 400.74 118Z" fill="#DBD4B9" stroke="#36248B" stroke-width="2" stroke-miterlimit="10"/>
<path d="M121.528 227.908C121.416 228.375 121.425 228.758 121.556 229.056C121.687 229.336 121.957 229.504 122.368 229.56L124.608 229.896C124.869 229.952 125.056 230.036 125.168 230.148C125.28 230.242 125.336 230.382 125.336 230.568C125.336 230.774 125.243 230.942 125.056 231.072C124.869 231.184 124.627 231.24 124.328 231.24H111.616C111.299 231.24 111.075 231.184 110.944 231.072C110.813 230.96 110.748 230.811 110.748 230.624C110.729 230.419 110.795 230.26 110.944 230.148C111.112 230.018 111.317 229.924 111.56 229.868L113.772 229.56C114.239 229.467 114.603 229.29 114.864 229.028C115.144 228.748 115.368 228.347 115.536 227.824C115.779 227.003 116.087 225.911 116.46 224.548C116.833 223.167 117.253 221.618 117.72 219.9C118.205 218.183 118.709 216.382 119.232 214.496C119.755 212.592 120.268 210.688 120.772 208.784C121.276 206.88 121.752 205.06 122.2 203.324C122.667 201.588 123.077 200.03 123.432 198.648C123.787 197.267 124.057 196.147 124.244 195.288C124.337 194.84 124.319 194.495 124.188 194.252C124.057 194.01 123.777 193.851 123.348 193.776L121.136 193.412C120.856 193.338 120.66 193.244 120.548 193.132C120.436 193.02 120.38 192.88 120.38 192.712C120.38 192.488 120.483 192.32 120.688 192.208C120.893 192.096 121.183 192.04 121.556 192.04H134.156C134.473 192.04 134.688 192.096 134.8 192.208C134.931 192.302 134.996 192.432 134.996 192.6C134.996 192.806 134.921 192.974 134.772 193.104C134.623 193.216 134.399 193.31 134.1 193.384L131.72 193.832C131.309 193.907 130.983 194.056 130.74 194.28C130.516 194.486 130.32 194.84 130.152 195.344C129.909 196.222 129.592 197.379 129.2 198.816C128.808 200.235 128.369 201.831 127.884 203.604C127.399 205.378 126.895 207.235 126.372 209.176C125.849 211.118 125.336 213.05 124.832 214.972C124.328 216.876 123.852 218.678 123.404 220.376C122.956 222.075 122.573 223.578 122.256 224.884C121.939 226.191 121.696 227.199 121.528 227.908ZM133.495 211.108C133.346 211.034 133.271 210.912 133.271 210.744C133.29 210.558 133.374 210.324 133.523 210.044C134.345 208.7 135.381 207.636 136.631 206.852C137.882 206.068 139.207 205.676 140.607 205.676C141.541 205.676 142.269 205.891 142.791 206.32C143.314 206.75 143.575 207.394 143.575 208.252C143.575 208.831 143.463 209.522 143.239 210.324C143.015 211.108 142.717 211.986 142.343 212.956C141.97 213.908 141.559 214.935 141.111 216.036C140.682 217.119 140.262 218.258 139.851 219.452L139.739 218.808C140.785 216.344 141.933 214.272 143.183 212.592C144.434 210.912 145.713 209.568 147.019 208.56C148.326 207.552 149.605 206.824 150.855 206.376C152.106 205.91 153.235 205.676 154.243 205.676C155.625 205.676 156.605 205.984 157.183 206.6C157.762 207.216 158.023 208.094 157.967 209.232C157.93 210.352 157.65 211.678 157.127 213.208L153.319 224.66C152.778 226.247 152.582 227.33 152.731 227.908C152.899 228.487 153.226 228.776 153.711 228.776C154.066 228.776 154.449 228.646 154.859 228.384C155.289 228.123 155.811 227.638 156.427 226.928C156.633 226.723 156.801 226.592 156.931 226.536C157.062 226.48 157.193 226.48 157.323 226.536C157.473 226.592 157.538 226.723 157.519 226.928C157.519 227.115 157.445 227.358 157.295 227.656C156.567 228.926 155.606 229.934 154.411 230.68C153.217 231.408 151.863 231.772 150.351 231.772C149.325 231.772 148.541 231.548 147.999 231.1C147.477 230.652 147.197 229.99 147.159 229.112C147.122 228.216 147.318 227.115 147.747 225.808L151.695 213.964C152.33 212.098 152.535 210.81 152.311 210.1C152.106 209.372 151.537 209.008 150.603 209.008C149.913 209.008 149.091 209.26 148.139 209.764C147.206 210.25 146.217 211.015 145.171 212.06C144.145 213.087 143.137 214.412 142.147 216.036C141.177 217.642 140.309 219.564 139.543 221.804C139.151 222.962 138.843 223.914 138.619 224.66C138.395 225.388 138.237 225.976 138.143 226.424C138.069 226.854 138.031 227.218 138.031 227.516C138.031 227.927 138.097 228.263 138.227 228.524C138.377 228.786 138.451 229.112 138.451 229.504C138.451 230.176 138.041 230.727 137.219 231.156C136.417 231.567 135.325 231.772 133.943 231.772C132.898 231.772 132.273 231.446 132.067 230.792C131.862 230.12 132.002 229.094 132.487 227.712L137.499 213.096C138.059 211.472 138.274 210.362 138.143 209.764C138.031 209.167 137.714 208.868 137.191 208.868C136.855 208.868 136.463 208.999 136.015 209.26C135.586 209.522 135.045 210.016 134.391 210.744C134.186 210.912 134.018 211.034 133.887 211.108C133.757 211.164 133.626 211.164 133.495 211.108ZM177.036 205.648C179.146 205.723 180.938 206.274 182.412 207.3C183.887 208.308 184.942 209.746 185.576 211.612C186.23 213.46 186.342 215.672 185.912 218.248C185.595 220.19 184.988 222 184.092 223.68C183.215 225.342 182.114 226.788 180.788 228.02C179.482 229.234 177.998 230.176 176.336 230.848C174.694 231.502 172.939 231.81 171.072 231.772C169.038 231.735 167.274 231.231 165.78 230.26C164.287 229.271 163.195 227.852 162.504 226.004C161.832 224.156 161.711 221.935 162.14 219.34C162.476 217.287 163.092 215.411 163.988 213.712C164.903 212.014 166.023 210.548 167.348 209.316C168.692 208.084 170.186 207.151 171.828 206.516C173.471 205.882 175.207 205.592 177.036 205.648ZM171.156 230.26C171.94 230.298 172.715 230.092 173.48 229.644C174.264 229.196 175.02 228.552 175.748 227.712C176.476 226.854 177.139 225.855 177.736 224.716C178.352 223.578 178.884 222.336 179.332 220.992C179.78 219.63 180.126 218.211 180.368 216.736C180.76 214.608 180.863 212.854 180.676 211.472C180.49 210.091 180.079 209.055 179.444 208.364C178.81 207.655 178.007 207.263 177.036 207.188C176.234 207.114 175.44 207.3 174.656 207.748C173.872 208.178 173.107 208.812 172.36 209.652C171.632 210.492 170.951 211.491 170.316 212.648C169.7 213.806 169.159 215.084 168.692 216.484C168.244 217.866 167.899 219.312 167.656 220.824C167.264 222.99 167.171 224.763 167.376 226.144C167.582 227.507 168.011 228.515 168.664 229.168C169.336 229.822 170.167 230.186 171.156 230.26ZM190.504 211.108C190.373 211.034 190.308 210.912 190.308 210.744C190.326 210.558 190.401 210.324 190.532 210.044C191.092 209.148 191.745 208.374 192.492 207.72C193.238 207.067 194.041 206.563 194.9 206.208C195.777 205.854 196.664 205.676 197.56 205.676C198.474 205.676 199.174 205.9 199.66 206.348C200.145 206.778 200.388 207.412 200.388 208.252C200.388 208.943 200.257 209.727 199.996 210.604C199.734 211.482 199.408 212.443 199.016 213.488C198.642 214.515 198.25 215.598 197.84 216.736C197.448 217.875 197.112 219.051 196.832 220.264L196.496 220.208C197.13 218.08 197.896 216.13 198.792 214.356C199.688 212.583 200.668 211.052 201.732 209.764C202.796 208.458 203.888 207.45 205.008 206.74C206.146 206.031 207.276 205.676 208.396 205.676C209.609 205.676 210.514 206.05 211.112 206.796C211.709 207.543 211.98 208.495 211.924 209.652C211.868 210.511 211.672 211.248 211.336 211.864C211.018 212.462 210.608 212.928 210.104 213.264C209.618 213.582 209.077 213.74 208.48 213.74C207.864 213.74 207.388 213.591 207.052 213.292C206.716 212.994 206.548 212.611 206.548 212.144C206.548 211.752 206.594 211.388 206.688 211.052C206.8 210.698 206.856 210.343 206.856 209.988C206.856 209.559 206.772 209.223 206.604 208.98C206.436 208.738 206.156 208.616 205.764 208.616C204.98 208.616 204.065 209.12 203.02 210.128C201.974 211.118 200.901 212.611 199.8 214.608C198.717 216.587 197.709 219.07 196.776 222.056C196.402 223.27 196.104 224.268 195.88 225.052C195.674 225.836 195.572 226.536 195.572 227.152C195.572 227.563 195.656 227.89 195.824 228.132C195.992 228.356 196.16 228.562 196.328 228.748C196.514 228.935 196.608 229.187 196.608 229.504C196.608 229.859 196.393 230.214 195.964 230.568C195.553 230.923 194.965 231.212 194.2 231.436C193.434 231.66 192.548 231.772 191.54 231.772C190.812 231.772 190.28 231.614 189.944 231.296C189.608 230.979 189.449 230.503 189.468 229.868C189.486 229.215 189.654 228.403 189.972 227.432L194.564 213.096C195.086 211.472 195.282 210.362 195.152 209.764C195.04 209.167 194.722 208.868 194.2 208.868C193.864 208.868 193.481 208.999 193.052 209.26C192.622 209.522 192.072 210.016 191.4 210.744C191.194 210.931 191.026 211.052 190.896 211.108C190.765 211.164 190.634 211.164 190.504 211.108ZM214.348 211.108C214.217 211.034 214.152 210.912 214.152 210.744C214.17 210.558 214.245 210.324 214.376 210.044C214.936 209.148 215.589 208.374 216.336 207.72C217.082 207.067 217.885 206.563 218.744 206.208C219.621 205.854 220.508 205.676 221.404 205.676C222.318 205.676 223.018 205.9 223.504 206.348C223.989 206.778 224.232 207.412 224.232 208.252C224.232 208.943 224.101 209.727 223.84 210.604C223.578 211.482 223.252 212.443 222.86 213.488C222.486 214.515 222.094 215.598 221.684 216.736C221.292 217.875 220.956 219.051 220.676 220.264L220.34 220.208C220.974 218.08 221.74 216.13 222.636 214.356C223.532 212.583 224.512 211.052 225.576 209.764C226.64 208.458 227.732 207.45 228.852 206.74C229.99 206.031 231.12 205.676 232.24 205.676C233.453 205.676 234.358 206.05 234.956 206.796C235.553 207.543 235.824 208.495 235.768 209.652C235.712 210.511 235.516 211.248 235.18 211.864C234.862 212.462 234.452 212.928 233.948 213.264C233.462 213.582 232.921 213.74 232.324 213.74C231.708 213.74 231.232 213.591 230.896 213.292C230.56 212.994 230.392 212.611 230.392 212.144C230.392 211.752 230.438 211.388 230.532 211.052C230.644 210.698 230.7 210.343 230.7 209.988C230.7 209.559 230.616 209.223 230.448 208.98C230.28 208.738 230 208.616 229.608 208.616C228.824 208.616 227.909 209.12 226.864 210.128C225.818 211.118 224.745 212.611 223.644 214.608C222.561 216.587 221.553 219.07 220.62 222.056C220.246 223.27 219.948 224.268 219.724 225.052C219.518 225.836 219.416 226.536 219.416 227.152C219.416 227.563 219.5 227.89 219.668 228.132C219.836 228.356 220.004 228.562 220.172 228.748C220.358 228.935 220.452 229.187 220.452 229.504C220.452 229.859 220.237 230.214 219.808 230.568C219.397 230.923 218.809 231.212 218.044 231.436C217.278 231.66 216.392 231.772 215.384 231.772C214.656 231.772 214.124 231.614 213.788 231.296C213.452 230.979 213.293 230.503 213.312 229.868C213.33 229.215 213.498 228.403 213.816 227.432L218.408 213.096C218.93 211.472 219.126 210.362 218.996 209.764C218.884 209.167 218.566 208.868 218.044 208.868C217.708 208.868 217.325 208.999 216.896 209.26C216.466 209.522 215.916 210.016 215.244 210.744C215.038 210.931 214.87 211.052 214.74 211.108C214.609 211.164 214.478 211.164 214.348 211.108ZM238.439 219.564C238.439 219.564 238.794 219.434 239.503 219.172C240.212 218.892 241.127 218.547 242.247 218.136C243.386 217.707 244.59 217.259 245.859 216.792C247.128 216.307 248.332 215.85 249.471 215.42C250.628 214.991 251.571 214.646 252.299 214.384L251.711 215.084C251.86 214.674 251.982 214.179 252.075 213.6C252.168 213.003 252.224 212.284 252.243 211.444C252.243 210.156 251.991 209.102 251.487 208.28C251.002 207.459 250.348 207.048 249.527 207.048C248.65 207.048 247.763 207.375 246.867 208.028C245.971 208.663 245.122 209.568 244.319 210.744C243.535 211.902 242.854 213.283 242.275 214.888C241.715 216.494 241.332 218.258 241.127 220.18C240.847 222.999 241.202 225.136 242.191 226.592C243.18 228.048 244.636 228.776 246.559 228.776C247.698 228.776 248.78 228.552 249.807 228.104C250.834 227.638 251.767 226.966 252.607 226.088C253.466 225.192 254.175 224.082 254.735 222.756C254.903 222.476 255.052 222.29 255.183 222.196C255.332 222.103 255.491 222.056 255.659 222.056C255.846 222.075 255.986 222.168 256.079 222.336C256.191 222.504 256.2 222.775 256.107 223.148C255.622 224.772 254.828 226.238 253.727 227.544C252.626 228.851 251.235 229.887 249.555 230.652C247.894 231.399 245.952 231.772 243.731 231.772C241.79 231.772 240.166 231.371 238.859 230.568C237.571 229.766 236.638 228.599 236.059 227.068C235.499 225.538 235.322 223.69 235.527 221.524C235.732 219.378 236.264 217.352 237.123 215.448C238 213.526 239.111 211.827 240.455 210.352C241.818 208.878 243.339 207.72 245.019 206.88C246.699 206.04 248.463 205.62 250.311 205.62C251.711 205.62 252.887 205.91 253.839 206.488C254.791 207.067 255.51 207.842 255.995 208.812C256.48 209.764 256.742 210.819 256.779 211.976C256.779 212.219 256.835 212.415 256.947 212.564C257.078 212.714 257.274 212.779 257.535 212.76C257.74 212.76 257.89 212.798 257.983 212.872C258.076 212.947 258.132 213.059 258.151 213.208C258.151 213.395 258.076 213.572 257.927 213.74C257.778 213.89 257.488 214.039 257.059 214.188C256.555 214.356 255.752 214.636 254.651 215.028C253.568 215.402 252.327 215.84 250.927 216.344C249.546 216.848 248.136 217.362 246.699 217.884C245.262 218.388 243.927 218.864 242.695 219.312C241.482 219.742 240.502 220.096 239.755 220.376C239.008 220.638 238.635 220.768 238.635 220.768L238.439 219.564ZM274.667 207.048C273.472 207.048 272.268 207.552 271.055 208.56C269.86 209.55 268.806 210.922 267.891 212.676C266.995 214.412 266.388 216.428 266.071 218.724C265.604 222.084 265.828 224.595 266.743 226.256C267.658 227.899 269.095 228.72 271.055 228.72C272.007 228.72 272.94 228.515 273.855 228.104C274.788 227.675 275.647 227.031 276.431 226.172C277.234 225.314 277.878 224.25 278.363 222.98C278.55 222.682 278.708 222.467 278.839 222.336C278.988 222.206 279.147 222.15 279.315 222.168C279.52 222.168 279.67 222.262 279.763 222.448C279.856 222.635 279.856 222.906 279.763 223.26C279.446 224.399 278.96 225.491 278.307 226.536C277.654 227.563 276.832 228.478 275.843 229.28C274.872 230.064 273.752 230.69 272.483 231.156C271.232 231.604 269.851 231.828 268.339 231.828C265.24 231.828 262.982 230.774 261.563 228.664C260.144 226.555 259.734 223.624 260.331 219.872C260.63 217.912 261.218 216.074 262.095 214.356C262.991 212.62 264.102 211.099 265.427 209.792C266.752 208.486 268.236 207.459 269.879 206.712C271.522 205.966 273.267 205.592 275.115 205.592C276.646 205.592 277.924 205.863 278.951 206.404C279.996 206.927 280.771 207.627 281.275 208.504C281.798 209.363 282.031 210.315 281.975 211.36C281.919 212.443 281.602 213.255 281.023 213.796C280.463 214.338 279.828 214.608 279.119 214.608C278.484 214.608 277.971 214.431 277.579 214.076C277.206 213.722 277.028 213.246 277.047 212.648C277.066 212.144 277.14 211.659 277.271 211.192C277.42 210.707 277.495 210.175 277.495 209.596C277.495 208.868 277.243 208.262 276.739 207.776C276.254 207.291 275.563 207.048 274.667 207.048ZM289 208.196L286.704 207.832C286.499 207.758 286.349 207.664 286.256 207.552C286.163 207.422 286.116 207.272 286.116 207.104C286.116 206.899 286.2 206.731 286.368 206.6C286.555 206.47 286.797 206.404 287.096 206.404H289.812C290.111 206.404 290.372 206.358 290.596 206.264C290.82 206.152 291.044 205.975 291.268 205.732L295.216 201.476C295.365 201.271 295.524 201.131 295.692 201.056C295.879 200.982 296.075 200.944 296.28 200.944C296.485 200.944 296.644 201 296.756 201.112C296.868 201.224 296.924 201.392 296.924 201.616C296.924 201.747 296.905 201.924 296.868 202.148C296.831 202.372 296.765 202.643 296.672 202.96L290.4 224.352C289.877 226.107 289.737 227.283 289.98 227.88C290.241 228.459 290.783 228.748 291.604 228.748C292.369 228.748 293.116 228.534 293.844 228.104C294.572 227.656 295.347 226.938 296.168 225.948C296.317 225.762 296.448 225.64 296.56 225.584C296.672 225.51 296.784 225.482 296.896 225.5C297.045 225.5 297.148 225.566 297.204 225.696C297.279 225.808 297.288 225.967 297.232 226.172C297.008 226.826 296.616 227.488 296.056 228.16C295.515 228.814 294.843 229.42 294.04 229.98C293.256 230.522 292.369 230.951 291.38 231.268C290.391 231.604 289.336 231.772 288.216 231.772C287.021 231.772 286.107 231.539 285.472 231.072C284.856 230.587 284.511 229.859 284.436 228.888C284.361 227.918 284.539 226.695 284.968 225.22L289.42 210.24C289.644 209.531 289.719 209.036 289.644 208.756C289.588 208.458 289.373 208.271 289 208.196ZM293.676 207.972L294.208 206.46H301.04C301.488 206.46 301.712 206.647 301.712 207.02C301.712 207.319 301.581 207.552 301.32 207.72C301.059 207.888 300.704 207.972 300.256 207.972H293.676ZM316.325 205.648C318.435 205.723 320.227 206.274 321.701 207.3C323.176 208.308 324.231 209.746 324.865 211.612C325.519 213.46 325.631 215.672 325.201 218.248C324.884 220.19 324.277 222 323.381 223.68C322.504 225.342 321.403 226.788 320.077 228.02C318.771 229.234 317.287 230.176 315.625 230.848C313.983 231.502 312.228 231.81 310.361 231.772C308.327 231.735 306.563 231.231 305.069 230.26C303.576 229.271 302.484 227.852 301.793 226.004C301.121 224.156 301 221.935 301.429 219.34C301.765 217.287 302.381 215.411 303.277 213.712C304.192 212.014 305.312 210.548 306.637 209.316C307.981 208.084 309.475 207.151 311.117 206.516C312.76 205.882 314.496 205.592 316.325 205.648ZM310.445 230.26C311.229 230.298 312.004 230.092 312.769 229.644C313.553 229.196 314.309 228.552 315.037 227.712C315.765 226.854 316.428 225.855 317.025 224.716C317.641 223.578 318.173 222.336 318.621 220.992C319.069 219.63 319.415 218.211 319.657 216.736C320.049 214.608 320.152 212.854 319.965 211.472C319.779 210.091 319.368 209.055 318.733 208.364C318.099 207.655 317.296 207.263 316.325 207.188C315.523 207.114 314.729 207.3 313.945 207.748C313.161 208.178 312.396 208.812 311.649 209.652C310.921 210.492 310.24 211.491 309.605 212.648C308.989 213.806 308.448 215.084 307.981 216.484C307.533 217.866 307.188 219.312 306.945 220.824C306.553 222.99 306.46 224.763 306.665 226.144C306.871 227.507 307.3 228.515 307.953 229.168C308.625 229.822 309.456 230.186 310.445 230.26Z" fill="#36248B"/>
<path d="M148.55 262.68C147.27 265.48 144.29 272.7 142.87 276.32C142.67 276.3 142.37 276.28 142.11 276.28C141.85 276.28 141.57 276.3 141.31 276.32C140.39 273.68 137.75 267.12 135.85 262.68L135.91 262.64C136.31 262.66 136.83 262.68 137.17 262.68C137.55 262.68 137.97 262.66 138.33 262.64C139.41 265.9 141.43 271.16 142.65 274.02H142.71C143.91 271.32 146.15 265.38 146.93 262.64C147.19 262.66 147.45 262.68 147.67 262.68C147.87 262.68 148.27 262.66 148.51 262.64L148.55 262.68ZM163.985 269.48C163.985 273.78 161.105 276.62 156.745 276.62C152.405 276.62 149.525 273.84 149.525 269.48C149.525 265.12 152.405 262.34 156.745 262.34C161.205 262.34 163.985 265.08 163.985 269.48ZM161.665 269.48C161.665 265.38 159.685 263.16 156.745 263.16C153.825 263.16 151.845 265.26 151.845 269.48C151.845 273.6 153.825 275.76 156.745 275.76C159.685 275.76 161.665 273.62 161.665 269.48ZM174.483 276.32C172.863 276.3 170.743 276.26 169.043 276.26C168.523 276.26 167.363 276.3 166.903 276.32C167.003 274.72 167.063 272.08 167.063 270.28V268.28C167.063 266.48 167.003 264.24 166.903 262.64C167.263 262.66 167.703 262.68 168.063 262.68C168.423 262.68 168.863 262.66 169.223 262.64C169.123 264.24 169.063 266.48 169.063 268.28V270.28C169.063 272.08 169.103 274.48 169.143 275.34C170.823 275.34 172.823 275.26 174.483 275C174.463 275.34 174.463 275.54 174.463 275.68C174.463 275.8 174.463 276 174.483 276.32ZM186.636 262.68C185.356 265.48 182.376 272.7 180.956 276.32C180.756 276.3 180.456 276.28 180.196 276.28C179.936 276.28 179.656 276.3 179.396 276.32C178.476 273.68 175.836 267.12 173.936 262.68L173.996 262.64C174.396 262.66 174.916 262.68 175.256 262.68C175.636 262.68 176.056 262.66 176.416 262.64C177.496 265.9 179.516 271.16 180.736 274.02H180.796C181.996 271.32 184.236 265.38 185.016 262.64C185.276 262.66 185.536 262.68 185.756 262.68C185.956 262.68 186.356 262.66 186.596 262.64L186.636 262.68ZM195.425 276.32C194.165 276.3 192.305 276.26 190.605 276.26C190.085 276.26 188.945 276.3 188.485 276.32C188.585 274.72 188.645 272.08 188.645 270.28V268.28C188.645 266.48 188.585 264.24 188.485 262.64C188.945 262.66 189.885 262.7 190.525 262.7C191.845 262.7 194.005 262.68 195.325 262.64C195.305 262.88 195.305 263.08 195.305 263.26C195.305 263.42 195.305 263.68 195.325 263.9C194.465 263.72 192.545 263.62 190.725 263.62C190.685 264.54 190.645 266.44 190.645 268.02V268.66C192.905 268.66 194.205 268.56 194.945 268.46C194.925 268.68 194.925 268.92 194.925 269.1C194.925 269.26 194.925 269.52 194.945 269.74C194.205 269.62 192.905 269.58 190.645 269.58V270.32C190.645 272.1 190.685 274.54 190.725 275.34C192.405 275.34 193.985 275.26 195.425 275C195.405 275.34 195.405 275.54 195.405 275.68C195.405 275.8 195.405 276 195.425 276.32ZM208.27 276.22L208.21 276.3C207.75 276.28 207.43 276.28 207.13 276.28C206.75 276.28 205.93 276.32 205.59 276.36C204.71 274.94 202.17 271.44 200.71 269.78C200.65 269.7 200.57 269.68 200.37 269.68V270.3C200.37 272.08 200.43 274.72 200.53 276.32C200.19 276.3 199.77 276.28 199.41 276.28C199.03 276.28 198.61 276.3 198.25 276.32C198.35 274.72 198.41 272.08 198.41 270.28V268.28C198.41 266.48 198.39 264.24 198.31 262.64C199.07 262.66 199.65 262.68 200.15 262.68C200.49 262.68 200.93 262.66 201.35 262.64C201.79 262.64 202.23 262.62 202.53 262.62C204.79 262.62 206.65 263.36 206.65 265.74C206.65 268.36 204.67 269.3 202.83 269.5C203.77 270.8 207.05 274.82 208.27 276.22ZM204.49 266C204.49 263.8 202.83 263.44 201.43 263.44C201.17 263.44 200.79 263.46 200.47 263.5C200.39 264.72 200.37 267.04 200.37 268.26V269.04H201.05C202.79 269.04 204.49 268.58 204.49 266ZM225.482 276.28L225.422 276.32C224.982 276.3 224.422 276.28 224.062 276.28C223.762 276.28 223.362 276.3 222.942 276.32C222.582 275.02 221.862 272.96 221.202 271.16C220.502 271.14 219.442 271.14 218.602 271.14C217.782 271.14 216.982 271.14 216.202 271.16C215.422 273.04 214.662 275.1 214.322 276.32C214.102 276.3 213.802 276.28 213.562 276.28C213.282 276.28 212.962 276.3 212.742 276.32L212.682 276.28C214.902 271.6 217.022 267.02 218.982 262.48H219.982C221.622 266.92 224.462 274.08 225.482 276.28ZM220.862 270.22C220.462 269.12 219.502 266.52 218.882 265C218.282 266.28 217.162 268.8 216.582 270.22C217.142 270.24 217.982 270.24 218.642 270.24C219.362 270.24 220.282 270.24 220.862 270.22ZM240.445 266.1C240.445 269.7 237.265 270.26 234.865 270.26H233.965V270.38C233.965 272.06 234.025 274.72 234.125 276.32C233.765 276.3 233.325 276.28 232.965 276.28C232.605 276.28 232.165 276.3 231.805 276.32C231.905 274.72 231.965 272.08 231.965 270.28V268.28C231.965 266.48 231.905 264.24 231.805 262.64C232.545 262.66 233.465 262.68 233.965 262.68C234.385 262.68 234.885 262.66 235.365 262.64C235.825 262.64 236.265 262.62 236.545 262.62C238.165 262.62 240.445 263.02 240.445 266.1ZM238.245 266.16C238.245 264.02 236.885 263.44 235.245 263.44C234.845 263.44 234.405 263.48 234.025 263.52C233.985 264.74 233.965 267.08 233.965 268.3V269.46H234.705C236.605 269.46 238.245 268.96 238.245 266.16ZM253.114 276.22L253.054 276.3C252.594 276.28 252.274 276.28 251.974 276.28C251.594 276.28 250.774 276.32 250.434 276.36C249.554 274.94 247.014 271.44 245.554 269.78C245.494 269.7 245.414 269.68 245.214 269.68V270.3C245.214 272.08 245.274 274.72 245.374 276.32C245.034 276.3 244.614 276.28 244.254 276.28C243.874 276.28 243.454 276.3 243.094 276.32C243.194 274.72 243.254 272.08 243.254 270.28V268.28C243.254 266.48 243.234 264.24 243.154 262.64C243.914 262.66 244.494 262.68 244.994 262.68C245.334 262.68 245.774 262.66 246.194 262.64C246.634 262.64 247.074 262.62 247.374 262.62C249.634 262.62 251.494 263.36 251.494 265.74C251.494 268.36 249.514 269.3 247.674 269.5C248.614 270.8 251.894 274.82 253.114 276.22ZM249.334 266C249.334 263.8 247.674 263.44 246.274 263.44C246.014 263.44 245.634 263.46 245.314 263.5C245.234 264.72 245.214 267.04 245.214 268.26V269.04H245.894C247.634 269.04 249.334 268.58 249.334 266ZM268.789 269.48C268.789 273.78 265.909 276.62 261.549 276.62C257.209 276.62 254.329 273.84 254.329 269.48C254.329 265.12 257.209 262.34 261.549 262.34C266.009 262.34 268.789 265.08 268.789 269.48ZM266.469 269.48C266.469 265.38 264.489 263.16 261.549 263.16C258.629 263.16 256.649 265.26 256.649 269.48C256.649 273.6 258.629 275.76 261.549 275.76C264.489 275.76 266.469 273.62 266.469 269.48ZM280.567 272.36C280.567 275.56 277.887 276.32 275.567 276.32C274.927 276.32 273.827 276.28 273.267 276.28C272.907 276.28 272.127 276.3 271.707 276.32C271.807 274.66 271.867 272.08 271.867 270.28V268.28C271.867 266.48 271.807 264.3 271.707 262.64C272.267 262.66 272.987 262.68 273.447 262.68C273.787 262.68 274.207 262.66 274.647 262.64C275.087 262.64 275.547 262.62 275.907 262.62C277.887 262.62 279.987 263.06 279.987 265.46C279.987 267.42 278.747 268.54 276.647 268.96V269C279.027 269.16 280.567 270.08 280.567 272.36ZM277.907 265.9C277.907 263.8 276.287 263.42 274.887 263.42C274.627 263.42 274.207 263.46 273.907 263.52C273.827 264.74 273.827 266 273.827 267.22V268.66H274.707C276.447 268.66 277.907 268.08 277.907 265.9ZM278.367 272.32C278.367 270.1 277.067 269.46 274.607 269.46H273.827V270.98C273.827 272.24 273.827 274.44 273.907 275.38C274.327 275.46 274.767 275.52 275.307 275.52C276.887 275.52 278.367 274.68 278.367 272.32ZM294.525 276.28L294.465 276.32C294.025 276.3 293.465 276.28 293.105 276.28C292.805 276.28 292.405 276.3 291.985 276.32C291.625 275.02 290.905 272.96 290.245 271.16C289.545 271.14 288.485 271.14 287.645 271.14C286.825 271.14 286.025 271.14 285.245 271.16C284.465 273.04 283.705 275.1 283.365 276.32C283.145 276.3 282.845 276.28 282.605 276.28C282.325 276.28 282.005 276.3 281.785 276.32L281.725 276.28C283.945 271.6 286.065 267.02 288.025 262.48H289.025C290.665 266.92 293.505 274.08 294.525 276.28ZM289.905 270.22C289.505 269.12 288.545 266.52 287.925 265C287.325 266.28 286.205 268.8 285.625 270.22C286.185 270.24 287.025 270.24 287.685 270.24C288.405 270.24 289.325 270.24 289.905 270.22ZM306.571 276.22L306.511 276.3C306.051 276.28 305.731 276.28 305.431 276.28C305.051 276.28 304.231 276.32 303.891 276.36C303.011 274.94 300.471 271.44 299.011 269.78C298.951 269.7 298.871 269.68 298.671 269.68V270.3C298.671 272.08 298.731 274.72 298.831 276.32C298.491 276.3 298.071 276.28 297.711 276.28C297.331 276.28 296.911 276.3 296.551 276.32C296.651 274.72 296.711 272.08 296.711 270.28V268.28C296.711 266.48 296.691 264.24 296.611 262.64C297.371 262.66 297.951 262.68 298.451 262.68C298.791 262.68 299.231 262.66 299.651 262.64C300.091 262.64 300.531 262.62 300.831 262.62C303.091 262.62 304.951 263.36 304.951 265.74C304.951 268.36 302.971 269.3 301.131 269.5C302.071 270.8 305.351 274.82 306.571 276.22ZM302.791 266C302.791 263.8 301.131 263.44 299.731 263.44C299.471 263.44 299.091 263.46 298.771 263.5C298.691 264.72 298.671 267.04 298.671 268.26V269.04H299.351C301.091 269.04 302.791 268.58 302.791 266Z" fill="#36248B"/>
<path d="M121.27 247H326.98C335.223 247 341.91 253.686 341.91 261.93V278C341.91 286.244 335.224 292.93 326.98 292.93H121.27C113.026 292.93 106.34 286.244 106.34 278V261.93C106.34 253.815 112.819 247.209 120.885 247.005L121.27 247ZM121.27 247.25C113.174 247.25 106.59 253.834 106.59 261.93V278C106.59 286.096 113.174 292.68 121.27 292.68H326.98C335.076 292.68 341.66 286.096 341.66 278V261.93C341.66 253.834 335.076 247.25 326.98 247.25H121.27Z" fill="#DBD4B9" stroke="#36248B"/>
</svg>
