<svg width="1366" height="768" viewBox="0 0 1366 768" fill="none" xmlns="http://www.w3.org/2000/svg">
<path d="M1283.72 244.14H165.79V505.78H1283.72V244.14Z" fill="#0A0031"/>
<path d="M201.22 506.06H1248.56" stroke="#DBD4B9" stroke-width="2" stroke-miterlimit="10"/>
<path d="M164.6 468.34H1248.56" stroke="#DBD4B9" stroke-width="0.76" stroke-miterlimit="10"/>
<path d="M164.6 428.51H1248.56" stroke="#DBD4B9" stroke-width="0.76" stroke-miterlimit="10"/>
<path d="M164.6 388.62H1248.56" stroke="#DBD4B9" stroke-width="0.76" stroke-miterlimit="10"/>
<path d="M164.6 352.4H1248.56" stroke="#DBD4B9" stroke-width="0.76" stroke-miterlimit="10"/>
<path d="M164.6 309.49H1248.56" stroke="#DBD4B9" stroke-width="0.76" stroke-miterlimit="10"/>
<path d="M201.22 506.57V300.21" stroke="#DBD4B9" stroke-width="2" stroke-miterlimit="10"/>
<path d="M201.18 272.11V506.32" stroke="#DBD4B9" stroke-width="2" stroke-miterlimit="10"/>
<path d="M332.19 272.11V506.32" stroke="#DBD4B9" stroke-width="2" stroke-miterlimit="10"/>
<path d="M463.2 272.11V506.32" stroke="#DBD4B9" stroke-width="2" stroke-miterlimit="10"/>
<path d="M594.22 272.11V506.32" stroke="#DBD4B9" stroke-width="2" stroke-miterlimit="10"/>
<path d="M725.23 272.11V506.32" stroke="#DBD4B9" stroke-width="2" stroke-miterlimit="10"/>
<path d="M856.24 272.11V506.32" stroke="#DBD4B9" stroke-width="2" stroke-miterlimit="10"/>
<path d="M987.26 272.11V506.32" stroke="#DBD4B9" stroke-width="2" stroke-miterlimit="10"/>
<path d="M1118.27 272.11V506.32" stroke="#DBD4B9" stroke-width="2" stroke-miterlimit="10"/>
<path d="M1249.28 272.11V506.32" stroke="#DBD4B9" stroke-width="2" stroke-miterlimit="10"/>
<path d="M958.34 388.181H927.82V505.031H958.34V388.181Z" fill="#A98EE9"/>
<path d="M927.83 352.181H880.07V505.031H927.83V352.181Z" fill="#A98EE9"/>
<path d="M1056.22 455.391H958.36V505.041H1056.22V455.391Z" fill="#36248B"/>
<path d="M187.166 262.026C185.762 261.99 184.286 261.972 182.954 261.972C181.55 261.972 180.254 261.99 178.886 262.026V261.576C183.854 257.13 184.898 255.222 184.898 252.918C184.898 251.388 184.232 250.236 182.846 250.236C181.424 250.236 180.722 251.37 180.596 252.504L180.254 252.522C180.092 252.036 179.75 251.514 179.534 251.262C180.218 250.2 181.514 249.444 183.224 249.444C185.546 249.444 186.95 250.614 186.95 252.702C186.95 254.394 186.122 255.69 184.484 257.22C183.458 258.174 182.162 259.47 181.28 260.406C181.874 260.424 182.576 260.424 183.116 260.424C184.43 260.424 186.32 260.388 187.166 260.298C187.148 260.658 187.148 260.964 187.148 261.18C187.148 261.414 187.148 261.684 187.166 262.026ZM196.711 262.026C195.307 261.99 193.831 261.972 192.499 261.972C191.095 261.972 189.799 261.99 188.431 262.026V261.576C193.399 257.13 194.443 255.222 194.443 252.918C194.443 251.388 193.777 250.236 192.391 250.236C190.969 250.236 190.267 251.37 190.141 252.504L189.799 252.522C189.637 252.036 189.295 251.514 189.079 251.262C189.763 250.2 191.059 249.444 192.769 249.444C195.091 249.444 196.495 250.614 196.495 252.702C196.495 254.394 195.667 255.69 194.029 257.22C193.003 258.174 191.707 259.47 190.825 260.406C191.419 260.424 192.121 260.424 192.661 260.424C193.975 260.424 195.865 260.388 196.711 260.298C196.693 260.658 196.693 260.964 196.693 261.18C196.693 261.414 196.693 261.684 196.711 262.026ZM201.594 254.664C201.594 255.294 201.09 255.816 200.46 255.816C199.83 255.816 199.326 255.294 199.326 254.664C199.326 254.052 199.83 253.53 200.46 253.53C201.09 253.53 201.594 254.052 201.594 254.664ZM201.594 260.838C201.594 261.468 201.09 261.99 200.46 261.99C199.83 261.99 199.326 261.468 199.326 260.838C199.326 260.226 199.83 259.704 200.46 259.704C201.09 259.704 201.594 260.226 201.594 260.838ZM213.524 255.834C213.524 259.2 212.102 262.296 208.898 262.296C205.154 262.296 204.29 259.308 204.29 255.834C204.29 252.342 205.46 249.444 208.898 249.444C212.678 249.444 213.524 252.342 213.524 255.834ZM211.49 255.78C211.49 252.558 210.842 250.056 208.898 250.056C206.954 250.056 206.306 252.324 206.306 255.78C206.306 259.002 206.936 261.612 208.898 261.612C210.86 261.612 211.49 259.002 211.49 255.78ZM224.985 255.834C224.985 259.2 223.563 262.296 220.359 262.296C216.615 262.296 215.751 259.308 215.751 255.834C215.751 252.342 216.921 249.444 220.359 249.444C224.139 249.444 224.985 252.342 224.985 255.834ZM222.951 255.78C222.951 252.558 222.303 250.056 220.359 250.056C218.415 250.056 217.767 252.324 217.767 255.78C217.767 259.002 218.397 261.612 220.359 261.612C222.321 261.612 222.951 259.002 222.951 255.78Z" fill="#DBD4B9"/>
<path d="M319.276 262.026C317.872 261.99 316.396 261.972 315.064 261.972C313.66 261.972 312.364 261.99 310.996 262.026V261.576C315.964 257.13 317.008 255.222 317.008 252.918C317.008 251.388 316.342 250.236 314.956 250.236C313.534 250.236 312.832 251.37 312.706 252.504L312.364 252.522C312.202 252.036 311.86 251.514 311.644 251.262C312.328 250.2 313.624 249.444 315.334 249.444C317.656 249.444 319.06 250.614 319.06 252.702C319.06 254.394 318.232 255.69 316.594 257.22C315.568 258.174 314.272 259.47 313.39 260.406C313.984 260.424 314.686 260.424 315.226 260.424C316.54 260.424 318.43 260.388 319.276 260.298C319.258 260.658 319.258 260.964 319.258 261.18C319.258 261.414 319.258 261.684 319.276 262.026ZM328.479 258.372C328.479 260.82 326.517 262.296 323.799 262.296C322.557 262.296 321.369 262.008 320.685 261.594C320.811 261.252 321.009 260.352 321.081 259.722L321.423 259.704C321.675 260.91 322.431 261.522 323.619 261.522C325.437 261.522 326.427 260.262 326.427 258.48C326.427 256.698 325.473 255.924 323.925 255.924C323.691 255.924 323.367 255.96 323.115 256.014C323.133 255.834 323.133 255.672 323.133 255.546C323.133 255.438 323.133 255.276 323.115 255.114C323.295 255.132 323.619 255.15 323.871 255.15C325.653 255.15 326.157 253.728 326.157 252.414C326.157 251.082 325.455 250.164 324.159 250.164C323.025 250.164 322.395 250.992 322.269 252L321.909 252.018C321.693 251.442 321.477 250.956 321.261 250.632C321.909 250.02 323.043 249.444 324.429 249.444C326.283 249.444 328.047 250.2 328.047 252.252C328.047 254.124 326.751 255.042 325.365 255.348V255.42C326.697 255.564 328.479 256.176 328.479 258.372ZM333.335 254.664C333.335 255.294 332.831 255.816 332.201 255.816C331.571 255.816 331.067 255.294 331.067 254.664C331.067 254.052 331.571 253.53 332.201 253.53C332.831 253.53 333.335 254.052 333.335 254.664ZM333.335 260.838C333.335 261.468 332.831 261.99 332.201 261.99C331.571 261.99 331.067 261.468 331.067 260.838C331.067 260.226 331.571 259.704 332.201 259.704C332.831 259.704 333.335 260.226 333.335 260.838ZM345.265 255.834C345.265 259.2 343.843 262.296 340.639 262.296C336.895 262.296 336.031 259.308 336.031 255.834C336.031 252.342 337.201 249.444 340.639 249.444C344.419 249.444 345.265 252.342 345.265 255.834ZM343.231 255.78C343.231 252.558 342.583 250.056 340.639 250.056C338.695 250.056 338.047 252.324 338.047 255.78C338.047 259.002 338.677 261.612 340.639 261.612C342.601 261.612 343.231 259.002 343.231 255.78ZM356.726 255.834C356.726 259.2 355.304 262.296 352.1 262.296C348.356 262.296 347.492 259.308 347.492 255.834C347.492 252.342 348.662 249.444 352.1 249.444C355.88 249.444 356.726 252.342 356.726 255.834ZM354.692 255.78C354.692 252.558 354.044 250.056 352.1 250.056C350.156 250.056 349.508 252.324 349.508 255.78C349.508 259.002 350.138 261.612 352.1 261.612C354.062 261.612 354.692 259.002 354.692 255.78Z" fill="#DBD4B9"/>
<path d="M449.136 262.026C447.732 261.99 446.256 261.972 444.924 261.972C443.52 261.972 442.224 261.99 440.856 262.026V261.576C445.824 257.13 446.868 255.222 446.868 252.918C446.868 251.388 446.202 250.236 444.816 250.236C443.394 250.236 442.692 251.37 442.566 252.504L442.224 252.522C442.062 252.036 441.72 251.514 441.504 251.262C442.188 250.2 443.484 249.444 445.194 249.444C447.516 249.444 448.92 250.614 448.92 252.702C448.92 254.394 448.092 255.69 446.454 257.22C445.428 258.174 444.132 259.47 443.25 260.406C443.844 260.424 444.546 260.424 445.086 260.424C446.4 260.424 448.29 260.388 449.136 260.298C449.118 260.658 449.118 260.964 449.118 261.18C449.118 261.414 449.118 261.684 449.136 262.026ZM459.581 258.768C459.149 258.732 458.537 258.696 457.763 258.696V259.344C457.763 260.298 457.817 261.324 457.871 262.026C457.619 262.008 457.223 261.99 456.881 261.99C456.539 261.99 456.233 262.008 455.927 262.026C456.017 261.198 456.053 260.262 456.053 259.344V258.696H454.109C453.155 258.696 451.841 258.714 450.527 258.75V258.174C452.327 255.636 455.027 251.748 456.323 249.696C456.557 249.714 456.845 249.732 457.061 249.732C457.295 249.732 457.655 249.714 457.889 249.696C457.781 251.748 457.763 254.97 457.763 257.58C458.537 257.58 459.149 257.544 459.581 257.49C459.563 257.814 459.563 257.994 459.563 258.102C459.563 258.228 459.563 258.444 459.581 258.768ZM456.053 257.58V251.514H456.017C454.991 252.954 452.795 256.176 451.877 257.58H456.053ZM463.951 254.664C463.951 255.294 463.447 255.816 462.817 255.816C462.187 255.816 461.683 255.294 461.683 254.664C461.683 254.052 462.187 253.53 462.817 253.53C463.447 253.53 463.951 254.052 463.951 254.664ZM463.951 260.838C463.951 261.468 463.447 261.99 462.817 261.99C462.187 261.99 461.683 261.468 461.683 260.838C461.683 260.226 462.187 259.704 462.817 259.704C463.447 259.704 463.951 260.226 463.951 260.838ZM475.881 255.834C475.881 259.2 474.459 262.296 471.255 262.296C467.511 262.296 466.647 259.308 466.647 255.834C466.647 252.342 467.817 249.444 471.255 249.444C475.035 249.444 475.881 252.342 475.881 255.834ZM473.847 255.78C473.847 252.558 473.199 250.056 471.255 250.056C469.311 250.056 468.663 252.324 468.663 255.78C468.663 259.002 469.293 261.612 471.255 261.612C473.217 261.612 473.847 259.002 473.847 255.78ZM487.342 255.834C487.342 259.2 485.92 262.296 482.716 262.296C478.972 262.296 478.108 259.308 478.108 255.834C478.108 252.342 479.278 249.444 482.716 249.444C486.496 249.444 487.342 252.342 487.342 255.834ZM485.308 255.78C485.308 252.558 484.66 250.056 482.716 250.056C480.772 250.056 480.124 252.324 480.124 255.78C480.124 259.002 480.754 261.612 482.716 261.612C484.678 261.612 485.308 259.002 485.308 255.78Z" fill="#DBD4B9"/>
<path d="M583.238 255.834C583.238 259.2 581.816 262.296 578.612 262.296C574.868 262.296 574.004 259.308 574.004 255.834C574.004 252.342 575.174 249.444 578.612 249.444C582.392 249.444 583.238 252.342 583.238 255.834ZM581.204 255.78C581.204 252.558 580.556 250.056 578.612 250.056C576.668 250.056 576.02 252.324 576.02 255.78C576.02 259.002 576.65 261.612 578.612 261.612C580.574 261.612 581.204 259.002 581.204 255.78ZM588.795 249.462L588.957 249.534C588.849 250.794 588.795 252.666 588.795 254.268V257.346C588.795 259.02 588.831 260.514 588.957 262.026C588.651 262.008 588.237 261.99 587.895 261.99C587.571 261.99 587.139 262.008 586.797 262.026C586.941 260.514 586.977 257.706 586.977 255.51V250.956H584.385V250.398C586.311 250.164 587.859 249.786 588.795 249.462ZM594.845 254.664C594.845 255.294 594.341 255.816 593.711 255.816C593.081 255.816 592.577 255.294 592.577 254.664C592.577 254.052 593.081 253.53 593.711 253.53C594.341 253.53 594.845 254.052 594.845 254.664ZM594.845 260.838C594.845 261.468 594.341 261.99 593.711 261.99C593.081 261.99 592.577 261.468 592.577 260.838C592.577 260.226 593.081 259.704 593.711 259.704C594.341 259.704 594.845 260.226 594.845 260.838ZM606.775 255.834C606.775 259.2 605.353 262.296 602.149 262.296C598.405 262.296 597.541 259.308 597.541 255.834C597.541 252.342 598.711 249.444 602.149 249.444C605.929 249.444 606.775 252.342 606.775 255.834ZM604.741 255.78C604.741 252.558 604.093 250.056 602.149 250.056C600.205 250.056 599.557 252.324 599.557 255.78C599.557 259.002 600.187 261.612 602.149 261.612C604.111 261.612 604.741 259.002 604.741 255.78ZM618.236 255.834C618.236 259.2 616.814 262.296 613.61 262.296C609.866 262.296 609.002 259.308 609.002 255.834C609.002 252.342 610.172 249.444 613.61 249.444C617.39 249.444 618.236 252.342 618.236 255.834ZM616.202 255.78C616.202 252.558 615.554 250.056 613.61 250.056C611.666 250.056 611.018 252.324 611.018 255.78C611.018 259.002 611.648 261.612 613.61 261.612C615.572 261.612 616.202 259.002 616.202 255.78Z" fill="#DBD4B9"/>
<path d="M711.348 255.834C711.348 259.2 709.926 262.296 706.722 262.296C702.978 262.296 702.114 259.308 702.114 255.834C702.114 252.342 703.284 249.444 706.722 249.444C710.502 249.444 711.348 252.342 711.348 255.834ZM709.314 255.78C709.314 252.558 708.666 250.056 706.722 250.056C704.778 250.056 704.13 252.324 704.13 255.78C704.13 259.002 704.76 261.612 706.722 261.612C708.684 261.612 709.314 259.002 709.314 255.78ZM720.937 262.026C719.533 261.99 718.057 261.972 716.725 261.972C715.321 261.972 714.025 261.99 712.657 262.026V261.576C717.625 257.13 718.669 255.222 718.669 252.918C718.669 251.388 718.003 250.236 716.617 250.236C715.195 250.236 714.493 251.37 714.367 252.504L714.025 252.522C713.863 252.036 713.521 251.514 713.305 251.262C713.989 250.2 715.285 249.444 716.995 249.444C719.317 249.444 720.721 250.614 720.721 252.702C720.721 254.394 719.893 255.69 718.255 257.22C717.229 258.174 715.933 259.47 715.051 260.406C715.645 260.424 716.347 260.424 716.887 260.424C718.201 260.424 720.091 260.388 720.937 260.298C720.919 260.658 720.919 260.964 720.919 261.18C720.919 261.414 720.919 261.684 720.937 262.026ZM725.82 254.664C725.82 255.294 725.316 255.816 724.686 255.816C724.056 255.816 723.552 255.294 723.552 254.664C723.552 254.052 724.056 253.53 724.686 253.53C725.316 253.53 725.82 254.052 725.82 254.664ZM725.82 260.838C725.82 261.468 725.316 261.99 724.686 261.99C724.056 261.99 723.552 261.468 723.552 260.838C723.552 260.226 724.056 259.704 724.686 259.704C725.316 259.704 725.82 260.226 725.82 260.838ZM737.75 255.834C737.75 259.2 736.328 262.296 733.124 262.296C729.38 262.296 728.516 259.308 728.516 255.834C728.516 252.342 729.686 249.444 733.124 249.444C736.904 249.444 737.75 252.342 737.75 255.834ZM735.716 255.78C735.716 252.558 735.068 250.056 733.124 250.056C731.18 250.056 730.532 252.324 730.532 255.78C730.532 259.002 731.162 261.612 733.124 261.612C735.086 261.612 735.716 259.002 735.716 255.78ZM749.211 255.834C749.211 259.2 747.789 262.296 744.585 262.296C740.841 262.296 739.977 259.308 739.977 255.834C739.977 252.342 741.147 249.444 744.585 249.444C748.365 249.444 749.211 252.342 749.211 255.834ZM747.177 255.78C747.177 252.558 746.529 250.056 744.585 250.056C742.641 250.056 741.993 252.324 741.993 255.78C741.993 259.002 742.623 261.612 744.585 261.612C746.547 261.612 747.177 259.002 747.177 255.78Z" fill="#DBD4B9"/>
<path d="M842.848 255.834C842.848 259.2 841.426 262.296 838.222 262.296C834.478 262.296 833.614 259.308 833.614 255.834C833.614 252.342 834.784 249.444 838.222 249.444C842.002 249.444 842.848 252.342 842.848 255.834ZM840.814 255.78C840.814 252.558 840.166 250.056 838.222 250.056C836.278 250.056 835.63 252.324 835.63 255.78C835.63 259.002 836.26 261.612 838.222 261.612C840.184 261.612 840.814 259.002 840.814 255.78ZM852.095 258.372C852.095 260.82 850.133 262.296 847.415 262.296C846.173 262.296 844.985 262.008 844.301 261.594C844.427 261.252 844.625 260.352 844.697 259.722L845.039 259.704C845.291 260.91 846.047 261.522 847.235 261.522C849.053 261.522 850.043 260.262 850.043 258.48C850.043 256.698 849.089 255.924 847.541 255.924C847.307 255.924 846.983 255.96 846.731 256.014C846.749 255.834 846.749 255.672 846.749 255.546C846.749 255.438 846.749 255.276 846.731 255.114C846.911 255.132 847.235 255.15 847.487 255.15C849.269 255.15 849.773 253.728 849.773 252.414C849.773 251.082 849.071 250.164 847.775 250.164C846.641 250.164 846.011 250.992 845.885 252L845.525 252.018C845.309 251.442 845.093 250.956 844.877 250.632C845.525 250.02 846.659 249.444 848.045 249.444C849.899 249.444 851.663 250.2 851.663 252.252C851.663 254.124 850.367 255.042 848.981 255.348V255.42C850.313 255.564 852.095 256.176 852.095 258.372ZM856.951 254.664C856.951 255.294 856.447 255.816 855.817 255.816C855.187 255.816 854.683 255.294 854.683 254.664C854.683 254.052 855.187 253.53 855.817 253.53C856.447 253.53 856.951 254.052 856.951 254.664ZM856.951 260.838C856.951 261.468 856.447 261.99 855.817 261.99C855.187 261.99 854.683 261.468 854.683 260.838C854.683 260.226 855.187 259.704 855.817 259.704C856.447 259.704 856.951 260.226 856.951 260.838ZM868.881 255.834C868.881 259.2 867.459 262.296 864.255 262.296C860.511 262.296 859.647 259.308 859.647 255.834C859.647 252.342 860.817 249.444 864.255 249.444C868.035 249.444 868.881 252.342 868.881 255.834ZM866.847 255.78C866.847 252.558 866.199 250.056 864.255 250.056C862.311 250.056 861.663 252.324 861.663 255.78C861.663 259.002 862.293 261.612 864.255 261.612C866.217 261.612 866.847 259.002 866.847 255.78ZM880.342 255.834C880.342 259.2 878.92 262.296 875.716 262.296C871.972 262.296 871.108 259.308 871.108 255.834C871.108 252.342 872.278 249.444 875.716 249.444C879.496 249.444 880.342 252.342 880.342 255.834ZM878.308 255.78C878.308 252.558 877.66 250.056 875.716 250.056C873.772 250.056 873.124 252.324 873.124 255.78C873.124 259.002 873.754 261.612 875.716 261.612C877.678 261.612 878.308 259.002 878.308 255.78Z" fill="#DBD4B9"/>
<path d="M972.858 255.834C972.858 259.2 971.436 262.296 968.232 262.296C964.488 262.296 963.624 259.308 963.624 255.834C963.624 252.342 964.794 249.444 968.232 249.444C972.012 249.444 972.858 252.342 972.858 255.834ZM970.824 255.78C970.824 252.558 970.176 250.056 968.232 250.056C966.288 250.056 965.64 252.324 965.64 255.78C965.64 259.002 966.27 261.612 968.232 261.612C970.194 261.612 970.824 259.002 970.824 255.78ZM983.347 258.768C982.915 258.732 982.303 258.696 981.529 258.696V259.344C981.529 260.298 981.583 261.324 981.637 262.026C981.385 262.008 980.989 261.99 980.647 261.99C980.305 261.99 979.999 262.008 979.693 262.026C979.783 261.198 979.819 260.262 979.819 259.344V258.696H977.875C976.921 258.696 975.607 258.714 974.293 258.75V258.174C976.093 255.636 978.793 251.748 980.089 249.696C980.323 249.714 980.611 249.732 980.827 249.732C981.061 249.732 981.421 249.714 981.655 249.696C981.547 251.748 981.529 254.97 981.529 257.58C982.303 257.58 982.915 257.544 983.347 257.49C983.329 257.814 983.329 257.994 983.329 258.102C983.329 258.228 983.329 258.444 983.347 258.768ZM979.819 257.58V251.514H979.783C978.757 252.954 976.561 256.176 975.643 257.58H979.819ZM987.717 254.664C987.717 255.294 987.213 255.816 986.583 255.816C985.953 255.816 985.449 255.294 985.449 254.664C985.449 254.052 985.953 253.53 986.583 253.53C987.213 253.53 987.717 254.052 987.717 254.664ZM987.717 260.838C987.717 261.468 987.213 261.99 986.583 261.99C985.953 261.99 985.449 261.468 985.449 260.838C985.449 260.226 985.953 259.704 986.583 259.704C987.213 259.704 987.717 260.226 987.717 260.838ZM999.647 255.834C999.647 259.2 998.225 262.296 995.021 262.296C991.277 262.296 990.413 259.308 990.413 255.834C990.413 252.342 991.583 249.444 995.021 249.444C998.801 249.444 999.647 252.342 999.647 255.834ZM997.613 255.78C997.613 252.558 996.965 250.056 995.021 250.056C993.077 250.056 992.429 252.324 992.429 255.78C992.429 259.002 993.059 261.612 995.021 261.612C996.983 261.612 997.613 259.002 997.613 255.78ZM1011.11 255.834C1011.11 259.2 1009.69 262.296 1006.48 262.296C1002.74 262.296 1001.87 259.308 1001.87 255.834C1001.87 252.342 1003.04 249.444 1006.48 249.444C1010.26 249.444 1011.11 252.342 1011.11 255.834ZM1009.07 255.78C1009.07 252.558 1008.43 250.056 1006.48 250.056C1004.54 250.056 1003.89 252.324 1003.89 255.78C1003.89 259.002 1004.52 261.612 1006.48 261.612C1008.44 261.612 1009.07 259.002 1009.07 255.78Z" fill="#DBD4B9"/>
<path d="M1105.47 255.834C1105.47 259.2 1104.05 262.296 1100.84 262.296C1097.1 262.296 1096.23 259.308 1096.23 255.834C1096.23 252.342 1097.4 249.444 1100.84 249.444C1104.62 249.444 1105.47 252.342 1105.47 255.834ZM1103.43 255.78C1103.43 252.558 1102.79 250.056 1100.84 250.056C1098.9 250.056 1098.25 252.324 1098.25 255.78C1098.25 259.002 1098.88 261.612 1100.84 261.612C1102.8 261.612 1103.43 259.002 1103.43 255.78ZM1114.75 258.03C1114.75 260.676 1112.72 262.296 1110.04 262.296C1108.83 262.296 1107.64 262.026 1106.94 261.54C1107.07 261.162 1107.28 260.244 1107.35 259.686L1107.71 259.668C1107.89 260.91 1108.72 261.54 1109.98 261.54C1111.55 261.54 1112.74 260.388 1112.74 258.3C1112.74 256.338 1111.67 255.474 1110.22 255.474C1109.37 255.474 1108.61 255.816 1108.29 256.104L1108.04 255.96C1108.16 255.042 1108.2 253.8 1108.2 252.882C1108.2 251.856 1108.2 250.506 1108.13 249.822L1108.29 249.714C1109.21 249.768 1110.11 249.786 1111.24 249.786C1112.57 249.786 1113.71 249.768 1114.36 249.714C1114.34 249.966 1114.34 250.326 1114.34 250.56C1114.34 250.776 1114.34 251.118 1114.36 251.424C1112.97 251.334 1110.67 251.298 1109.14 251.298C1109.03 252.396 1108.94 254.088 1108.92 255.06C1109.44 254.808 1110.16 254.646 1110.9 254.646C1113.31 254.646 1114.75 256.05 1114.75 258.03ZM1119.61 254.664C1119.61 255.294 1119.1 255.816 1118.47 255.816C1117.84 255.816 1117.34 255.294 1117.34 254.664C1117.34 254.052 1117.84 253.53 1118.47 253.53C1119.1 253.53 1119.61 254.052 1119.61 254.664ZM1119.61 260.838C1119.61 261.468 1119.1 261.99 1118.47 261.99C1117.84 261.99 1117.34 261.468 1117.34 260.838C1117.34 260.226 1117.84 259.704 1118.47 259.704C1119.1 259.704 1119.61 260.226 1119.61 260.838ZM1131.54 255.834C1131.54 259.2 1130.11 262.296 1126.91 262.296C1123.17 262.296 1122.3 259.308 1122.3 255.834C1122.3 252.342 1123.47 249.444 1126.91 249.444C1130.69 249.444 1131.54 252.342 1131.54 255.834ZM1129.5 255.78C1129.5 252.558 1128.85 250.056 1126.91 250.056C1124.97 250.056 1124.32 252.324 1124.32 255.78C1124.32 259.002 1124.95 261.612 1126.91 261.612C1128.87 261.612 1129.5 259.002 1129.5 255.78ZM1143 255.834C1143 259.2 1141.58 262.296 1138.37 262.296C1134.63 262.296 1133.76 259.308 1133.76 255.834C1133.76 252.342 1134.93 249.444 1138.37 249.444C1142.15 249.444 1143 252.342 1143 255.834ZM1140.96 255.78C1140.96 252.558 1140.32 250.056 1138.37 250.056C1136.43 250.056 1135.78 252.324 1135.78 255.78C1135.78 259.002 1136.41 261.612 1138.37 261.612C1140.33 261.612 1140.96 259.002 1140.96 255.78Z" fill="#DBD4B9"/>
<path d="M1235.81 255.834C1235.81 259.2 1234.39 262.296 1231.18 262.296C1227.44 262.296 1226.57 259.308 1226.57 255.834C1226.57 252.342 1227.74 249.444 1231.18 249.444C1234.96 249.444 1235.81 252.342 1235.81 255.834ZM1233.77 255.78C1233.77 252.558 1233.13 250.056 1231.18 250.056C1229.24 250.056 1228.59 252.324 1228.59 255.78C1228.59 259.002 1229.22 261.612 1231.18 261.612C1233.14 261.612 1233.77 259.002 1233.77 255.78ZM1246.46 257.994C1246.46 260.388 1245.04 262.296 1242.26 262.296C1239.67 262.296 1238.03 260.64 1238.03 256.95C1238.03 252.918 1239.85 249.444 1243.7 249.444C1244.55 249.444 1245.38 249.57 1245.81 249.696C1245.72 250.2 1245.63 250.956 1245.61 251.478L1245.27 251.514C1245.07 250.722 1244.6 250.146 1243.63 250.146C1240.73 250.146 1240.01 253.926 1239.96 256.014H1240.01C1240.45 255.366 1241.44 254.376 1243.04 254.376C1245.18 254.376 1246.46 255.798 1246.46 257.994ZM1244.53 258.372C1244.53 256.752 1244.12 255.276 1242.39 255.276C1240.88 255.276 1240.07 256.716 1240.07 258.156C1240.07 259.992 1240.77 261.612 1242.28 261.612C1243.69 261.612 1244.53 260.226 1244.53 258.372ZM1251.35 254.664C1251.35 255.294 1250.85 255.816 1250.22 255.816C1249.59 255.816 1249.08 255.294 1249.08 254.664C1249.08 254.052 1249.59 253.53 1250.22 253.53C1250.85 253.53 1251.35 254.052 1251.35 254.664ZM1251.35 260.838C1251.35 261.468 1250.85 261.99 1250.22 261.99C1249.59 261.99 1249.08 261.468 1249.08 260.838C1249.08 260.226 1249.59 259.704 1250.22 259.704C1250.85 259.704 1251.35 260.226 1251.35 260.838ZM1263.28 255.834C1263.28 259.2 1261.86 262.296 1258.66 262.296C1254.91 262.296 1254.05 259.308 1254.05 255.834C1254.05 252.342 1255.22 249.444 1258.66 249.444C1262.44 249.444 1263.28 252.342 1263.28 255.834ZM1261.25 255.78C1261.25 252.558 1260.6 250.056 1258.66 250.056C1256.71 250.056 1256.06 252.324 1256.06 255.78C1256.06 259.002 1256.69 261.612 1258.66 261.612C1260.62 261.612 1261.25 259.002 1261.25 255.78ZM1274.74 255.834C1274.74 259.2 1273.32 262.296 1270.12 262.296C1266.37 262.296 1265.51 259.308 1265.51 255.834C1265.51 252.342 1266.68 249.444 1270.12 249.444C1273.9 249.444 1274.74 252.342 1274.74 255.834ZM1272.71 255.78C1272.71 252.558 1272.06 250.056 1270.12 250.056C1268.17 250.056 1267.53 252.324 1267.53 255.78C1267.53 259.002 1268.16 261.612 1270.12 261.612C1272.08 261.612 1272.71 259.002 1272.71 255.78Z" fill="#DBD4B9"/>
</svg>
