<svg width="334" height="664" viewBox="0 0 334 664" fill="none" xmlns="http://www.w3.org/2000/svg">
<path d="M166.67 332.35C257.913 332.35 331.88 258.383 331.88 167.14C331.88 75.897 257.913 1.92999 166.67 1.92999C75.427 1.92999 1.45996 75.897 1.45996 167.14C1.45996 258.383 75.427 332.35 166.67 332.35Z" fill="#0A0031" stroke="#371EAD" stroke-width="2" stroke-miterlimit="10"/>
<path d="M166.67 332.36C75.42 332.36 1.45996 406.33 1.45996 497.57C1.45996 588.81 75.43 662.78 166.67 662.78C257.91 662.78 331.88 588.81 331.88 497.57C331.88 406.33 257.91 332.36 166.67 332.36Z" fill="#0A0031" stroke="#371EAD" stroke-width="2" stroke-miterlimit="10"/>
<path d="M161.62 386.19C158.38 358.79 136.97 337.38 109.57 334.14L98.1699 332.79L109.57 331.44C136.97 328.2 158.38 306.79 161.62 279.39L162.97 267.99L164.32 279.39C167.56 306.79 188.97 328.2 216.37 331.44L227.77 332.79L216.37 334.14C188.97 337.39 167.56 358.79 164.32 386.19L162.97 397.59L161.62 386.19Z" fill="#A98EE9"/>
<path d="M162.97 273.68L163.65 279.46C166.93 307.17 188.58 328.82 216.29 332.1L222.07 332.78L216.29 333.46C188.58 336.74 166.93 358.39 163.65 386.1L162.97 391.88L162.29 386.1C159.01 358.39 137.36 336.74 109.65 333.46L103.87 332.78L109.65 332.1C137.36 328.82 159.01 307.17 162.29 279.46L162.97 273.68ZM162.97 262.29L160.95 279.31C157.75 306.3 136.47 327.58 109.49 330.77L92.47 332.79L109.49 334.81C136.48 338.01 157.76 359.29 160.95 386.27L162.97 403.29L164.99 386.27C168.19 359.28 189.47 338 216.45 334.81L233.47 332.79L216.45 330.77C189.46 327.57 168.18 306.29 164.99 279.31L162.97 262.29Z" fill="#A98EE9"/>
<path d="M258.02 185.43C257.86 186.14 258.12 185.91 258.41 186.1C259.53 186.84 266.09 189.05 267.06 188.6C267.69 188.3 268.49 187.02 269.78 187.24L268.58 189.35C274.89 190.09 280.61 189.79 286.6 187.62C288.07 187.09 292.96 184.46 293.75 184.49C294.79 184.53 295.05 185.14 294.76 186.12C294.55 186.81 289.75 189.1 288.78 189.49C281.59 192.39 274.14 192.53 266.54 191.52L265.27 194.17C268 194.58 270.81 194.54 273.57 194.49C274.39 194.48 275.32 194.09 275.95 194.17C276.92 194.29 277.38 195.4 276.75 196.17C275.61 197.56 265.51 196.82 263.37 196.34L258.64 201.41C262.75 202.86 266.84 203.03 271.16 202.93C272.2 202.91 273.57 202.18 274.49 202.89L274.93 203.69C275.06 205.19 272.59 205.26 271.46 205.34C266.53 205.69 261.66 204.98 256.96 203.54L252.91 207.29C253.22 207.52 253.91 207.66 254.3 207.71C259.69 208.3 266.19 207.69 271.42 206.21C272.68 205.86 275.71 204.41 276.57 204.4C277.63 204.39 277.85 205.11 277.57 206.02C277.26 207.04 273.16 208.31 272.02 208.62C265 210.52 257.56 210.79 250.41 209.6C239.33 217.99 227.66 227.26 215.61 234.21C176.89 256.52 126.29 243.36 90.0201 222.15C75.9101 213.9 63.5101 203.48 49.3101 195.33C47.1501 194.09 43.5901 193.7 45.9401 190.57C47.0901 191.31 48.4 191.69 49.61 192.32C63.96 199.78 77.4201 211.98 91.8201 220.34C117.1 235.02 152.47 245.89 181.89 242.7C206.86 239.99 227.56 224.26 246.36 208.97L246.55 208.34C240.86 206.75 235.19 204.55 231.33 199.91C229.67 201.52 227.24 202.15 225.15 203.08C224.9 203.19 224.33 203.11 224.55 203.66C225.24 205.38 232.69 208.45 234.65 208.64C235.98 208.77 239.89 208.18 240.53 208.49C240.96 208.7 241.19 209.21 241.15 209.68C240.97 211.66 235.2 210.74 233.76 211.37C228.8 211.61 223.18 210.5 219.03 207.69C218.39 207.26 217.5 205.98 216.88 205.95L209.48 208.2C212.82 212 218.02 212.22 222.76 212.4C224.52 215.78 217.8 214.65 215.99 214.35C212.3 213.72 208.87 211.73 206.62 208.76L198.32 210.47C197.32 211.47 206.12 213.64 206.46 213.93C207.17 214.53 206.76 216.09 205.7 216.19C203.65 216.38 196.43 213.32 195.39 211.06L188.07 211.67C191.57 215.11 197.12 217.43 201.92 218.46C203.17 218.73 207.26 218.61 207.38 219.96C207.61 222.4 201.49 220.87 200.12 220.56C196.74 219.79 188.51 216.43 186.55 213.62C186.09 212.96 185.98 212.8 186.25 211.97L178.27 212.58C156.51 213.24 125.53 209.41 105.08 201.94C91.5301 196.99 72.56 185.73 58.58 185.14C57.16 185.08 52.7801 186.03 52.4501 184.62C52.3901 184.2 52.5401 183.52 52.9101 183.3C53.3701 183.02 57.47 182.45 58.2701 182.41C69.2701 181.9 91.6901 194.28 102.89 198.4C128.89 207.96 164.94 212.46 192.39 208.9C215.61 205.89 231.95 197.71 251.87 186.39C253.57 185.42 255.29 184.37 256.95 183.33C259.02 182.03 266.25 177.56 267.51 176.1C268.17 175.33 267.74 174.25 268.44 174.01C270.55 174.22 272.61 175.02 274.74 175.18C286.55 176.08 297.09 173.97 305.94 166C306.92 165.12 310.46 160.22 311.24 163.13C311.59 164.44 309.43 165.41 308.93 166.28C307.99 167.93 307.95 168.69 306.53 170.51C295.89 184.08 281.24 184.97 265.43 180.69C262.91 182.11 260.81 184.63 258 185.44L258.02 185.43ZM300.23 173.37C296.53 175.13 292.9 176.29 288.83 176.89C284.37 177.55 279.25 177.79 274.74 177.6C272.14 177.49 269.46 175.88 267.97 178.79C277.24 181.14 288.84 181.65 297.13 176.15C298.25 175.41 299.46 174.48 300.23 173.37ZM264.65 190.86C261.36 190.08 258.17 188.88 255.15 187.35L250.78 189.35C250.63 190.05 250.87 189.83 251.17 190.02C254.06 191.88 258.84 192.4 262.11 193.55L264.65 190.85V190.86ZM256.16 200.44C256.93 198.77 259.03 197.76 259.85 196.13C259.99 195.84 260.35 195.9 259.84 195.52C255.78 194.24 251.35 193.51 247.88 190.9L242.66 193.87C242.33 194.32 243.99 195.33 244.37 195.62C247.63 198.06 252.23 199.69 256.17 200.44H256.16ZM240.49 195.41L233.9 198.69C237.37 203.39 243.54 204.78 248.84 206.51L253.5 202.75C253.64 202.09 253.22 202.36 252.84 202.22C248.41 200.6 243.6 199.1 240.5 195.4L240.49 195.41ZM225.46 207.73C223.38 206.28 222.57 203.4 219.73 205.02C221.11 206.47 223.51 207.31 225.46 207.73Z" fill="#DBD4B9"/>
<path d="M80.0602 109.97L79.1002 110.66C74.4202 115.93 69.5802 121.07 65.1002 126.51C59.4102 133.41 54.2502 140.82 48.6002 147.7C45.5702 147.94 47.3702 145.45 48.2702 144.04C52.8802 136.85 60.2502 128.15 65.8402 121.52C79.1802 105.74 101.47 83.33 122.55 79.96C169.52 72.45 229.68 93.54 263.27 126.68C265.73 129.11 271.88 135.24 273.41 137.94C273.77 138.58 274.01 139.91 273.21 140.18L271.73 139.93C264.13 130.79 255.45 122.54 245.94 115.38C215.65 92.57 167.57 78.38 129.76 82.05C110.4 83.93 93.2902 96.62 80.0602 109.97Z" fill="#DBD4B9"/>
<path d="M266.46 170.66C266.7 172.22 264.94 173.1 263.84 173.92C252.16 182.63 232.33 192.77 218.6 197.71C171.42 214.67 118.97 202.09 74.52 182.77C69.47 180.58 61.66 175.79 56.45 175.21C53.7 174.9 46.95 176.3 46.97 171.72C46.97 170.19 47.87 171.37 48.79 171.72C52.32 173.04 53.29 172.44 56.78 172.78C61.78 173.27 67.25 176.87 71.8 178.86C111.63 196.26 157.75 209.73 201.39 200.11C221.9 195.59 239.96 185.85 257.68 175.01C260.5 173.29 262.98 170.61 266.45 170.67L266.46 170.66Z" fill="#DBD4B9"/>
<path d="M50.4701 183.32C51.0601 183.5 51.1101 184.8 50.6301 185.29C49.9701 185.96 45.0401 185.83 43.8701 185.7C36.2301 184.85 30.4001 177.47 32.4501 169.82C32.7301 168.78 34.9801 162.26 36.6201 164.61C37.3401 165.64 34.6601 170.29 34.4201 172.09C33.7701 177.03 39.1401 183.32 44.1401 183.32C45.4401 183.32 49.6201 183.06 50.4701 183.32Z" fill="#DBD4B9"/>
<path d="M281.8 450.23C319.83 414.57 337.83 361.57 330.83 308.57C324.83 267.57 304.83 231.57 273.89 205.89" stroke="#371EAD" stroke-width="2" stroke-miterlimit="10"/>
<path d="M52.1799 212.77C21.0099 242.82 1.61987 285 1.61987 331.72C1.61987 380.88 23.0999 425.02 57.1699 455.28" stroke="#371EAD" stroke-width="2" stroke-miterlimit="10"/>
<path d="M252.93 563.75C235.11 595.57 201.07 617.08 162.01 617.08C104.49 617.08 57.8699 570.45 57.8699 512.94C57.8699 455.43 104.49 408.79 162.01 408.79C201.07 408.79 235.11 430.3 252.93 462.12C237.77 442.61 214.08 430.06 187.46 430.06C141.69 430.06 104.58 467.17 104.58 512.94C104.58 558.71 141.69 595.81 187.46 595.81C214.08 595.81 237.77 583.26 252.93 563.75Z" stroke="#DBD4B9" stroke-width="2" stroke-miterlimit="10"/>
</svg>
