<svg width="118" height="216" viewBox="0 0 118 216" fill="none" xmlns="http://www.w3.org/2000/svg">
<rect x="0.5" y="0.5" width="117" height="215" rx="4.5" stroke="#8A38F5" stroke-dasharray="10 5"/>
<path d="M33.3838 163.008C33.0463 162.989 32.6338 162.97 32.2963 162.97C31.9588 162.97 31.5463 162.989 31.2088 163.008C31.3025 161.508 31.3588 159.033 31.3588 157.345V155.47C31.3588 153.783 31.3025 151.683 31.2088 150.183C31.5463 150.201 31.9588 150.22 32.2963 150.22C32.6338 150.22 33.0463 150.201 33.3838 150.183C33.29 151.683 33.2338 153.783 33.2338 155.47V157.345C33.2338 159.014 33.29 161.508 33.3838 163.008ZM47.4453 150.183C47.2953 151.683 47.2015 154.533 47.2015 156.783V158.283C47.2015 160.195 47.239 161.995 47.2765 163.045H46.3578C44.8203 161.076 41.2578 156.933 38.2765 153.689C38.1453 153.558 38.0328 153.389 37.8828 153.201L37.8265 153.22V156.408C37.8265 158.658 37.939 161.508 38.164 163.008C37.9203 162.989 37.6015 162.97 37.3953 162.97C37.189 162.97 36.8703 162.989 36.6265 163.008C36.7765 161.508 36.8703 158.658 36.8703 156.408V155.47C36.8703 153.108 36.814 150.951 36.7953 150.089H37.8078C40.0015 152.845 43.6953 156.951 45.8703 159.314C45.9828 159.426 46.0765 159.558 46.2265 159.726L46.264 159.708V156.783C46.264 154.533 46.1515 151.683 45.9265 150.183C46.2265 150.201 46.489 150.22 46.714 150.22C46.9203 150.22 47.239 150.201 47.4453 150.183ZM52.8662 163.008C52.5287 162.989 52.1162 162.97 51.7787 162.97C51.4412 162.97 51.0287 162.989 50.6912 163.008C50.785 161.508 50.8412 159.033 50.8412 157.345V155.47C50.8412 153.783 50.785 151.683 50.6912 150.183C51.0287 150.201 51.4412 150.22 51.7787 150.22C52.1162 150.22 52.5287 150.201 52.8662 150.183C52.7725 151.683 52.7162 153.783 52.7162 155.47V157.345C52.7162 159.014 52.7725 161.508 52.8662 163.008ZM66.9277 150.82C66.7402 151.289 66.5902 151.908 66.4589 152.62L66.1214 152.658C65.7089 151.495 64.5464 150.783 62.7839 150.783C59.9339 150.783 57.8152 152.526 57.8152 156.539C57.8152 160.42 59.8964 162.276 62.9527 162.276C64.4714 162.276 65.7839 161.695 66.5527 160.776L66.7402 160.851C66.7214 161.245 66.6464 161.939 66.5714 162.164C65.8402 162.726 64.3777 163.251 62.5402 163.251C58.3964 163.251 55.6214 160.851 55.6214 156.558C55.6214 152.339 58.4339 149.958 62.6714 149.958C64.4527 149.958 65.9714 150.37 66.9277 150.82ZM71.1951 163.008C70.8576 162.989 70.4451 162.97 70.1076 162.97C69.7701 162.97 69.3576 162.989 69.0201 163.008C69.1138 161.508 69.1701 159.033 69.1701 157.345V155.47C69.1701 153.783 69.1138 151.683 69.0201 150.183C69.3576 150.201 69.7701 150.22 70.1076 150.22C70.4451 150.22 70.8576 150.201 71.1951 150.183C71.1013 151.683 71.0451 153.783 71.0451 155.47V157.345C71.0451 159.014 71.1013 161.508 71.1951 163.008ZM87.4878 156.595C87.4878 160.626 84.7878 163.289 80.7003 163.289C76.6315 163.289 73.9315 160.683 73.9315 156.595C73.9315 152.508 76.6315 149.901 80.7003 149.901C84.8815 149.901 87.4878 152.47 87.4878 156.595ZM85.3128 156.595C85.3128 152.751 83.4565 150.67 80.7003 150.67C77.9628 150.67 76.1065 152.639 76.1065 156.595C76.1065 160.458 77.9628 162.483 80.7003 162.483C83.4565 162.483 85.3128 160.476 85.3128 156.595Z" fill="#DBD4B9"/>
<path d="M59 196C80.5391 196 98 178.539 98 157C98 135.461 80.5391 118 59 118C37.4609 118 20 135.461 20 157C20 178.539 37.4609 196 59 196Z" stroke="#DBD4B9" stroke-width="1.87" stroke-miterlimit="10"/>
<path d="M59 98C80.5391 98 98 80.5391 98 59C98 37.4609 80.5391 20 59 20C37.4609 20 20 37.4609 20 59C20 80.5391 37.4609 98 59 98Z" stroke="#DBD4B9" stroke-width="1.87" stroke-miterlimit="10"/>
<path d="M59 98C80.5391 98 98 80.5391 98 59C98 37.4609 80.5391 20 59 20C37.4609 20 20 37.4609 20 59C20 80.5391 37.4609 98 59 98Z" fill="#0A0031" stroke="#DBD4B9" stroke-width="1.87" stroke-miterlimit="10"/>
<path d="M32.8438 65.0375C32.5063 65.0188 32.0938 65 31.7562 65C31.4188 65 31.0063 65.0188 30.6688 65.0375C30.7625 63.5375 30.8188 61.0625 30.8188 59.375V57.5C30.8188 55.8125 30.7625 53.7125 30.6688 52.2125C31.0063 52.2312 31.4188 52.25 31.7562 52.25C32.0938 52.25 32.5063 52.2312 32.8438 52.2125C32.75 53.7125 32.6938 55.8125 32.6938 57.5V59.375C32.6938 61.0437 32.75 63.5375 32.8438 65.0375ZM46.9052 52.2125C46.7552 53.7125 46.6615 56.5625 46.6615 58.8125V60.3125C46.6615 62.225 46.699 64.025 46.7365 65.075H45.8177C44.2802 63.1062 40.7177 58.9625 37.7365 55.7187C37.6052 55.5875 37.4927 55.4187 37.3427 55.2312L37.2865 55.25V58.4375C37.2865 60.6875 37.399 63.5375 37.624 65.0375C37.3802 65.0188 37.0615 65 36.8552 65C36.649 65 36.3302 65.0188 36.0865 65.0375C36.2365 63.5375 36.3302 60.6875 36.3302 58.4375V57.5C36.3302 55.1375 36.274 52.9812 36.2552 52.1187H37.2677C39.4615 54.875 43.1552 58.9812 45.3302 61.3437C45.4427 61.4562 45.5365 61.5875 45.6865 61.7562L45.724 61.7375V58.8125C45.724 56.5625 45.6115 53.7125 45.3865 52.2125C45.6865 52.2312 45.949 52.25 46.174 52.25C46.3802 52.25 46.699 52.2312 46.9052 52.2125ZM52.3262 65.0375C51.9887 65.0188 51.5762 65 51.2387 65C50.9012 65 50.4887 65.0188 50.1512 65.0375C50.2449 63.5375 50.3012 61.0625 50.3012 59.375V57.5C50.3012 55.8125 50.2449 53.7125 50.1512 52.2125C50.4887 52.2312 50.9012 52.25 51.2387 52.25C51.5762 52.25 51.9887 52.2312 52.3262 52.2125C52.2324 53.7125 52.1762 55.8125 52.1762 57.5V59.375C52.1762 61.0437 52.2324 63.5375 52.3262 65.0375ZM66.3876 52.85C66.2001 53.3187 66.0501 53.9375 65.9189 54.65L65.5814 54.6875C65.1689 53.525 64.0064 52.8125 62.2439 52.8125C59.3939 52.8125 57.2751 54.5562 57.2751 58.5687C57.2751 62.45 59.3564 64.3062 62.4126 64.3062C63.9314 64.3062 65.2439 63.725 66.0126 62.8062L66.2001 62.8812C66.1814 63.275 66.1064 63.9687 66.0314 64.1937C65.3001 64.7562 63.8376 65.2813 62.0001 65.2813C57.8564 65.2813 55.0814 62.8812 55.0814 58.5875C55.0814 54.3687 57.8939 51.9875 62.1314 51.9875C63.9126 51.9875 65.4314 52.4 66.3876 52.85ZM70.655 65.0375C70.3175 65.0188 69.905 65 69.5675 65C69.23 65 68.8175 65.0188 68.48 65.0375C68.5738 63.5375 68.63 61.0625 68.63 59.375V57.5C68.63 55.8125 68.5738 53.7125 68.48 52.2125C68.8175 52.2312 69.23 52.25 69.5675 52.25C69.905 52.25 70.3175 52.2312 70.655 52.2125C70.5613 53.7125 70.505 55.8125 70.505 57.5V59.375C70.505 61.0437 70.5613 63.5375 70.655 65.0375ZM86.9478 58.625C86.9478 62.6562 84.2478 65.3188 80.1603 65.3188C76.0915 65.3188 73.3915 62.7125 73.3915 58.625C73.3915 54.5375 76.0915 51.9312 80.1603 51.9312C84.3415 51.9312 86.9478 54.5 86.9478 58.625ZM84.7728 58.625C84.7728 54.7812 82.9165 52.7 80.1603 52.7C77.4228 52.7 75.5665 54.6688 75.5665 58.625C75.5665 62.4875 77.4228 64.5125 80.1603 64.5125C82.9165 64.5125 84.7728 62.5062 84.7728 58.625Z" fill="#DBD4B9"/>
<path d="M59 196C80.5391 196 98 178.539 98 157C98 135.461 80.5391 118 59 118C37.4609 118 20 135.461 20 157C20 178.539 37.4609 196 59 196Z" stroke="#DBD4B9" stroke-width="1.87" stroke-miterlimit="10"/>
<path d="M59 196C80.5391 196 98 178.539 98 157C98 135.461 80.5391 118 59 118C37.4609 118 20 135.461 20 157C20 178.539 37.4609 196 59 196Z" fill="#A98EE9" stroke="#DBD4B9" stroke-width="1.87" stroke-miterlimit="10"/>
<path d="M32.8438 163.038C32.5063 163.019 32.0938 163 31.7562 163C31.4188 163 31.0063 163.019 30.6688 163.038C30.7625 161.537 30.8188 159.062 30.8188 157.375V155.5C30.8188 153.812 30.7625 151.712 30.6688 150.212C31.0063 150.231 31.4188 150.25 31.7562 150.25C32.0938 150.25 32.5063 150.231 32.8438 150.212C32.75 151.712 32.6938 153.812 32.6938 155.5V157.375C32.6938 159.044 32.75 161.537 32.8438 163.038ZM46.9052 150.212C46.7552 151.712 46.6615 154.562 46.6615 156.812V158.312C46.6615 160.225 46.699 162.025 46.7365 163.075H45.8177C44.2802 161.106 40.7177 156.962 37.7365 153.719C37.6052 153.587 37.4927 153.419 37.3427 153.231L37.2865 153.25V156.437C37.2865 158.687 37.399 161.537 37.624 163.038C37.3802 163.019 37.0615 163 36.8552 163C36.649 163 36.3302 163.019 36.0865 163.038C36.2365 161.537 36.3302 158.687 36.3302 156.437V155.5C36.3302 153.137 36.274 150.981 36.2552 150.119H37.2677C39.4615 152.875 43.1552 156.981 45.3302 159.344C45.4427 159.456 45.5365 159.587 45.6865 159.756L45.724 159.737V156.812C45.724 154.562 45.6115 151.712 45.3865 150.212C45.6865 150.231 45.949 150.25 46.174 150.25C46.3802 150.25 46.699 150.231 46.9052 150.212ZM52.3262 163.038C51.9887 163.019 51.5762 163 51.2387 163C50.9012 163 50.4887 163.019 50.1512 163.038C50.2449 161.537 50.3012 159.062 50.3012 157.375V155.5C50.3012 153.812 50.2449 151.712 50.1512 150.212C50.4887 150.231 50.9012 150.25 51.2387 150.25C51.5762 150.25 51.9887 150.231 52.3262 150.212C52.2324 151.712 52.1762 153.812 52.1762 155.5V157.375C52.1762 159.044 52.2324 161.537 52.3262 163.038ZM66.3876 150.85C66.2001 151.319 66.0501 151.937 65.9189 152.65L65.5814 152.687C65.1689 151.525 64.0064 150.812 62.2439 150.812C59.3939 150.812 57.2751 152.556 57.2751 156.569C57.2751 160.45 59.3564 162.306 62.4126 162.306C63.9314 162.306 65.2439 161.725 66.0126 160.806L66.2001 160.881C66.1814 161.275 66.1064 161.969 66.0314 162.194C65.3001 162.756 63.8376 163.281 62.0001 163.281C57.8564 163.281 55.0814 160.881 55.0814 156.587C55.0814 152.369 57.8939 149.987 62.1314 149.987C63.9126 149.987 65.4314 150.4 66.3876 150.85ZM70.655 163.038C70.3175 163.019 69.905 163 69.5675 163C69.23 163 68.8175 163.019 68.48 163.038C68.5738 161.537 68.63 159.062 68.63 157.375V155.5C68.63 153.812 68.5738 151.712 68.48 150.212C68.8175 150.231 69.23 150.25 69.5675 150.25C69.905 150.25 70.3175 150.231 70.655 150.212C70.5613 151.712 70.505 153.812 70.505 155.5V157.375C70.505 159.044 70.5613 161.537 70.655 163.038ZM86.9478 156.625C86.9478 160.656 84.2478 163.319 80.1603 163.319C76.0915 163.319 73.3915 160.712 73.3915 156.625C73.3915 152.537 76.0915 149.931 80.1603 149.931C84.3415 149.931 86.9478 152.5 86.9478 156.625ZM84.7728 156.625C84.7728 152.781 82.9165 150.7 80.1603 150.7C77.4228 150.7 75.5665 152.669 75.5665 156.625C75.5665 160.487 77.4228 162.512 80.1603 162.512C82.9165 162.512 84.7728 160.506 84.7728 156.625Z" fill="#0A0031"/>
</svg>
