<svg width="118" height="216" viewBox="0 0 118 216" fill="none" xmlns="http://www.w3.org/2000/svg">
<rect x="0.5" y="0.5" width="117" height="215" rx="4.5" stroke="#8A38F5" stroke-dasharray="10 5"/>
<path d="M59 98C80.5391 98 98 80.5391 98 59C98 37.4609 80.5391 20 59 20C37.4609 20 20 37.4609 20 59C20 80.5391 37.4609 98 59 98Z" fill="#0A0031" stroke="#DBD4B9" stroke-width="1.87" stroke-miterlimit="10"/>
<path d="M59.6738 50.4425C59.5238 51.9425 59.43 54.7925 59.43 57.0425V58.5425C59.43 60.455 59.4675 62.255 59.505 63.305H58.5863C57.0488 61.3362 53.4863 57.1925 50.505 53.9487C50.3738 53.8175 50.2613 53.6487 50.1113 53.4612L50.055 53.48V56.6675C50.055 58.9175 50.1675 61.7675 50.3925 63.2675C50.1488 63.2487 49.83 63.23 49.6238 63.23C49.4175 63.23 49.0988 63.2487 48.855 63.2675C49.005 61.7675 49.0988 58.9175 49.0988 56.6675V55.73C49.0988 53.3675 49.0425 51.2112 49.0238 50.3487H50.0363C52.23 53.105 55.9238 57.2112 58.0988 59.5737C58.2113 59.6862 58.305 59.8175 58.455 59.9862L58.4925 59.9675V57.0425C58.4925 54.7925 58.38 51.9425 58.155 50.4425C58.455 50.4612 58.7175 50.48 58.9425 50.48C59.1488 50.48 59.4675 50.4612 59.6738 50.4425ZM69.7447 59.4612C69.7447 62.0112 67.701 63.5487 64.8697 63.5487C63.576 63.5487 62.3385 63.2487 61.626 62.8175C61.7572 62.4612 61.9635 61.5237 62.0385 60.8675L62.3947 60.8487C62.6572 62.105 63.4447 62.7425 64.6822 62.7425C66.576 62.7425 67.6072 61.43 67.6072 59.5737C67.6072 57.7175 66.6135 56.9112 65.001 56.9112C64.7572 56.9112 64.4197 56.9487 64.1572 57.005C64.176 56.8175 64.176 56.6487 64.176 56.5175C64.176 56.405 64.176 56.2362 64.1572 56.0675C64.3447 56.0862 64.6822 56.105 64.9447 56.105C66.801 56.105 67.326 54.6237 67.326 53.255C67.326 51.8675 66.5947 50.9112 65.2447 50.9112C64.0635 50.9112 63.4072 51.7737 63.276 52.8237L62.901 52.8425C62.676 52.2425 62.451 51.7362 62.226 51.3987C62.901 50.7612 64.0822 50.1612 65.526 50.1612C67.4572 50.1612 69.2947 50.9487 69.2947 53.0862C69.2947 55.0362 67.9447 55.9925 66.501 56.3112V56.3862C67.8885 56.5362 69.7447 57.1737 69.7447 59.4612Z" fill="#DBD4B9"/>
<path d="M59 196C80.5391 196 98 178.539 98 157C98 135.461 80.5391 118 59 118C37.4609 118 20 135.461 20 157C20 178.539 37.4609 196 59 196Z" fill="#A98EE9" stroke="#DBD4B9" stroke-width="1.87" stroke-miterlimit="10"/>
<path d="M59.6738 148.442C59.5238 149.942 59.43 152.792 59.43 155.042V156.542C59.43 158.455 59.4675 160.255 59.505 161.305H58.5863C57.0488 159.336 53.4863 155.192 50.505 151.949C50.3738 151.817 50.2613 151.649 50.1113 151.461L50.055 151.48V154.667C50.055 156.917 50.1675 159.767 50.3925 161.267C50.1488 161.249 49.83 161.23 49.6238 161.23C49.4175 161.23 49.0988 161.249 48.855 161.267C49.005 159.767 49.0988 156.917 49.0988 154.667V153.73C49.0988 151.367 49.0425 149.211 49.0238 148.349H50.0363C52.23 151.105 55.9238 155.211 58.0988 157.574C58.2113 157.686 58.305 157.817 58.455 157.986L58.4925 157.967V155.042C58.4925 152.792 58.38 149.942 58.155 148.442C58.455 148.461 58.7175 148.48 58.9425 148.48C59.1488 148.48 59.4675 148.461 59.6738 148.442ZM69.7447 157.461C69.7447 160.011 67.701 161.549 64.8697 161.549C63.576 161.549 62.3385 161.249 61.626 160.817C61.7572 160.461 61.9635 159.524 62.0385 158.867L62.3947 158.849C62.6572 160.105 63.4447 160.742 64.6822 160.742C66.576 160.742 67.6072 159.43 67.6072 157.574C67.6072 155.717 66.6135 154.911 65.001 154.911C64.7572 154.911 64.4197 154.949 64.1572 155.005C64.176 154.817 64.176 154.649 64.176 154.517C64.176 154.405 64.176 154.236 64.1572 154.067C64.3447 154.086 64.6822 154.105 64.9447 154.105C66.801 154.105 67.326 152.624 67.326 151.255C67.326 149.867 66.5947 148.911 65.2447 148.911C64.0635 148.911 63.4072 149.774 63.276 150.824L62.901 150.842C62.676 150.242 62.451 149.736 62.226 149.399C62.901 148.761 64.0822 148.161 65.526 148.161C67.4572 148.161 69.2947 148.949 69.2947 151.086C69.2947 153.036 67.9447 153.992 66.501 154.311V154.386C67.8885 154.536 69.7447 155.174 69.7447 157.461Z" fill="#0A0031"/>
</svg>
