<svg width="201" height="181" viewBox="0 0 201 181" fill="none" xmlns="http://www.w3.org/2000/svg">
<rect x="0.5" y="0.5" width="199.07" height="179.859" rx="4.5" stroke="#8A38F5" stroke-dasharray="10 5"/>
<path d="M155.11 20H44.96C31.1749 20 20 31.1749 20 44.96V55.4697C20 69.2548 31.1749 80.4297 44.96 80.4297H155.11C168.895 80.4297 180.07 69.2548 180.07 55.4697V44.96C180.07 31.1749 168.895 20 155.11 20Z" fill="#DBD4B9" stroke="#36248B" stroke-width="2.5" stroke-miterlimit="10"/>
<path d="M64.1621 48.5839H68.1221C68.5541 48.5839 68.9181 48.4559 69.2141 48.1999C69.5181 47.9359 69.6981 47.4439 69.7541 46.7239C69.7781 46.6359 69.8141 46.5719 69.8621 46.5319C69.9181 46.4919 69.9821 46.4719 70.0541 46.4719C70.1501 46.4719 70.2261 46.4999 70.2821 46.5559C70.3381 46.6039 70.3701 46.6839 70.3781 46.7959L70.9061 50.6359C70.9301 50.7959 70.9141 50.9119 70.8581 50.9839C70.8101 51.0559 70.7381 51.0959 70.6421 51.1039C70.5541 51.1119 70.4821 51.0959 70.4261 51.0559C70.3701 51.0079 70.3181 50.9399 70.2701 50.8519C70.0541 50.2039 69.7861 49.7559 69.4661 49.5079C69.1541 49.2519 68.7101 49.1239 68.1341 49.1239H63.9941L64.1621 48.5839ZM67.4021 57.3799H58.9181C58.7901 57.3799 58.6981 57.3559 58.6421 57.3079C58.5861 57.2519 58.5581 57.1839 58.5581 57.1039C58.5581 57.0319 58.5861 56.9679 58.6421 56.9119C58.7061 56.8479 58.7901 56.8079 58.8941 56.7919L59.8901 56.6359C60.0821 56.6039 60.2341 56.5319 60.3461 56.4199C60.4581 56.3079 60.5501 56.1399 60.6221 55.9159C60.7021 55.5959 60.8221 55.1519 60.9821 54.5839C61.1421 54.0079 61.3221 53.3559 61.5221 52.6279C61.7221 51.8919 61.9341 51.1159 62.1581 50.2999C62.3821 49.4839 62.6061 48.6679 62.8301 47.8519C63.0541 47.0279 63.2661 46.2439 63.4661 45.4999C63.6741 44.7479 63.8541 44.0759 64.0061 43.4839C64.1581 42.8839 64.2781 42.4039 64.3661 42.0439C64.4141 41.8199 64.4101 41.6519 64.3541 41.5399C64.3061 41.4199 64.2061 41.3479 64.0541 41.3239L63.0821 41.1679C62.9861 41.1439 62.9101 41.1119 62.8541 41.0719C62.7981 41.0239 62.7701 40.9599 62.7701 40.8799C62.7701 40.7919 62.8061 40.7199 62.8781 40.6639C62.9581 40.6079 63.0621 40.5799 63.1901 40.5799H71.7341C72.1421 40.5799 72.4581 40.5159 72.6821 40.3879C72.9141 40.2519 73.1141 40.1839 73.2821 40.1839C73.5221 40.1839 73.6621 40.3239 73.7021 40.6039L73.9901 44.1319C74.0141 44.2759 74.0021 44.3879 73.9541 44.4679C73.9141 44.5479 73.8421 44.5919 73.7381 44.5999C73.6261 44.6079 73.5301 44.5839 73.4501 44.5279C73.3781 44.4639 73.3101 44.3519 73.2461 44.1919C73.0061 43.3359 72.7621 42.6879 72.5141 42.2479C72.2741 41.8079 72.0021 41.5079 71.6981 41.3479C71.3941 41.1879 71.0261 41.1079 70.5941 41.1079H67.1381C67.0101 41.5639 66.8501 42.1319 66.6581 42.8119C66.4741 43.4919 66.2701 44.2359 66.0461 45.0439C65.8301 45.8519 65.6021 46.6879 65.3621 47.5519C65.1301 48.4159 64.9021 49.2719 64.6781 50.1199C64.4541 50.9679 64.2421 51.7679 64.0421 52.5199C63.8421 53.2639 63.6701 53.9279 63.5261 54.5119C63.3821 55.0879 63.2741 55.5359 63.2021 55.8559C63.1461 56.0799 63.1421 56.2679 63.1901 56.4199C63.2381 56.5639 63.3581 56.6719 63.5501 56.7439C63.7501 56.8159 64.0381 56.8519 64.4141 56.8519H66.8141C67.3981 56.8519 67.9341 56.7359 68.4221 56.5039C68.9101 56.2639 69.3701 55.8839 69.8021 55.3639C70.2341 54.8359 70.6661 54.1399 71.0981 53.2759C71.2101 53.0679 71.3341 52.9639 71.4701 52.9639C71.6621 52.9639 71.7501 53.0879 71.7341 53.3359C71.7021 53.9519 71.5981 54.5239 71.4221 55.0519C71.2541 55.5799 71.0301 56.0399 70.7501 56.4319C70.4701 56.8239 70.1501 57.1279 69.7901 57.3439C69.4381 57.5599 69.0701 57.6679 68.6861 57.6679C68.4621 57.6679 68.2581 57.6199 68.0741 57.5239C67.8901 57.4279 67.6661 57.3799 67.4021 57.3799ZM76.0179 54.7039C75.8739 55.2799 75.8699 55.7319 76.0059 56.0599C76.1499 56.3879 76.4419 56.6039 76.8819 56.7079L77.4099 56.8039C77.4979 56.8279 77.5659 56.8679 77.6139 56.9239C77.6619 56.9719 77.6859 57.0319 77.6859 57.1039C77.6859 57.1999 77.6539 57.2719 77.5899 57.3199C77.5259 57.3599 77.4379 57.3799 77.3259 57.3799H73.1259C72.9819 57.3799 72.8779 57.3559 72.8139 57.3079C72.7419 57.2599 72.7059 57.1919 72.7059 57.1039C72.7059 56.9439 72.8179 56.8359 73.0419 56.7799L73.5459 56.6839C73.9299 56.5959 74.2819 56.3879 74.6019 56.0599C74.9299 55.7239 75.1699 55.2519 75.3219 54.6439L78.1299 44.2519C78.2019 44.0199 78.2219 43.7999 78.1899 43.5919C78.1659 43.3759 78.1019 43.1839 77.9979 43.0159L77.1939 41.1919C77.1219 41.0959 77.0859 41.0039 77.0859 40.9159C77.0859 40.8199 77.1179 40.7399 77.1819 40.6759C77.2459 40.6119 77.3419 40.5799 77.4699 40.5799H79.2459C79.4619 40.5799 79.6299 40.6359 79.7499 40.7479C79.8779 40.8519 79.9979 41.0279 80.1099 41.2759C80.4059 42.1159 80.7099 42.9399 81.0219 43.7479C81.3419 44.5559 81.6579 45.3479 81.9699 46.1239C82.2899 46.8999 82.6059 47.6599 82.9179 48.4039C83.2299 49.1479 83.5339 49.8759 83.8299 50.5879C84.1259 51.2919 84.4099 51.9799 84.6819 52.6519C84.9539 53.3159 85.2099 53.9639 85.4499 54.5959L84.8259 54.8479L87.8139 42.8839C88.0619 41.9639 88.3899 41.2879 88.7979 40.8559C89.2139 40.4239 89.6659 40.2079 90.1539 40.2079C90.4579 40.2079 90.6979 40.2919 90.8739 40.4599C91.0579 40.6199 91.1499 40.8359 91.1499 41.1079C91.1419 41.4119 91.0339 41.6879 90.8259 41.9359C90.6259 42.1759 90.2979 42.4239 89.8419 42.6799C89.5059 42.8559 89.2179 43.0559 88.9779 43.2799C88.7379 43.4959 88.5339 43.7479 88.3659 44.0359C88.2059 44.3239 88.0739 44.6679 87.9699 45.0679L85.7259 54.1399C85.6859 54.3159 85.6659 54.4719 85.6659 54.6079C85.6659 54.7359 85.7059 54.9119 85.7859 55.1359L86.3499 56.7679C86.4299 56.9519 86.4339 57.0999 86.3619 57.2119C86.2979 57.3239 86.1779 57.3799 86.0019 57.3799H83.8539C83.6859 57.3799 83.5579 57.3279 83.4699 57.2239C83.3899 57.1199 83.3499 56.9719 83.3499 56.7799C83.3579 56.5719 83.3419 56.3919 83.3019 56.2399C83.2699 56.0879 83.2059 55.8999 83.1099 55.6759C82.9179 55.1239 82.6859 54.4959 82.4139 53.7919C82.1419 53.0799 81.8459 52.3199 81.5259 51.5119C81.2059 50.7039 80.8699 49.8679 80.5179 49.0039C80.1739 48.1319 79.8259 47.2559 79.4739 46.3759C79.1299 45.4879 78.7939 44.6159 78.4659 43.7599L79.0179 43.6399L76.0179 54.7039ZM101.329 40.8679C101.329 40.7799 101.361 40.7119 101.425 40.6639C101.489 40.6079 101.573 40.5799 101.677 40.5799H106.021C106.149 40.5799 106.241 40.6039 106.297 40.6519C106.361 40.6919 106.393 40.7519 106.393 40.8319C106.393 40.9119 106.365 40.9839 106.309 41.0479C106.261 41.1039 106.177 41.1519 106.057 41.1919L105.661 41.3119C105.405 41.3999 105.153 41.5519 104.905 41.7679C104.665 41.9839 104.421 42.2519 104.173 42.5719C103.933 42.8839 103.689 43.2439 103.441 43.6519L96.1085 55.1359C96.0125 55.2799 95.9245 55.4239 95.8445 55.5679C95.7725 55.7119 95.7125 55.8679 95.6645 56.0359L95.4365 56.8399C95.3885 57.0079 95.3125 57.1399 95.2085 57.2359C95.1045 57.3319 94.9605 57.3799 94.7765 57.3799H93.1205C92.9445 57.3799 92.8205 57.3199 92.7485 57.1999C92.6845 57.0799 92.6845 56.9279 92.7485 56.7439L93.0125 55.7959C93.0765 55.6359 93.1085 55.4799 93.1085 55.3279C93.1165 55.1759 93.1165 55.0239 93.1085 54.8719C93.1165 54.6879 93.1245 54.3719 93.1325 53.9239C93.1405 53.4679 93.1445 52.9239 93.1445 52.2919C93.1525 51.6599 93.1565 50.9759 93.1565 50.2399C93.1645 49.4959 93.1685 48.7439 93.1685 47.9839C93.1765 47.2159 93.1805 46.4719 93.1805 45.7519C93.1805 45.0239 93.1805 44.3639 93.1805 43.7719C93.1805 43.1719 93.1765 42.6719 93.1685 42.2719C93.1685 41.9919 93.1325 41.7799 93.0605 41.6359C92.9965 41.4839 92.8725 41.3839 92.6885 41.3359L92.0045 41.1799C91.9005 41.1479 91.8245 41.1079 91.7765 41.0599C91.7365 41.0039 91.7165 40.9399 91.7165 40.8679C91.7165 40.7799 91.7565 40.7119 91.8365 40.6639C91.9165 40.6079 92.0125 40.5799 92.1245 40.5799H97.3925C97.4885 40.5799 97.5605 40.6039 97.6085 40.6519C97.6645 40.6919 97.6925 40.7519 97.6925 40.8319C97.6925 40.9199 97.6645 40.9919 97.6085 41.0479C97.5605 41.1039 97.4805 41.1439 97.3685 41.1679L96.2765 41.3599C96.0445 41.3999 95.8805 41.5159 95.7845 41.7079C95.6885 41.8999 95.6405 42.1519 95.6405 42.4639C95.6325 42.9039 95.6245 43.4319 95.6165 44.0479C95.6085 44.6639 95.6005 45.3399 95.5925 46.0759C95.5845 46.8119 95.5765 47.5839 95.5685 48.3919C95.5685 49.1999 95.5645 50.0159 95.5565 50.8399C95.5485 51.6639 95.5405 52.4759 95.5325 53.2759C95.5325 54.0679 95.5245 54.8239 95.5085 55.5439L94.8725 55.8919L102.709 43.5319C102.949 43.1399 103.073 42.7959 103.081 42.4999C103.097 42.1959 103.025 41.9439 102.865 41.7439C102.713 41.5359 102.505 41.3919 102.241 41.3119L101.653 41.1799C101.437 41.1079 101.329 41.0039 101.329 40.8679ZM107.593 55.9519C107.545 56.1519 107.549 56.3159 107.605 56.4439C107.661 56.5639 107.777 56.6359 107.953 56.6599L108.913 56.8039C109.025 56.8279 109.105 56.8639 109.153 56.9119C109.201 56.9519 109.225 57.0119 109.225 57.0919C109.225 57.1799 109.185 57.2519 109.105 57.3079C109.025 57.3559 108.921 57.3799 108.793 57.3799H103.345C103.209 57.3799 103.113 57.3559 103.057 57.3079C103.001 57.2599 102.973 57.1959 102.973 57.1159C102.965 57.0279 102.993 56.9599 103.057 56.9119C103.129 56.8559 103.217 56.8159 103.321 56.7919L104.269 56.6599C104.469 56.6199 104.625 56.5439 104.737 56.4319C104.857 56.3119 104.953 56.1399 105.025 55.9159C105.129 55.5639 105.261 55.0959 105.421 54.5119C105.581 53.9199 105.761 53.2559 105.961 52.5199C106.169 51.7839 106.385 51.0119 106.609 50.2039C106.833 49.3879 107.053 48.5719 107.269 47.7559C107.485 46.9399 107.689 46.1599 107.881 45.4159C108.081 44.6719 108.257 44.0039 108.409 43.4119C108.561 42.8199 108.677 42.3399 108.757 41.9719C108.797 41.7799 108.789 41.6319 108.733 41.5279C108.677 41.4239 108.557 41.3559 108.373 41.3239L107.425 41.1679C107.305 41.1359 107.221 41.0959 107.173 41.0479C107.125 40.9999 107.101 40.9399 107.101 40.8679C107.101 40.7719 107.145 40.6999 107.233 40.6519C107.321 40.6039 107.445 40.5799 107.605 40.5799H113.005C113.141 40.5799 113.233 40.6039 113.281 40.6519C113.337 40.6919 113.365 40.7479 113.365 40.8199C113.365 40.9079 113.333 40.9799 113.269 41.0359C113.205 41.0839 113.109 41.1239 112.981 41.1559L111.961 41.3479C111.785 41.3799 111.645 41.4439 111.541 41.5399C111.445 41.6279 111.361 41.7799 111.289 41.9959C111.185 42.3719 111.049 42.8679 110.881 43.4839C110.713 44.0919 110.525 44.7759 110.317 45.5359C110.109 46.2959 109.893 47.0919 109.669 47.9239C109.445 48.7559 109.225 49.5839 109.009 50.4079C108.793 51.2239 108.589 51.9959 108.397 52.7239C108.205 53.4519 108.041 54.0959 107.905 54.6559C107.769 55.2159 107.665 55.6479 107.593 55.9519ZM113.998 54.5959C113.646 55.1719 113.526 55.6439 113.638 56.0119C113.75 56.3799 114.018 56.6119 114.442 56.7079L114.97 56.7919C115.074 56.8159 115.146 56.8559 115.186 56.9119C115.234 56.9599 115.258 57.0159 115.258 57.0799C115.258 57.1679 115.218 57.2399 115.138 57.2959C115.066 57.3519 114.962 57.3799 114.826 57.3799H111.046C110.902 57.3799 110.794 57.3559 110.722 57.3079C110.65 57.2599 110.614 57.1919 110.614 57.1039C110.614 57.0079 110.65 56.9319 110.722 56.8759C110.794 56.8119 110.914 56.7439 111.082 56.6719C111.41 56.5839 111.75 56.3639 112.102 56.0119C112.462 55.6519 112.834 55.1559 113.218 54.5239L120.106 43.5799C120.858 42.4519 121.622 41.6319 122.398 41.1199C123.174 40.6079 123.958 40.3519 124.75 40.3519C124.95 40.3519 125.09 40.3799 125.17 40.4359C125.258 40.4839 125.302 40.5559 125.302 40.6519C125.302 40.7239 125.278 40.7839 125.23 40.8319C125.19 40.8799 125.118 40.9199 125.014 40.9519C124.686 40.9919 124.418 41.1359 124.21 41.3839C124.01 41.6319 123.898 41.9959 123.874 42.4759C123.874 42.6759 123.862 43.0399 123.838 43.5679C123.822 44.0959 123.798 44.7319 123.766 45.4759C123.742 46.2119 123.71 47.0039 123.67 47.8519C123.638 48.6919 123.606 49.5359 123.574 50.3839C123.542 51.2239 123.51 52.0159 123.478 52.7599C123.454 53.4959 123.434 54.1279 123.418 54.6559C123.41 55.1839 123.402 55.5519 123.394 55.7599C123.394 55.9599 123.422 56.1239 123.478 56.2519C123.542 56.3799 123.654 56.4879 123.814 56.5759C123.974 56.6639 124.206 56.7439 124.51 56.8159C124.678 56.8719 124.762 56.9639 124.762 57.0919C124.762 57.1719 124.726 57.2399 124.654 57.2959C124.59 57.3519 124.486 57.3799 124.342 57.3799H119.254C119.15 57.3799 119.07 57.3559 119.014 57.3079C118.958 57.2519 118.93 57.1879 118.93 57.1159C118.93 57.0439 118.954 56.9839 119.002 56.9359C119.058 56.8799 119.134 56.8399 119.23 56.8159L120.346 56.6119C120.554 56.5719 120.702 56.4839 120.79 56.3479C120.886 56.2039 120.942 56.0199 120.958 55.7959C120.966 55.5639 120.982 55.1799 121.006 54.6439C121.03 54.1079 121.058 53.4719 121.09 52.7359C121.13 51.9999 121.17 51.2159 121.21 50.3839C121.25 49.5439 121.29 48.7079 121.33 47.8759C121.37 47.0359 121.406 46.2439 121.438 45.4999C121.47 44.7559 121.494 44.1079 121.51 43.5559C121.534 43.0039 121.55 42.6039 121.558 42.3559L121.93 42.4519C121.85 42.5079 121.75 42.5919 121.63 42.7039C121.51 42.8079 121.37 42.9599 121.21 43.1599C121.05 43.3599 120.854 43.6239 120.622 43.9519L113.998 54.5959ZM115.234 51.9199L115.45 51.3799H121.954L121.918 51.9199H115.234ZM131.136 50.0239L131.544 49.5919C131.896 49.7919 132.288 49.9519 132.72 50.0719C133.152 50.1919 133.62 50.2519 134.124 50.2519C135.06 50.2519 135.876 50.0679 136.572 49.6999C137.268 49.3239 137.836 48.7959 138.276 48.1159C138.724 47.4359 139.032 46.6279 139.2 45.6919C139.4 44.6679 139.388 43.8199 139.164 43.1479C138.94 42.4679 138.552 41.9599 138 41.6239C137.456 41.2879 136.784 41.1199 135.984 41.1199C135.44 41.1199 135.036 41.2039 134.772 41.3719C134.516 41.5319 134.332 41.7919 134.22 42.1519C134.124 42.5039 133.996 42.9719 133.836 43.5559C133.676 44.1399 133.496 44.7999 133.296 45.5359C133.096 46.2639 132.884 47.0319 132.66 47.8399C132.444 48.6399 132.228 49.4439 132.012 50.2519C131.796 51.0599 131.592 51.8319 131.4 52.5679C131.208 53.2959 131.04 53.9519 130.896 54.5359C130.752 55.1119 130.64 55.5759 130.56 55.9279C130.504 56.1359 130.508 56.2999 130.572 56.4199C130.636 56.5399 130.744 56.6159 130.896 56.6479L131.868 56.7919C131.972 56.8159 132.048 56.8519 132.096 56.8999C132.152 56.9479 132.18 57.0079 132.18 57.0799C132.18 57.1759 132.144 57.2519 132.072 57.3079C132 57.3559 131.896 57.3799 131.76 57.3799H126.324C126.188 57.3799 126.092 57.3559 126.036 57.3079C125.988 57.2599 125.964 57.1959 125.964 57.1159C125.964 57.0199 125.996 56.9479 126.06 56.8999C126.132 56.8439 126.224 56.8079 126.336 56.7919L127.236 56.6599C127.444 56.6279 127.608 56.5559 127.728 56.4439C127.848 56.3239 127.944 56.1519 128.016 55.9279C128.112 55.5919 128.24 55.1319 128.4 54.5479C128.568 53.9639 128.752 53.3039 128.952 52.5679C129.152 51.8239 129.364 51.0439 129.588 50.2279C129.82 49.4039 130.044 48.5839 130.26 47.7679C130.484 46.9439 130.692 46.1639 130.884 45.4279C131.084 44.6839 131.256 44.0199 131.4 43.4359C131.552 42.8439 131.664 42.3719 131.736 42.0199C131.784 41.7959 131.78 41.6359 131.724 41.5399C131.676 41.4359 131.564 41.3639 131.388 41.3239L130.428 41.1679C130.308 41.1359 130.224 41.0959 130.176 41.0479C130.136 40.9999 130.116 40.9439 130.116 40.8799C130.116 40.7839 130.152 40.7119 130.224 40.6639C130.304 40.6079 130.408 40.5799 130.536 40.5799H136.356C137.572 40.5799 138.608 40.7959 139.464 41.2279C140.32 41.6599 140.94 42.2759 141.324 43.0759C141.708 43.8759 141.796 44.8319 141.588 45.9439C141.412 46.8879 141.008 47.7239 140.376 48.4519C139.744 49.1799 138.916 49.7519 137.892 50.1679C136.876 50.5839 135.704 50.7959 134.376 50.8039C133.656 50.8119 133.032 50.7439 132.504 50.5999C131.976 50.4479 131.52 50.2559 131.136 50.0239ZM134.424 50.6719L136.704 50.3119L138.072 54.5359C138.208 54.9919 138.34 55.3439 138.468 55.5919C138.596 55.8399 138.728 56.0119 138.864 56.1079C139.008 56.1959 139.156 56.2399 139.308 56.2399C139.476 56.2399 139.624 56.1999 139.752 56.1199C139.888 56.0319 140.016 55.8959 140.136 55.7119C140.176 55.6639 140.224 55.6279 140.28 55.6039C140.344 55.5799 140.4 55.5799 140.448 55.6039C140.52 55.6279 140.564 55.6759 140.58 55.7479C140.596 55.8119 140.58 55.8879 140.532 55.9759C140.324 56.4719 139.976 56.8799 139.488 57.1999C139.008 57.5119 138.46 57.6679 137.844 57.6679C137.516 57.6679 137.22 57.5919 136.956 57.4399C136.7 57.2959 136.468 57.0519 136.26 56.7079C136.06 56.3559 135.876 55.8759 135.708 55.2679L134.424 50.6719Z" fill="#36248B"/>
<path d="M155.11 100.43H44.96C31.1749 100.43 20 111.605 20 125.39V135.899C20 149.684 31.1749 160.859 44.96 160.859H155.11C168.895 160.859 180.07 149.684 180.07 135.899V125.39C180.07 111.605 168.895 100.43 155.11 100.43Z" fill="#0A0031" stroke="#DBD4B9" stroke-width="2" stroke-miterlimit="10"/>
<path d="M64.1621 129.014H68.1221C68.5541 129.014 68.9181 128.886 69.2141 128.63C69.5181 128.366 69.6981 127.874 69.7541 127.154C69.7781 127.066 69.8141 127.002 69.8621 126.962C69.9181 126.922 69.9821 126.902 70.0541 126.902C70.1501 126.902 70.2261 126.93 70.2821 126.986C70.3381 127.034 70.3701 127.114 70.3781 127.226L70.9061 131.066C70.9301 131.226 70.9141 131.342 70.8581 131.414C70.8101 131.486 70.7381 131.526 70.6421 131.534C70.5541 131.542 70.4821 131.526 70.4261 131.486C70.3701 131.438 70.3181 131.37 70.2701 131.282C70.0541 130.634 69.7861 130.186 69.4661 129.938C69.1541 129.682 68.7101 129.554 68.1341 129.554H63.9941L64.1621 129.014ZM67.4021 137.81H58.9181C58.7901 137.81 58.6981 137.786 58.6421 137.738C58.5861 137.682 58.5581 137.614 58.5581 137.534C58.5581 137.462 58.5861 137.398 58.6421 137.342C58.7061 137.278 58.7901 137.238 58.8941 137.222L59.8901 137.066C60.0821 137.034 60.2341 136.962 60.3461 136.85C60.4581 136.738 60.5501 136.57 60.6221 136.346C60.7021 136.026 60.8221 135.582 60.9821 135.014C61.1421 134.438 61.3221 133.786 61.5221 133.058C61.7221 132.322 61.9341 131.546 62.1581 130.73C62.3821 129.914 62.6061 129.098 62.8301 128.282C63.0541 127.458 63.2661 126.674 63.4661 125.93C63.6741 125.178 63.8541 124.506 64.0061 123.914C64.1581 123.314 64.2781 122.834 64.3661 122.474C64.4141 122.25 64.4101 122.082 64.3541 121.97C64.3061 121.85 64.2061 121.778 64.0541 121.754L63.0821 121.598C62.9861 121.574 62.9101 121.542 62.8541 121.502C62.7981 121.454 62.7701 121.39 62.7701 121.31C62.7701 121.222 62.8061 121.15 62.8781 121.094C62.9581 121.038 63.0621 121.01 63.1901 121.01H71.7341C72.1421 121.01 72.4581 120.946 72.6821 120.818C72.9141 120.682 73.1141 120.614 73.2821 120.614C73.5221 120.614 73.6621 120.754 73.7021 121.034L73.9901 124.562C74.0141 124.706 74.0021 124.818 73.9541 124.898C73.9141 124.978 73.8421 125.022 73.7381 125.03C73.6261 125.038 73.5301 125.014 73.4501 124.958C73.3781 124.894 73.3101 124.782 73.2461 124.622C73.0061 123.766 72.7621 123.118 72.5141 122.678C72.2741 122.238 72.0021 121.938 71.6981 121.778C71.3941 121.618 71.0261 121.538 70.5941 121.538H67.1381C67.0101 121.994 66.8501 122.562 66.6581 123.242C66.4741 123.922 66.2701 124.666 66.0461 125.474C65.8301 126.282 65.6021 127.118 65.3621 127.982C65.1301 128.846 64.9021 129.702 64.6781 130.55C64.4541 131.398 64.2421 132.198 64.0421 132.95C63.8421 133.694 63.6701 134.358 63.5261 134.942C63.3821 135.518 63.2741 135.966 63.2021 136.286C63.1461 136.51 63.1421 136.698 63.1901 136.85C63.2381 136.994 63.3581 137.102 63.5501 137.174C63.7501 137.246 64.0381 137.282 64.4141 137.282H66.8141C67.3981 137.282 67.9341 137.166 68.4221 136.934C68.9101 136.694 69.3701 136.314 69.8021 135.794C70.2341 135.266 70.6661 134.57 71.0981 133.706C71.2101 133.498 71.3341 133.394 71.4701 133.394C71.6621 133.394 71.7501 133.518 71.7341 133.766C71.7021 134.382 71.5981 134.954 71.4221 135.482C71.2541 136.01 71.0301 136.47 70.7501 136.862C70.4701 137.254 70.1501 137.558 69.7901 137.774C69.4381 137.99 69.0701 138.098 68.6861 138.098C68.4621 138.098 68.2581 138.05 68.0741 137.954C67.8901 137.858 67.6661 137.81 67.4021 137.81ZM76.0179 135.134C75.8739 135.71 75.8699 136.162 76.0059 136.49C76.1499 136.818 76.4419 137.034 76.8819 137.138L77.4099 137.234C77.4979 137.258 77.5659 137.298 77.6139 137.354C77.6619 137.402 77.6859 137.462 77.6859 137.534C77.6859 137.63 77.6539 137.702 77.5899 137.75C77.5259 137.79 77.4379 137.81 77.3259 137.81H73.1259C72.9819 137.81 72.8779 137.786 72.8139 137.738C72.7419 137.69 72.7059 137.622 72.7059 137.534C72.7059 137.374 72.8179 137.266 73.0419 137.21L73.5459 137.114C73.9299 137.026 74.2819 136.818 74.6019 136.49C74.9299 136.154 75.1699 135.682 75.3219 135.074L78.1299 124.682C78.2019 124.45 78.2219 124.23 78.1899 124.022C78.1659 123.806 78.1019 123.614 77.9979 123.446L77.1939 121.622C77.1219 121.526 77.0859 121.434 77.0859 121.346C77.0859 121.25 77.1179 121.17 77.1819 121.106C77.2459 121.042 77.3419 121.01 77.4699 121.01H79.2459C79.4619 121.01 79.6299 121.066 79.7499 121.178C79.8779 121.282 79.9979 121.458 80.1099 121.706C80.4059 122.546 80.7099 123.37 81.0219 124.178C81.3419 124.986 81.6579 125.778 81.9699 126.554C82.2899 127.33 82.6059 128.09 82.9179 128.834C83.2299 129.578 83.5339 130.306 83.8299 131.018C84.1259 131.722 84.4099 132.41 84.6819 133.082C84.9539 133.746 85.2099 134.394 85.4499 135.026L84.8259 135.278L87.8139 123.314C88.0619 122.394 88.3899 121.718 88.7979 121.286C89.2139 120.854 89.6659 120.638 90.1539 120.638C90.4579 120.638 90.6979 120.722 90.8739 120.89C91.0579 121.05 91.1499 121.266 91.1499 121.538C91.1419 121.842 91.0339 122.118 90.8259 122.366C90.6259 122.606 90.2979 122.854 89.8419 123.11C89.5059 123.286 89.2179 123.486 88.9779 123.71C88.7379 123.926 88.5339 124.178 88.3659 124.466C88.2059 124.754 88.0739 125.098 87.9699 125.498L85.7259 134.57C85.6859 134.746 85.6659 134.902 85.6659 135.038C85.6659 135.166 85.7059 135.342 85.7859 135.566L86.3499 137.198C86.4299 137.382 86.4339 137.53 86.3619 137.642C86.2979 137.754 86.1779 137.81 86.0019 137.81H83.8539C83.6859 137.81 83.5579 137.758 83.4699 137.654C83.3899 137.55 83.3499 137.402 83.3499 137.21C83.3579 137.002 83.3419 136.822 83.3019 136.67C83.2699 136.518 83.2059 136.33 83.1099 136.106C82.9179 135.554 82.6859 134.926 82.4139 134.222C82.1419 133.51 81.8459 132.75 81.5259 131.942C81.2059 131.134 80.8699 130.298 80.5179 129.434C80.1739 128.562 79.8259 127.686 79.4739 126.806C79.1299 125.918 78.7939 125.046 78.4659 124.19L79.0179 124.07L76.0179 135.134ZM101.329 121.298C101.329 121.21 101.361 121.142 101.425 121.094C101.489 121.038 101.573 121.01 101.677 121.01H106.021C106.149 121.01 106.241 121.034 106.297 121.082C106.361 121.122 106.393 121.182 106.393 121.262C106.393 121.342 106.365 121.414 106.309 121.478C106.261 121.534 106.177 121.582 106.057 121.622L105.661 121.742C105.405 121.83 105.153 121.982 104.905 122.198C104.665 122.414 104.421 122.682 104.173 123.002C103.933 123.314 103.689 123.674 103.441 124.082L96.1085 135.566C96.0125 135.71 95.9245 135.854 95.8445 135.998C95.7725 136.142 95.7125 136.298 95.6645 136.466L95.4365 137.27C95.3885 137.438 95.3125 137.57 95.2085 137.666C95.1045 137.762 94.9605 137.81 94.7765 137.81H93.1205C92.9445 137.81 92.8205 137.75 92.7485 137.63C92.6845 137.51 92.6845 137.358 92.7485 137.174L93.0125 136.226C93.0765 136.066 93.1085 135.91 93.1085 135.758C93.1165 135.606 93.1165 135.454 93.1085 135.302C93.1165 135.118 93.1245 134.802 93.1325 134.354C93.1405 133.898 93.1445 133.354 93.1445 132.722C93.1525 132.09 93.1565 131.406 93.1565 130.67C93.1645 129.926 93.1685 129.174 93.1685 128.414C93.1765 127.646 93.1805 126.902 93.1805 126.182C93.1805 125.454 93.1805 124.794 93.1805 124.202C93.1805 123.602 93.1765 123.102 93.1685 122.702C93.1685 122.422 93.1325 122.21 93.0605 122.066C92.9965 121.914 92.8725 121.814 92.6885 121.766L92.0045 121.61C91.9005 121.578 91.8245 121.538 91.7765 121.49C91.7365 121.434 91.7165 121.37 91.7165 121.298C91.7165 121.21 91.7565 121.142 91.8365 121.094C91.9165 121.038 92.0125 121.01 92.1245 121.01H97.3925C97.4885 121.01 97.5605 121.034 97.6085 121.082C97.6645 121.122 97.6925 121.182 97.6925 121.262C97.6925 121.35 97.6645 121.422 97.6085 121.478C97.5605 121.534 97.4805 121.574 97.3685 121.598L96.2765 121.79C96.0445 121.83 95.8805 121.946 95.7845 122.138C95.6885 122.33 95.6405 122.582 95.6405 122.894C95.6325 123.334 95.6245 123.862 95.6165 124.478C95.6085 125.094 95.6005 125.77 95.5925 126.506C95.5845 127.242 95.5765 128.014 95.5685 128.822C95.5685 129.63 95.5645 130.446 95.5565 131.27C95.5485 132.094 95.5405 132.906 95.5325 133.706C95.5325 134.498 95.5245 135.254 95.5085 135.974L94.8725 136.322L102.709 123.962C102.949 123.57 103.073 123.226 103.081 122.93C103.097 122.626 103.025 122.374 102.865 122.174C102.713 121.966 102.505 121.822 102.241 121.742L101.653 121.61C101.437 121.538 101.329 121.434 101.329 121.298ZM107.593 136.382C107.545 136.582 107.549 136.746 107.605 136.874C107.661 136.994 107.777 137.066 107.953 137.09L108.913 137.234C109.025 137.258 109.105 137.294 109.153 137.342C109.201 137.382 109.225 137.442 109.225 137.522C109.225 137.61 109.185 137.682 109.105 137.738C109.025 137.786 108.921 137.81 108.793 137.81H103.345C103.209 137.81 103.113 137.786 103.057 137.738C103.001 137.69 102.973 137.626 102.973 137.546C102.965 137.458 102.993 137.39 103.057 137.342C103.129 137.286 103.217 137.246 103.321 137.222L104.269 137.09C104.469 137.05 104.625 136.974 104.737 136.862C104.857 136.742 104.953 136.57 105.025 136.346C105.129 135.994 105.261 135.526 105.421 134.942C105.581 134.35 105.761 133.686 105.961 132.95C106.169 132.214 106.385 131.442 106.609 130.634C106.833 129.818 107.053 129.002 107.269 128.186C107.485 127.37 107.689 126.59 107.881 125.846C108.081 125.102 108.257 124.434 108.409 123.842C108.561 123.25 108.677 122.77 108.757 122.402C108.797 122.21 108.789 122.062 108.733 121.958C108.677 121.854 108.557 121.786 108.373 121.754L107.425 121.598C107.305 121.566 107.221 121.526 107.173 121.478C107.125 121.43 107.101 121.37 107.101 121.298C107.101 121.202 107.145 121.13 107.233 121.082C107.321 121.034 107.445 121.01 107.605 121.01H113.005C113.141 121.01 113.233 121.034 113.281 121.082C113.337 121.122 113.365 121.178 113.365 121.25C113.365 121.338 113.333 121.41 113.269 121.466C113.205 121.514 113.109 121.554 112.981 121.586L111.961 121.778C111.785 121.81 111.645 121.874 111.541 121.97C111.445 122.058 111.361 122.21 111.289 122.426C111.185 122.802 111.049 123.298 110.881 123.914C110.713 124.522 110.525 125.206 110.317 125.966C110.109 126.726 109.893 127.522 109.669 128.354C109.445 129.186 109.225 130.014 109.009 130.838C108.793 131.654 108.589 132.426 108.397 133.154C108.205 133.882 108.041 134.526 107.905 135.086C107.769 135.646 107.665 136.078 107.593 136.382ZM113.998 135.026C113.646 135.602 113.526 136.074 113.638 136.442C113.75 136.81 114.018 137.042 114.442 137.138L114.97 137.222C115.074 137.246 115.146 137.286 115.186 137.342C115.234 137.39 115.258 137.446 115.258 137.51C115.258 137.598 115.218 137.67 115.138 137.726C115.066 137.782 114.962 137.81 114.826 137.81H111.046C110.902 137.81 110.794 137.786 110.722 137.738C110.65 137.69 110.614 137.622 110.614 137.534C110.614 137.438 110.65 137.362 110.722 137.306C110.794 137.242 110.914 137.174 111.082 137.102C111.41 137.014 111.75 136.794 112.102 136.442C112.462 136.082 112.834 135.586 113.218 134.954L120.106 124.01C120.858 122.882 121.622 122.062 122.398 121.55C123.174 121.038 123.958 120.782 124.75 120.782C124.95 120.782 125.09 120.81 125.17 120.866C125.258 120.914 125.302 120.986 125.302 121.082C125.302 121.154 125.278 121.214 125.23 121.262C125.19 121.31 125.118 121.35 125.014 121.382C124.686 121.422 124.418 121.566 124.21 121.814C124.01 122.062 123.898 122.426 123.874 122.906C123.874 123.106 123.862 123.47 123.838 123.998C123.822 124.526 123.798 125.162 123.766 125.906C123.742 126.642 123.71 127.434 123.67 128.282C123.638 129.122 123.606 129.966 123.574 130.814C123.542 131.654 123.51 132.446 123.478 133.19C123.454 133.926 123.434 134.558 123.418 135.086C123.41 135.614 123.402 135.982 123.394 136.19C123.394 136.39 123.422 136.554 123.478 136.682C123.542 136.81 123.654 136.918 123.814 137.006C123.974 137.094 124.206 137.174 124.51 137.246C124.678 137.302 124.762 137.394 124.762 137.522C124.762 137.602 124.726 137.67 124.654 137.726C124.59 137.782 124.486 137.81 124.342 137.81H119.254C119.15 137.81 119.07 137.786 119.014 137.738C118.958 137.682 118.93 137.618 118.93 137.546C118.93 137.474 118.954 137.414 119.002 137.366C119.058 137.31 119.134 137.27 119.23 137.246L120.346 137.042C120.554 137.002 120.702 136.914 120.79 136.778C120.886 136.634 120.942 136.45 120.958 136.226C120.966 135.994 120.982 135.61 121.006 135.074C121.03 134.538 121.058 133.902 121.09 133.166C121.13 132.43 121.17 131.646 121.21 130.814C121.25 129.974 121.29 129.138 121.33 128.306C121.37 127.466 121.406 126.674 121.438 125.93C121.47 125.186 121.494 124.538 121.51 123.986C121.534 123.434 121.55 123.034 121.558 122.786L121.93 122.882C121.85 122.938 121.75 123.022 121.63 123.134C121.51 123.238 121.37 123.39 121.21 123.59C121.05 123.79 120.854 124.054 120.622 124.382L113.998 135.026ZM115.234 132.35L115.45 131.81H121.954L121.918 132.35H115.234ZM131.136 130.454L131.544 130.022C131.896 130.222 132.288 130.382 132.72 130.502C133.152 130.622 133.62 130.682 134.124 130.682C135.06 130.682 135.876 130.498 136.572 130.13C137.268 129.754 137.836 129.226 138.276 128.546C138.724 127.866 139.032 127.058 139.2 126.122C139.4 125.098 139.388 124.25 139.164 123.578C138.94 122.898 138.552 122.39 138 122.054C137.456 121.718 136.784 121.55 135.984 121.55C135.44 121.55 135.036 121.634 134.772 121.802C134.516 121.962 134.332 122.222 134.22 122.582C134.124 122.934 133.996 123.402 133.836 123.986C133.676 124.57 133.496 125.23 133.296 125.966C133.096 126.694 132.884 127.462 132.66 128.27C132.444 129.07 132.228 129.874 132.012 130.682C131.796 131.49 131.592 132.262 131.4 132.998C131.208 133.726 131.04 134.382 130.896 134.966C130.752 135.542 130.64 136.006 130.56 136.358C130.504 136.566 130.508 136.73 130.572 136.85C130.636 136.97 130.744 137.046 130.896 137.078L131.868 137.222C131.972 137.246 132.048 137.282 132.096 137.33C132.152 137.378 132.18 137.438 132.18 137.51C132.18 137.606 132.144 137.682 132.072 137.738C132 137.786 131.896 137.81 131.76 137.81H126.324C126.188 137.81 126.092 137.786 126.036 137.738C125.988 137.69 125.964 137.626 125.964 137.546C125.964 137.45 125.996 137.378 126.06 137.33C126.132 137.274 126.224 137.238 126.336 137.222L127.236 137.09C127.444 137.058 127.608 136.986 127.728 136.874C127.848 136.754 127.944 136.582 128.016 136.358C128.112 136.022 128.24 135.562 128.4 134.978C128.568 134.394 128.752 133.734 128.952 132.998C129.152 132.254 129.364 131.474 129.588 130.658C129.82 129.834 130.044 129.014 130.26 128.198C130.484 127.374 130.692 126.594 130.884 125.858C131.084 125.114 131.256 124.45 131.4 123.866C131.552 123.274 131.664 122.802 131.736 122.45C131.784 122.226 131.78 122.066 131.724 121.97C131.676 121.866 131.564 121.794 131.388 121.754L130.428 121.598C130.308 121.566 130.224 121.526 130.176 121.478C130.136 121.43 130.116 121.374 130.116 121.31C130.116 121.214 130.152 121.142 130.224 121.094C130.304 121.038 130.408 121.01 130.536 121.01H136.356C137.572 121.01 138.608 121.226 139.464 121.658C140.32 122.09 140.94 122.706 141.324 123.506C141.708 124.306 141.796 125.262 141.588 126.374C141.412 127.318 141.008 128.154 140.376 128.882C139.744 129.61 138.916 130.182 137.892 130.598C136.876 131.014 135.704 131.226 134.376 131.234C133.656 131.242 133.032 131.174 132.504 131.03C131.976 130.878 131.52 130.686 131.136 130.454ZM134.424 131.102L136.704 130.742L138.072 134.966C138.208 135.422 138.34 135.774 138.468 136.022C138.596 136.27 138.728 136.442 138.864 136.538C139.008 136.626 139.156 136.67 139.308 136.67C139.476 136.67 139.624 136.63 139.752 136.55C139.888 136.462 140.016 136.326 140.136 136.142C140.176 136.094 140.224 136.058 140.28 136.034C140.344 136.01 140.4 136.01 140.448 136.034C140.52 136.058 140.564 136.106 140.58 136.178C140.596 136.242 140.58 136.318 140.532 136.406C140.324 136.902 139.976 137.31 139.488 137.63C139.008 137.942 138.46 138.098 137.844 138.098C137.516 138.098 137.22 138.022 136.956 137.87C136.7 137.726 136.468 137.482 136.26 137.138C136.06 136.786 135.876 136.306 135.708 135.698L134.424 131.102Z" fill="#DBD4B9"/>
</svg>
