<svg width="118" height="216" viewBox="0 0 118 216" fill="none" xmlns="http://www.w3.org/2000/svg">
<rect x="0.5" y="0.5" width="117" height="215" rx="4.5" stroke="#8A38F5" stroke-dasharray="10 5"/>
<path d="M59 98C80.5391 98 98 80.5391 98 59C98 37.4609 80.5391 20 59 20C37.4609 20 20 37.4609 20 59C20 80.5391 37.4609 98 59 98Z" fill="#0A0031" stroke="#DBD4B9" stroke-width="1.87" stroke-miterlimit="10"/>
<path d="M59.5637 51.4923C59.4137 52.9923 59.3199 55.8423 59.3199 58.0923V59.5923C59.3199 61.5048 59.3574 63.3048 59.3949 64.3548H58.4762C56.9387 62.386 53.3762 58.2423 50.3949 54.9985C50.2637 54.8673 50.1512 54.6985 50.0012 54.511L49.9449 54.5298V57.7173C49.9449 59.9673 50.0574 62.8173 50.2824 64.3173C50.0387 64.2985 49.7199 64.2798 49.5137 64.2798C49.3074 64.2798 48.9887 64.2985 48.7449 64.3173C48.8949 62.8173 48.9887 59.9673 48.9887 57.7173V56.7798C48.9887 54.4173 48.9324 52.261 48.9137 51.3985H49.9262C52.1199 54.1548 55.8137 58.261 57.9887 60.6235C58.1012 60.736 58.1949 60.8673 58.3449 61.036L58.3824 61.0173V58.0923C58.3824 55.8423 58.2699 52.9923 58.0449 51.4923C58.3449 51.511 58.6074 51.5298 58.8324 51.5298C59.0387 51.5298 59.3574 51.511 59.5637 51.4923ZM69.9909 64.3173C68.5284 64.2798 66.9909 64.261 65.6034 64.261C64.1409 64.261 62.7909 64.2798 61.3659 64.3173V63.8485C66.5409 59.2173 67.6284 57.2298 67.6284 54.8298C67.6284 53.236 66.9346 52.036 65.4909 52.036C64.0096 52.036 63.2784 53.2173 63.1471 54.3985L62.7909 54.4173C62.6221 53.911 62.2659 53.3673 62.0409 53.1048C62.7534 51.9985 64.1034 51.211 65.8846 51.211C68.3034 51.211 69.7659 52.4298 69.7659 54.6048C69.7659 56.3673 68.9034 57.7173 67.1971 59.311C66.1284 60.3048 64.7784 61.6548 63.8596 62.6298C64.4784 62.6485 65.2096 62.6485 65.7721 62.6485C67.1409 62.6485 69.1096 62.611 69.9909 62.5173C69.9721 62.8923 69.9721 63.211 69.9721 63.436C69.9721 63.6798 69.9721 63.961 69.9909 64.3173Z" fill="#DBD4B9"/>
<path d="M59 196C80.5391 196 98 178.539 98 157C98 135.461 80.5391 118 59 118C37.4609 118 20 135.461 20 157C20 178.539 37.4609 196 59 196Z" fill="#A98EE9" stroke="#DBD4B9" stroke-width="1.87" stroke-miterlimit="10"/>
<path d="M59.5637 149.492C59.4137 150.992 59.3199 153.842 59.3199 156.092V157.592C59.3199 159.505 59.3574 161.305 59.3949 162.355H58.4762C56.9387 160.386 53.3762 156.242 50.3949 152.999C50.2637 152.867 50.1512 152.699 50.0012 152.511L49.9449 152.53V155.717C49.9449 157.967 50.0574 160.817 50.2824 162.317C50.0387 162.299 49.7199 162.28 49.5137 162.28C49.3074 162.28 48.9887 162.299 48.7449 162.317C48.8949 160.817 48.9887 157.967 48.9887 155.717V154.78C48.9887 152.417 48.9324 150.261 48.9137 149.399H49.9262C52.1199 152.155 55.8137 156.261 57.9887 158.624C58.1012 158.736 58.1949 158.867 58.3449 159.036L58.3824 159.017V156.092C58.3824 153.842 58.2699 150.992 58.0449 149.492C58.3449 149.511 58.6074 149.53 58.8324 149.53C59.0387 149.53 59.3574 149.511 59.5637 149.492ZM69.9909 162.317C68.5284 162.28 66.9909 162.261 65.6034 162.261C64.1409 162.261 62.7909 162.28 61.3659 162.317V161.849C66.5409 157.217 67.6284 155.23 67.6284 152.83C67.6284 151.236 66.9346 150.036 65.4909 150.036C64.0096 150.036 63.2784 151.217 63.1471 152.399L62.7909 152.417C62.6221 151.911 62.2659 151.367 62.0409 151.105C62.7534 149.999 64.1034 149.211 65.8846 149.211C68.3034 149.211 69.7659 150.43 69.7659 152.605C69.7659 154.367 68.9034 155.717 67.1971 157.311C66.1284 158.305 64.7784 159.655 63.8596 160.63C64.4784 160.649 65.2096 160.649 65.7721 160.649C67.1409 160.649 69.1096 160.611 69.9909 160.517C69.9721 160.892 69.9721 161.211 69.9721 161.436C69.9721 161.68 69.9721 161.961 69.9909 162.317Z" fill="#0A0031"/>
</svg>
