<svg width="118" height="216" viewBox="0 0 118 216" fill="none" xmlns="http://www.w3.org/2000/svg">
<rect x="0.5" y="0.5" width="117" height="215" rx="4.5" stroke="#8A38F5" stroke-dasharray="10 5"/>
<path d="M59 98C80.5391 98 98 80.5391 98 59C98 37.4609 80.5391 20 59 20C37.4609 20 20 37.4609 20 59C20 80.5391 37.4609 98 59 98Z" fill="#0A0031" stroke="#DBD4B9" stroke-width="1.87" stroke-miterlimit="10"/>
<path d="M60.7537 52.3326C60.6037 53.8326 60.51 56.6826 60.51 58.9326V60.4326C60.51 62.3451 60.5475 64.1451 60.585 65.1951H59.6662C58.1287 63.2264 54.5662 59.0826 51.585 55.8389C51.4537 55.7076 51.3412 55.5389 51.1912 55.3514L51.135 55.3701V58.5576C51.135 60.8076 51.2475 63.6576 51.4725 65.1576C51.2287 65.1389 50.91 65.1201 50.7037 65.1201C50.4975 65.1201 50.1787 65.1389 49.935 65.1576C50.085 63.6576 50.1787 60.8076 50.1787 58.5576V57.6201C50.1787 55.2576 50.1225 53.1014 50.1037 52.2389H51.1162C53.31 54.9951 57.0037 59.1014 59.1787 61.4639C59.2912 61.5764 59.385 61.7076 59.535 61.8764L59.5725 61.8576V58.9326C59.5725 56.6826 59.46 53.8326 59.235 52.3326C59.535 52.3514 59.7975 52.3701 60.0225 52.3701C60.2287 52.3701 60.5475 52.3514 60.7537 52.3326ZM66.9809 52.0701L67.1497 52.1451C67.0372 53.4576 66.9809 55.4076 66.9809 57.0764V60.2826C66.9809 62.0264 67.0184 63.5826 67.1497 65.1576C66.8309 65.1389 66.3997 65.1201 66.0434 65.1201C65.7059 65.1201 65.2559 65.1389 64.8997 65.1576C65.0497 63.5826 65.0872 60.6576 65.0872 58.3701V53.6264H62.3872V53.0451C64.3934 52.8014 66.0059 52.4076 66.9809 52.0701Z" fill="#DBD4B9"/>
<path d="M59 196C80.5391 196 98 178.539 98 157C98 135.461 80.5391 118 59 118C37.4609 118 20 135.461 20 157C20 178.539 37.4609 196 59 196Z" fill="#A98EE9" stroke="#D8D0BB" stroke-width="1.87" stroke-miterlimit="10"/>
<path d="M60.7537 150.333C60.6037 151.833 60.51 154.683 60.51 156.933V158.433C60.51 160.345 60.5475 162.145 60.585 163.195H59.6662C58.1287 161.226 54.5662 157.083 51.585 153.839C51.4537 153.708 51.3412 153.539 51.1912 153.351L51.135 153.37V156.558C51.135 158.808 51.2475 161.658 51.4725 163.158C51.2287 163.139 50.91 163.12 50.7037 163.12C50.4975 163.12 50.1787 163.139 49.935 163.158C50.085 161.658 50.1787 158.808 50.1787 156.558V155.62C50.1787 153.258 50.1225 151.101 50.1037 150.239H51.1162C53.31 152.995 57.0037 157.101 59.1787 159.464C59.2912 159.576 59.385 159.708 59.535 159.876L59.5725 159.858V156.933C59.5725 154.683 59.46 151.833 59.235 150.333C59.535 150.351 59.7975 150.37 60.0225 150.37C60.2287 150.37 60.5475 150.351 60.7537 150.333ZM66.9809 150.07L67.1497 150.145C67.0372 151.458 66.9809 153.408 66.9809 155.076V158.283C66.9809 160.026 67.0184 161.583 67.1497 163.158C66.8309 163.139 66.3997 163.12 66.0434 163.12C65.7059 163.12 65.2559 163.139 64.8997 163.158C65.0497 161.583 65.0872 158.658 65.0872 156.37V151.626H62.3872V151.045C64.3934 150.801 66.0059 150.408 66.9809 150.07Z" fill="#0A0031"/>
</svg>
