<svg width="118" height="216" viewBox="0 0 118 216" fill="none" xmlns="http://www.w3.org/2000/svg">
<rect x="0.5" y="0.5" width="117" height="215" rx="4.5" stroke="#8A38F5" stroke-dasharray="10 5"/>
<path d="M59 98C80.5391 98 98 80.5391 98 59C98 37.4609 80.5391 20 59 20C37.4609 20 20 37.4609 20 59C20 80.5391 37.4609 98 59 98Z" fill="#0A0031" stroke="#DBD4B9" stroke-width="1.87" stroke-miterlimit="10"/>
<path d="M50.1925 64.1137L50.1363 64.1887C49.705 64.1699 49.405 64.1699 49.1238 64.1699C48.7675 64.1699 47.9988 64.2074 47.68 64.2449C46.855 62.9137 44.4738 59.6324 43.105 58.0762C43.0488 58.0012 42.9738 57.9824 42.7863 57.9824V58.5637C42.7863 60.2324 42.8425 62.7074 42.9363 64.2074C42.6175 64.1887 42.2238 64.1699 41.8863 64.1699C41.53 64.1699 41.1363 64.1887 40.7988 64.2074C40.8925 62.7074 40.9488 60.2324 40.9488 58.5449V56.6699C40.9488 54.9824 40.93 52.8824 40.855 51.3824C41.5675 51.4012 42.1113 51.4199 42.58 51.4199C42.8988 51.4199 43.3113 51.4012 43.705 51.3824C44.1175 51.3824 44.53 51.3637 44.8113 51.3637C46.93 51.3637 48.6738 52.0574 48.6738 54.2887C48.6738 56.7449 46.8175 57.6262 45.0925 57.8137C45.9738 59.0324 49.0488 62.8012 50.1925 64.1137ZM46.6488 54.5324C46.6488 52.4699 45.0925 52.1324 43.78 52.1324C43.5363 52.1324 43.18 52.1512 42.88 52.1887C42.805 53.3324 42.7863 55.5074 42.7863 56.6512V57.3824H43.4238C45.055 57.3824 46.6488 56.9512 46.6488 54.5324ZM58.4378 64.2074C57.2566 64.1887 55.5128 64.1512 53.9191 64.1512C53.4316 64.1512 52.3628 64.1887 51.9316 64.2074C52.0253 62.7074 52.0816 60.2324 52.0816 58.5449V56.6699C52.0816 54.9824 52.0253 52.8824 51.9316 51.3824C52.3628 51.4012 53.2441 51.4387 53.8441 51.4387C55.0816 51.4387 57.1066 51.4199 58.3441 51.3824C58.3253 51.6074 58.3253 51.7949 58.3253 51.9637C58.3253 52.1137 58.3253 52.3574 58.3441 52.5637C57.5378 52.3949 55.7378 52.3012 54.0316 52.3012C53.9941 53.1637 53.9566 54.9449 53.9566 56.4262V57.0262C56.0753 57.0262 57.2941 56.9324 57.9878 56.8387C57.9691 57.0449 57.9691 57.2699 57.9691 57.4387C57.9691 57.5887 57.9691 57.8324 57.9878 58.0387C57.2941 57.9262 56.0753 57.8887 53.9566 57.8887V58.5824C53.9566 60.2512 53.9941 62.5387 54.0316 63.2887C55.6066 63.2887 57.0878 63.2137 58.4378 62.9699C58.4191 63.2887 58.4191 63.4762 58.4191 63.6074C58.4191 63.7199 58.4191 63.9074 58.4378 64.2074ZM75.5618 64.2074C75.2243 64.1887 74.7931 64.1699 74.4556 64.1699C74.0993 64.1699 73.7431 64.1887 73.3493 64.2074C73.2743 61.8449 72.9368 57.6262 72.5806 54.5699H72.5056C71.4931 56.2949 69.0743 61.0574 67.8556 63.9824H67.1618C66.1306 61.3949 64.0118 57.2512 62.9431 55.2449C62.8306 55.0387 62.7368 54.8512 62.6618 54.6637H62.5868C62.1931 58.0012 61.7806 62.0887 61.7806 64.2074C61.5743 64.1887 61.2556 64.1699 61.0493 64.1699C60.8618 64.1699 60.5618 64.1887 60.2993 64.2074C60.9743 60.2887 61.7431 55.0012 62.0806 51.3449H63.1681C64.6118 54.5324 67.0306 59.3699 68.0431 61.1699H68.1181C69.0743 59.4262 71.4181 54.8512 73.0868 51.3449H74.1743C74.5493 56.1074 75.1681 62.2012 75.5618 64.2074Z" fill="#DBD4B9"/>
<path d="M59 196C80.5391 196 98 178.539 98 157C98 135.461 80.5391 118 59 118C37.4609 118 20 135.461 20 157C20 178.539 37.4609 196 59 196Z" fill="#A98EE9" stroke="#DBD4B9" stroke-width="1.87" stroke-miterlimit="10"/>
<path d="M50.1925 162.114L50.1363 162.189C49.705 162.17 49.405 162.17 49.1238 162.17C48.7675 162.17 47.9988 162.207 47.68 162.245C46.855 160.914 44.4738 157.632 43.105 156.076C43.0488 156.001 42.9738 155.982 42.7863 155.982V156.564C42.7863 158.232 42.8425 160.707 42.9363 162.207C42.6175 162.189 42.2238 162.17 41.8863 162.17C41.53 162.17 41.1363 162.189 40.7988 162.207C40.8925 160.707 40.9488 158.232 40.9488 156.545V154.67C40.9488 152.982 40.93 150.882 40.855 149.382C41.5675 149.401 42.1113 149.42 42.58 149.42C42.8988 149.42 43.3113 149.401 43.705 149.382C44.1175 149.382 44.53 149.364 44.8113 149.364C46.93 149.364 48.6738 150.057 48.6738 152.289C48.6738 154.745 46.8175 155.626 45.0925 155.814C45.9738 157.032 49.0488 160.801 50.1925 162.114ZM46.6488 152.532C46.6488 150.47 45.0925 150.132 43.78 150.132C43.5363 150.132 43.18 150.151 42.88 150.189C42.805 151.332 42.7863 153.507 42.7863 154.651V155.382H43.4238C45.055 155.382 46.6488 154.951 46.6488 152.532ZM58.4378 162.207C57.2566 162.189 55.5128 162.151 53.9191 162.151C53.4316 162.151 52.3628 162.189 51.9316 162.207C52.0253 160.707 52.0816 158.232 52.0816 156.545V154.67C52.0816 152.982 52.0253 150.882 51.9316 149.382C52.3628 149.401 53.2441 149.439 53.8441 149.439C55.0816 149.439 57.1066 149.42 58.3441 149.382C58.3253 149.607 58.3253 149.795 58.3253 149.964C58.3253 150.114 58.3253 150.357 58.3441 150.564C57.5378 150.395 55.7378 150.301 54.0316 150.301C53.9941 151.164 53.9566 152.945 53.9566 154.426V155.026C56.0753 155.026 57.2941 154.932 57.9878 154.839C57.9691 155.045 57.9691 155.27 57.9691 155.439C57.9691 155.589 57.9691 155.832 57.9878 156.039C57.2941 155.926 56.0753 155.889 53.9566 155.889V156.582C53.9566 158.251 53.9941 160.539 54.0316 161.289C55.6066 161.289 57.0878 161.214 58.4378 160.97C58.4191 161.289 58.4191 161.476 58.4191 161.607C58.4191 161.72 58.4191 161.907 58.4378 162.207ZM75.5618 162.207C75.2243 162.189 74.7931 162.17 74.4556 162.17C74.0993 162.17 73.7431 162.189 73.3493 162.207C73.2743 159.845 72.9368 155.626 72.5806 152.57H72.5056C71.4931 154.295 69.0743 159.057 67.8556 161.982H67.1618C66.1306 159.395 64.0118 155.251 62.9431 153.245C62.8306 153.039 62.7368 152.851 62.6618 152.664H62.5868C62.1931 156.001 61.7806 160.089 61.7806 162.207C61.5743 162.189 61.2556 162.17 61.0493 162.17C60.8618 162.17 60.5618 162.189 60.2993 162.207C60.9743 158.289 61.7431 153.001 62.0806 149.345H63.1681C64.6118 152.532 67.0306 157.37 68.0431 159.17H68.1181C69.0743 157.426 71.4181 152.851 73.0868 149.345H74.1743C74.5493 154.107 75.1681 160.201 75.5618 162.207Z" fill="#0A0031"/>
</svg>
