<svg width="816" height="356" viewBox="0 0 816 356" fill="none" xmlns="http://www.w3.org/2000/svg">
<path d="M525.76 252.16L526.04 252.06C528.3 256.3 530.24 259.72 530.29 259.79C535.27 268.42 540.09 275.71 545.47 281.73L528.35 295.3L526.98 295.93L525.76 252.15V252.16ZM402.31 234.04C402.31 234.04 402.33 234.04 402.34 234.04C402.33 234.04 402.32 234.04 402.31 234.04ZM248.27 184.6C253.39 183 258.26 180.7 262.64 177.18L266.88 180C266.92 180.05 266.96 180.1 267 180.15C268.23 181.64 269.68 182.4 271.31 182.4C273.83 182.4 276.01 180.53 277.93 178.88C279.04 177.92 280.57 176.62 281.31 176.58L282.15 176.54C282.88 178.43 283.79 180.3 284.87 182.15C282.4 182.18 278.34 182.65 275.05 183.04C273.3 183.25 271.65 183.44 270.97 183.47H270.96C270.53 183.47 270.12 183.38 269.69 183.29C269.16 183.17 268.62 183.06 268.03 183.06C267.95 183.06 267.88 183.06 267.8 183.06C261.21 183.42 254.68 183.93 248.27 184.6ZM257.48 146.08C257.28 145.46 257.12 144.84 257.05 144.21C256.95 143.29 256.94 142.59 256.99 142.09C257.25 142.57 257.49 143.27 257.59 144.2C257.69 145.16 257.63 145.66 257.49 146.08H257.48ZM285.07 138.85C284.45 135.19 282.37 128.17 281.1 124.24L281.26 124.27C281.54 124.32 281.82 124.34 282.1 124.34C282.66 124.34 283.2 124.25 283.72 124.08L283.09 125.98L286.53 125.47C288.27 125.21 289.82 124.58 291.19 123.7C292.7 127.41 296.87 127.41 298.29 127.41C298.9 127.41 299.51 127.38 300.08 127.36L300.43 127.34L300.46 127.92C298.29 128.8 296.12 129.78 294.62 130.63C290.72 132.83 287.52 135.59 285.07 138.86V138.85ZM117.56 131.4C122.38 129.36 126.63 127.2 128.12 125.54C129.81 123.66 130.82 121.08 131.35 118.23L146.98 113.28C148.08 116.77 149.41 120.03 150.87 123.22C150.23 123.12 149.5 123.07 148.68 123.07C144.19 123.07 137.64 124.59 135.17 125.32C132.78 126.03 130.51 127.05 128.32 128.03C125.84 129.14 123.5 130.19 121.05 130.81C119.9 131.1 118.74 131.27 117.56 131.39V131.4ZM117.08 70.5703C117.37 69.9903 117.63 69.3998 117.89 68.8398C118.65 67.1298 119.37 65.5197 120.49 64.9297C121.1 64.6097 121.65 64.4502 122.16 64.4502C122.98 64.4502 123.69 64.8598 124.45 65.2998C124.55 65.3598 124.64 65.4097 124.74 65.4697C122.24 67.2297 119.7 68.9501 117.08 70.5801V70.5703Z" fill="#36248B"/>
<path d="M145.6 115.96C146.19 117.67 146.84 119.32 147.53 120.95C142.58 121.17 136.45 122.7 134.56 123.27C133.53 123.58 132.53 123.94 131.55 124.32C132.27 122.97 132.81 121.47 133.19 119.9L145.61 115.97M290.43 126.55C291.16 127.42 292.17 128.21 293.56 128.76C290.78 130.32 288.34 132.18 286.24 134.29C285.72 132.23 285.08 129.99 284.47 127.94L286.84 127.59C288.13 127.4 289.32 127.04 290.42 126.55M280.94 179.19C281.09 179.53 281.25 179.87 281.42 180.21C280.79 180.26 280.14 180.33 279.48 180.39C279.93 180.01 280.48 179.54 280.95 179.18M262.73 179.81L262.88 179.91L264.67 181.1C263.26 181.19 261.85 181.28 260.44 181.38C261.22 180.89 261.98 180.36 262.74 179.81M528.13 260.34C528.31 260.66 528.42 260.85 528.43 260.87C532.98 268.75 537.47 275.6 542.42 281.42L529.01 292.05L528.13 260.35M377.13 0.950195C350.9 0.950195 323.04 9.51973 300.09 17.9697L44.16 17.9404C39.68 18.2504 41.73 24.1501 42.47 27.0801C43.26 30.1901 44.93 32.8198 45.73 35.8398C27.23 40.1398 7.26001 58.6199 3.98001 77.6299C2.27001 87.5399 3.21001 109.58 7.57001 118.66C8.99001 121.61 20.37 136.16 22.89 138.48C26.68 141.98 29.93 140.79 32.03 141.98C32.52 142.26 33.77 145.57 35.63 145.57C35.71 145.57 35.78 145.57 35.86 145.55L21.73 154.53C13.51 160.82 8.26001 168.33 5.48001 178.35C3.72001 184.7 1.46 189.84 8.09 193.94C15.97 198.81 28.71 200.26 37.7 202.25L17.97 206.87L12.43 209.33C13.59 210.18 13.58 211.09 13.69 212.37C14.39 220.31 13.1 228.58 13.01 236.42C12.8 253.67 13.25 270.93 12.99 288.17C12.43 291.76 10.01 290.79 7.67999 292.11C5.29999 293.45 1.18001 296.56 0.730011 299.34L0.209991 344.78C7.47999 353.77 19.3 354.3 29.96 355.72H779.22C791.67 353.3 806.93 355.06 815.75 344.16L815.6 299.57C813.14 291.44 806.24 285.81 798.6 282.66C804.74 280.71 817.06 273.11 814.48 265.57C812.71 260.4 801.21 247.57 796.77 243.82C783.56 232.66 766.63 230.85 751.66 223.5C751.02 222.75 751.75 222.44 751.74 222.25C750.93 196.32 752.35 170.23 751.74 144.29L757.01 144.76L757.91 143.99V122.73H768.08C768.93 122.73 779.36 113.07 781.03 111.63C783.05 109.89 784.79 110.15 786.11 106.85C791.17 94.1496 769.47 89.9904 774.88 75.9004C776.92 70.5904 783.31 67.7996 786.68 63.5996H479.19V54.3203H786.93V63.2803C788.68 60.9503 789.48 58.1801 788.13 54.3301L797.38 54.9404C797.92 46.2004 806.74 42.2403 810.59 35.7803C812.46 32.6403 817.77 19.8802 811.9 19.1602L439.41 19.5C427.18 16.13 417.19 8.60961 405.06 4.84961C396.18 2.09961 386.75 0.94043 377.11 0.94043L377.13 0.950195ZM268.33 29.8096C269.67 29.8096 271.02 29.7704 272.37 29.6904C287.9 28.7704 296.47 21.5298 310.11 16.2598C328.41 9.18977 354.61 3.16992 377.63 3.16992C386.42 3.16992 394.75 4.05008 401.99 6.08008C411.8 8.83008 418.03 13.0995 426.81 17.0195C437.51 21.7995 454.46 23.8402 461.93 32.4502C462.9 33.5702 468.22 41.1005 467.49 41.9805C460.93 39.7305 453.19 36.8404 446.22 36.4404C445.7 36.4104 445.19 36.4004 444.68 36.4004C440.71 36.4004 436.75 37.1797 432.77 37.1797C431.92 37.1797 431.06 37.1396 430.21 37.0596L428.67 38.9004C431.65 38.8604 434.66 38.79 437.68 38.79C448.38 38.79 459.12 39.5805 468.78 44.7305C476.46 48.8305 478.08 56.7703 479.23 64.7803C477.13 64.3803 475.93 62.5804 473.83 61.8604C471.17 60.9604 468.03 60.5898 464.67 60.5898C455.88 60.5898 445.61 63.1205 438.68 65.2305C416 72.1505 397.14 87.4597 374.71 94.9697L375.35 96.21C396.29 90.71 413.21 76.3601 433.29 69.0801C442.39 65.7801 454.28 62.6396 464.66 62.6396C466.58 62.6396 468.46 62.7505 470.25 62.9805C481.79 64.5005 492.2 83.8401 499.6 91.5801C500.93 92.9701 503.65 94.4096 504.93 95.8096C507.39 98.4896 508.15 102.62 512.38 103.46C512.9 103.56 513.42 103.59 513.94 103.59C514.6 103.59 515.25 103.54 515.89 103.54C516.31 103.54 516.73 103.56 517.14 103.63C521.57 104.37 523.83 109.88 526.73 112.84H515.32C514.54 112.84 508.98 113.49 508.17 113.72C506.87 114.09 507.03 115.31 505.47 115.93C494.56 120.27 472.78 125.27 460.75 127.95C449.42 130.47 438.14 131.81 426.95 131.81C410.23 131.81 393.7 128.83 377.52 122.38C370.49 119.58 363.88 115.72 356.95 112.74C354.79 111.81 348.04 108.72 346.24 108.62C346.21 108.62 346.18 108.62 346.15 108.62C345.18 108.62 344.65 109.45 344.82 110.37L359.61 116.53C359.11 116.51 358.62 116.5 358.12 116.5C356.38 116.5 354.64 116.58 352.9 116.58C352.16 116.58 351.42 116.56 350.68 116.52C343.79 116.11 336.35 114.63 329.15 114.63C323.7 114.63 318.39 115.48 313.57 118.27C311.56 119.43 308.26 121.25 308.44 123.92L317.97 118.35C321.66 117.14 325.39 116.73 329.15 116.73C335.89 116.73 342.7 118.04 349.42 118.4C349.81 118.42 350.22 118.43 350.65 118.43C353.98 118.43 358.17 117.86 361.26 117.86C361.87 117.86 362.44 117.88 362.94 117.94C364.85 118.14 371.09 121.78 373.39 122.8C376.5 124.17 379.8 125.41 383.05 126.4L382.08 128.27C384.11 132.4 386.38 136.86 387.53 141.33C390.17 151.57 387.93 155.21 387.13 164.73C387 166.29 387.33 167.25 387.81 167.25C388.18 167.25 388.63 166.67 389.02 165.34C391.37 157.24 391.57 148.83 389.38 140.72C388.3 136.72 384.86 131.04 384.28 127.94C384.17 127.34 384.44 127.15 384.84 127.15C385.45 127.15 386.36 127.62 386.58 127.8C388.06 129.04 394.01 150.36 395.54 154.28C398.26 161.24 401.41 167.31 407.09 172.32L419.43 180.63C388.36 172.25 358.87 158.58 331.49 141.86L330.02 143.34C360.44 161.61 393.07 176.94 427.9 184.84L429.3 183.41C420.08 178.38 410.44 174.28 403.76 165.79C395.76 155.61 394.51 140.68 389.22 129.17C389.18 129.06 389.33 129.01 389.6 129.01C391.29 129.01 398.03 130.85 398.79 131.31C402.79 133.71 410.78 143.83 415.1 147.67C440.54 170.23 482.22 186.31 515.49 192.16C526.16 194.04 537.15 194.22 547.31 198.44L548.3 196.66C537.03 192.17 524.82 191.87 513.02 189.69C499.92 187.28 486.62 183.22 474.15 178.62C447.06 168.65 421.22 153.9 402.16 131.94L427.63 133.91C443.27 145.7 464.26 159.45 484.46 160.31C484.61 160.31 484.84 160.32 485.14 160.32C487.95 160.32 496.5 159.99 496.5 158.74C495.54 157.93 494.37 157.67 493.12 157.67C490.89 157.67 488.4 158.49 486.37 158.49H486.34C470.51 158.43 449.9 147.55 437.12 138.6C435.12 137.2 432.66 135.67 431.15 133.79C431.46 133.76 431.77 133.75 432.06 133.75C432.96 133.75 433.79 133.89 434.69 134.25C436.99 135.19 442.44 140.1 445.53 141.9C453.41 146.48 463.26 150.73 472.32 152.1C475.22 152.54 478.08 152.71 480.92 152.71C491.3 152.71 501.41 150.41 511.92 150.41C512.13 150.41 512.34 150.41 512.55 150.41V148.57C501.92 148.59 491.81 150.45 481.51 150.45C476.88 150.45 472.2 150.07 467.42 148.99C457.27 146.68 444.75 140.33 437.32 133.17C437.77 133.18 438.21 133.19 438.66 133.19C446.33 133.19 453.92 131.45 461.38 129.78C474.97 126.74 496.84 121.49 508.71 115.95C510.6 115.07 519.5 114.63 524.19 114.63C525.13 114.63 525.91 114.65 526.42 114.68C540.54 115.66 543.01 121.53 552.69 129.1C554.37 130.41 566.8 139.3 567.74 139.3C568.13 139.29 568.94 138.34 568.37 137.45C567.81 136.58 556.64 129.48 554.55 127.85C552.6 126.33 550.34 124.73 548.94 122.68C549.67 122.71 550.4 122.72 551.14 122.72C553.59 122.72 556.05 122.6 558.5 122.6C559.53 122.6 560.55 122.62 561.57 122.68C596.2 124.77 624.17 149.3 652.11 167.16L661.16 174.44L634.36 176.94C594.52 176.24 552.7 175.28 514.65 162.77C514.51 162.72 514.35 162.7 514.19 162.7C513.21 162.7 512.07 163.57 513.16 164.3C515.12 165.61 524.8 168.09 527.71 168.87C553.4 175.71 589.75 178.93 620.68 178.93C629.5 178.93 637.87 178.67 645.44 178.16C649.73 177.87 657.33 176.29 663.74 176.29C667.7 176.29 671.21 176.89 673.21 178.77C676.39 181.76 674.45 183.46 671.45 185.05C670.45 185.58 662.94 187.32 664.87 189.26C664.95 189.34 665.09 189.38 665.28 189.38C667.5 189.38 676.62 184.28 679.35 184.28H679.36C682.91 184.3 687.54 187.55 685.24 191.46C670.51 208.35 652.48 230.04 628.12 230.04C626.58 230.04 625 229.95 623.41 229.77C613.6 228.66 604.04 221.45 595.38 217.1C595.09 216.97 594.83 216.91 594.61 216.91C593.78 216.91 593.52 217.77 594.08 218.73C594.53 219.5 607.87 226.53 609.74 227.4C616.18 230.41 622.47 231.75 628.56 231.75C644.02 231.75 658.18 223.13 670.09 211.45C675.81 205.84 680.89 197.55 687.04 192.65C689.36 190.8 690.78 190.1 691.87 190.1C693.99 190.1 694.89 192.74 698.76 194.83C696.84 197.66 697.39 202.03 696.82 205.52C691.67 237.36 680.47 264.1 647.7 274.14C638.94 276.82 629 279.02 619.56 279.02C617.35 279.02 615.17 278.9 613.04 278.64C612.8 279.97 613.64 280.1 614.59 280.48C616.11 281.08 618.03 281.33 620.23 281.33C630.78 281.33 647.63 275.54 656.52 274.95C659.1 274.78 661.73 274.72 664.38 274.72C670.65 274.72 677.06 275.06 683.42 275.06C689.78 275.06 696.25 274.71 702.35 273.31C712.85 270.9 717.08 264.92 717.89 254.33L716.01 215.79H714.17C714.4 221.43 714.56 227.09 714.79 232.73C715.1 240.46 717.04 256.57 713.87 263.25C710.31 270.75 699.71 272.53 691.74 272.53C690.97 272.53 690.22 272.51 689.51 272.48C696.23 263 703.47 252.39 706.37 240.96C708.73 231.65 709.11 213.39 707.23 203.94C705.64 195.96 703.17 196.37 697.55 192.03C695.38 190.35 694.29 187.89 691.92 187.89C690.97 187.89 689.81 188.29 688.29 189.29C687.05 184.79 682.97 182.35 678.52 182.35C677.87 182.35 677.21 182.4 676.56 182.51C677.09 178 672.51 175.61 668.71 174.64C667.07 174.22 665.83 174.77 663.87 173.93C659.56 172.09 652.71 163.91 647.77 161.67L621.68 144.3H749.94V222.57C745.19 220.11 740.77 216.83 735.75 214.88C732.72 213.7 724.89 212.6 723.43 211.78C723.12 211.6 719.92 207.5 718.81 206.53C717.49 205.37 710.56 200.16 708.06 200.16C707.77 200.16 707.54 200.23 707.39 200.39L707.8 202.25C716.35 205.1 724.98 214.76 728.2 223.03C733.04 235.46 731.47 246.58 732.64 259.27C733.63 270.08 738.94 279.54 739.45 290.36C722.04 292.18 705.12 296.85 687.86 299.5C672.01 301.94 655.1 302.91 638.19 302.91C622.64 302.91 607.09 302.09 592.39 300.83C561.03 298.15 547.45 285.22 532.16 258.73C529.93 254.86 521.73 239.87 521.16 236.44C521.1 236.1 521.01 235.51 521.39 235.51C521.42 235.51 521.44 235.51 521.47 235.51C528.32 242.43 534.42 250.25 542.8 255.49C545.35 257.09 555.61 262.18 558.12 262.38C558.18 262.38 558.24 262.38 558.29 262.38C559.1 262.38 559.43 261.89 559.39 261.09C551.36 257.51 544.26 254.9 537.49 249.08C527.32 240.34 519.22 228.5 508.22 220.4C508.73 220.01 509.33 219.85 510 219.85C514.14 219.85 520.71 226.26 521.45 226.26C521.45 226.26 521.46 226.26 521.47 226.26C522.48 226.07 522.3 225.52 521.78 224.73C518.28 219.34 511.23 217.78 503.35 217.78C493.22 217.78 481.72 220.36 474.6 220.72C472.8 220.81 471 220.85 469.18 220.85C428.32 220.85 381.49 198.9 347.94 177.84C345.16 176.1 328.53 164.04 327.23 164.04C323.62 164.16 331.17 169.1 331.66 169.46C357.64 188.04 385.84 201.53 415.71 212.72L409.83 213.35C392.04 211.57 373.7 210.1 356.52 205C336.51 199.07 319.08 187.64 300.71 178.19C300.56 178.16 300.44 178.14 300.33 178.14C299.44 178.14 299.73 179.12 299.88 179.96C313.57 186.79 326.34 195.37 340.51 201.28C360.54 209.64 385.69 214.1 407.4 215.16C415.76 215.57 417.76 214.65 426.07 216.84C439.82 220.47 453.41 222.68 467.56 222.68C469.38 222.68 471.22 222.64 473.06 222.57L454.08 229.78C444.48 232.85 434.82 234.19 425.2 234.19C406.66 234.19 388.27 229.24 370.73 222.24C349.79 213.88 318.74 197.94 301.64 183.44C298.77 181.01 296.33 176.84 292.71 175.73C291.84 176.2 292.6 177.34 292.99 177.92C294.69 180.51 302.34 186.51 305.16 188.56C324.53 202.68 349.45 216.18 371.78 224.89C380.87 228.43 390.62 231.67 400.31 233.05C400.4 233.63 399.94 233.77 399.41 233.77C398.97 233.77 398.48 233.68 398.17 233.65C364.38 230.99 331.3 219.78 304.18 199.4C294.94 192.46 285.9 183.46 282.95 171.93C279.06 156.68 280.95 140.78 295.69 132.48C298.39 130.96 303.59 128.88 306.59 127.96C312.6 126.12 318.89 125.01 325.08 123.93V122.1L302.59 127.04C302.07 116.72 311.08 105.75 320.02 101.32C325.92 98.4003 331.73 97.2197 337.48 97.2197C355.28 97.2197 372.35 108.6 388.61 115.01C397.87 118.66 407.94 120.38 417.9 120.87C418.37 120.89 419.46 120.97 420.6 120.97C422.82 120.97 425.21 120.68 423.36 119.11C414.35 118.06 404.74 118.15 396 115.65C389.32 113.73 382.82 109.68 376.28 107.32C376.19 106.74 376.65 106.6 377.19 106.6C377.63 106.6 378.12 106.69 378.42 106.72C382.26 107.04 386.72 107.28 391.34 107.28C399.88 107.28 408.98 106.48 415.75 103.95C417.1 103.44 418.25 102.83 416.64 101.79C409.69 102.92 402.76 105.02 395.69 105.47C393.85 105.59 391.1 105.65 388.07 105.65C382.13 105.65 375.1 105.4 371.7 104.8C368.77 104.28 362.67 100.68 359.16 99.4697C355.69 98.2697 352.12 97.84 348.89 96.79C348.21 96.57 347.4 96.5901 347.29 95.6201C354.03 94.1501 361.09 91.1701 367.44 88.3301C387.82 79.1901 411.82 64.1299 429.86 50.8799C431.43 49.7299 433.98 48.5203 433.61 46.3203C433.59 46.2903 433.54 46.2803 433.49 46.2803C432.84 46.2803 430.27 47.9303 429.72 48.2803C409.25 61.3703 390.89 75.4599 368.47 85.6699C362.32 88.4699 348.14 94.7503 341.99 95.5703C332.59 96.8103 329.55 94.65 319.73 99.21C318.77 99.66 314.89 102.43 314.1 102.43C314.05 102.43 314.01 102.42 313.99 102.4C316.13 98.5004 319.02 94.53 320.89 90.5C321.15 89.95 323.7 84.54 321.76 84.54C321.74 84.54 321.72 84.54 321.7 84.54C321.04 84.58 316.78 93.9199 315.95 95.4199C311.43 103.55 303.38 113.05 300.86 121.63C300.51 122.83 300.34 123.95 300.42 125.2C299.76 125.23 299.04 125.27 298.32 125.27C296.08 125.27 293.8 124.88 293.07 122.52C298.23 115.75 303.5 104.23 304.58 95.7695C304.76 94.3695 305.23 92.9804 303.81 91.9404C301.88 96.8604 301.03 102.05 299.2 107.04C296.94 113.17 293.52 122.27 286.24 123.36C287.13 120.66 288.68 118.8 289.63 115.97C293.65 104 293.2 84.6102 292.39 71.9102C292.35 71.2402 291.79 63.9199 290.41 63.9199C290.26 63.9199 290.1 64.0102 289.93 64.2002C290.09 79.1502 292.16 95.7504 289.02 110.44C288.36 113.55 286.21 122.21 282.11 122.21C281.95 122.21 281.78 122.2 281.62 122.17C279.07 120.67 277.56 116.67 276.25 113.92C274.13 109.47 272.26 102.07 269.69 98.29C269.22 97.6 269.04 96.8203 268.15 96.8203C268.03 96.8203 267.89 96.8301 267.73 96.8701C266.49 98.2901 277.18 119.52 278.39 122.88C279.57 126.16 282.96 137.42 283.12 140.4C283.22 142.3 282.31 143.25 281.91 144.93C280.91 144.42 280.24 142.27 279.78 141.22C274.66 129.43 272.06 115.76 268.22 103.47L265.89 102.41C269.29 115.09 272.79 127.77 277.14 140.15C277.79 141.99 280.37 146.62 280.5 147.77C280.67 149.38 279.53 152.07 279.46 153.87C279.19 161.04 279.97 167.46 281.25 174.45C278.18 174.58 274.68 180.26 271.34 180.26C270.44 180.26 269.55 179.84 268.68 178.79C266.02 175.56 263.18 164.8 261.85 160.35C261.36 158.71 258.48 149.7 258.62 149.09C259.01 147.3 260.05 147.05 259.74 143.98C259.44 141.08 257.88 139.18 256.6 139.18C255.45 139.18 254.52 140.72 254.94 144.45C255.23 147.01 256.58 149.22 257.24 151.4C257.45 152.07 257.29 152.37 256.8 152.37C256.67 152.37 256.51 152.35 256.33 152.31C248.54 146.23 237.51 142.75 232.06 134.04C226.19 124.63 230.25 123.03 239.39 119.99C240.16 119.73 247.9 118.72 246.14 117.19L239.36 117.8C237.5 100.72 235.85 82.6199 231.76 65.9199C230.24 59.7099 227.82 52.5799 224.87 46.9199C223.02 43.3699 214.22 30.2803 210.21 30.2803C210.16 30.2803 210.11 30.2803 210.07 30.2803C209.53 30.2803 209.66 31.5298 209.78 31.7998C209.95 32.1798 214.82 36.1396 215.91 37.3896C223.42 45.9796 230.07 61.8202 231.27 73.2002C231.34 73.8502 231.78 75.29 230.87 75.29C230.83 75.29 230.78 75.29 230.73 75.29C226.49 60.26 219.63 36.8304 203.76 30.4404C202.01 29.7404 200.04 30.0298 198.66 28.7598C200.33 28.2898 202.03 27.9199 203.71 27.9199C205.25 27.9199 206.76 28.23 208.22 29.04L209.14 27.5303L207.29 25.9805C207.91 26.0405 208.56 26.0703 209.22 26.0703C211.31 26.0703 213.56 25.8398 215.64 25.8398C216.49 25.8398 217.31 25.8802 218.08 25.9902C225.59 27.0602 229.49 34.9397 232.48 41.1797C241.89 60.7797 244.4 84.3701 246.11 105.83C246.2 106.93 245.93 107.82 247.06 108.56C248.34 108.56 248.05 103.19 248.01 102.08C247.6 91.6701 245.62 79.8399 243.48 69.6299C240.3 54.4799 235.71 39.7605 226.4 27.2305C228.48 27.0305 230.54 26.9404 232.61 26.9404C244.52 26.9404 256.27 29.8301 268.33 29.8301V29.8096ZM295.46 20.4297L284.36 25.6602C279.26 27.3302 274.12 27.9199 268.97 27.9199C257.76 27.9199 246.49 25.15 235.34 24.75C235.04 24.74 234.74 24.7305 234.45 24.7305C231.02 24.7305 227.97 25.4002 224.87 25.4102H224.84C221.03 25.4102 215.81 23.6797 211.13 23.6797C209.25 23.6797 207.45 23.96 205.87 24.75C202.26 26.55 199.52 25.7996 196.42 27.1396C192.21 28.9496 192.92 29.9105 187.32 30.9805C185.04 31.4205 179.47 33.21 177.89 33.25C177.88 33.25 177.87 33.25 177.86 33.25C176.38 33.25 173.68 30.8604 169.24 30.8604C168.71 30.8604 168.16 30.8897 167.58 30.9697C163.93 31.4497 160.7 34.4702 158.67 34.9102C158.38 34.9702 158.07 35 157.75 35C156.35 35 154.68 34.5 152.56 34.5C151.46 34.5 150.23 34.6398 148.85 35.0498C146 35.9098 142.34 39.25 141.51 39.46C141.47 39.47 141.41 39.4805 141.34 39.4805C140.28 39.4805 136.06 38.3604 132.84 38.3604C132.29 38.3604 131.77 38.3897 131.3 38.4697C123.71 39.6797 124.89 43.4903 121.75 48.0303C120.4 49.9903 119.27 50.6299 118.19 50.6299C116.44 50.6299 114.78 48.96 112.39 48.46C111.34 48.24 110.3 48.1299 109.28 48.1299C106.24 48.1299 103.33 49.0604 100.66 50.6504C92.85 37.2404 79.07 32.5898 64.44 32.5898C62.84 32.5898 61.23 32.65 59.61 32.75C55.54 33.02 51.75 34.45 47.7 34.54C45.5 30 43.67 25.58 43.3 20.46H295.5L295.46 20.4297ZM812.82 21.6602C812.24 26.2302 811.03 31.5599 808.4 35.4199C806.55 38.1299 803.19 40.3397 801.12 42.9297C799.57 44.8597 796.61 51.2104 795.87 51.8604C795.5 52.1904 795.18 52.4697 794.65 52.4697H794.63L478.09 52.3701C477.31 49.5001 475.49 47.6397 473.38 45.6797C472.44 44.8097 469.57 43.2996 469.44 43.0996C469.24 42.7996 469.86 41.8002 469.51 40.9502C467.09 34.9902 462 28.2 456.21 25.25L447.16 21.6602H812.82ZM192.27 32.8701C192.92 32.8701 193.5 32.8202 193.96 32.6602C195.1 32.2602 194.06 30.8799 196.65 30.8799C196.78 30.8799 196.92 30.8796 197.07 30.8896C213.18 31.6696 221.42 52.6698 225.96 65.5498C231.01 79.8598 235.44 94.9796 236.89 110.1C237.17 113.04 235.64 116.97 238.75 118.11C235.35 119.46 229.22 121.25 227.49 124.75C227.08 125.57 227.33 127.3 226.62 127.7C225.73 128.21 224.31 128.41 222.67 128.41C218.71 128.41 213.46 127.24 211.08 126.35L206.63 94.0801L208.46 81.8496L206.69 80.8301C204.8 88.1901 204.66 94.5098 205.53 102.01C206.89 113.8 209.06 127.15 211.19 138.87C214.05 154.57 226.5 199.02 219.89 212.05C216.91 217.93 205.47 229.97 200.53 235.22C175.99 261.3 148.62 276.28 117.7 293.56C106.41 297.41 94.17 296.22 82.44 297.14C76.08 297.64 68.79 299.62 62.03 299.62C59.59 299.62 57.22 299.36 54.99 298.69C50.16 297.23 51.41 295.83 48.82 292.53C47.2 290.47 44.87 289.32 43.29 287.28C43.32 287.28 43.35 287.28 43.39 287.28C47.53 287.28 50.68 291.02 54.76 291.53C55.47 291.62 56.15 291.66 56.79 291.66C61.23 291.66 64.18 289.68 68.09 287.83L79.06 280.19C78.49 279.27 77.83 279.37 76.93 279.23C74.3 278.83 71.45 278.41 68.82 278.1C66.68 277.85 49.76 278.32 55.59 273.36C57.77 271.51 68.3 271.13 71.87 270.53C78.51 269.41 85.19 267.48 91.7 267.48C96.44 267.48 101.1 268.51 105.58 271.63L106.79 271.59C110.9 268.74 114.87 265.75 118.54 262.33C132.91 248.94 141.89 236.16 153.18 220.53C160.26 210.73 167.7 202.17 176.41 193.78C173.51 177.73 169.53 160.93 163.72 145.68C156.95 127.92 147.14 117.09 146.26 96.5703C145.94 89.0603 147.78 83.0603 148.11 76.1104C148.17 74.8904 147.82 74.0303 146.6 74.0303C146.5 74.0303 146.4 74.0298 146.3 74.0498L143.84 91.2998C141.35 83.5798 134.13 78.3204 135.2 69.1104H133.35C132.14 77.1304 137.05 82.04 140.45 88.21C142.75 92.37 143.83 94.67 144.45 99C145.04 103.09 145.61 107.18 146.35 111.25L131.5 115.95C131.19 112.53 131.92 108.49 131.5 105.17C130.98 101.05 126.79 92.4196 124.35 88.8896C120.77 83.7197 115.68 80.2503 110.53 76.8203C137.83 62.6603 155.69 37.5201 187.99 32.8301C188.36 32.7801 188.76 32.7598 189.18 32.7598C190.2 32.7598 191.33 32.8701 192.32 32.8701H192.27ZM161.66 38.5596C162.27 38.5596 162.72 38.2499 162.89 37.3799L161.04 36.1396C163.5 33.9697 166.83 32.8203 170.13 32.8203C171.44 32.8203 172.74 33.0001 173.98 33.3701C174.26 34.9701 173.75 34.3204 173.1 34.6504C169.8 36.3304 165.72 37.4402 162.25 39.2002C159.79 40.4502 150.82 46.5803 149.47 46.8203C149.34 46.8403 149.2 46.8604 149.05 46.8604C146.64 46.8604 142.27 43.8301 139.61 43.3701C138.64 43.2001 137.76 43.1299 136.94 43.1299C126.62 43.1299 127.49 55.4996 118.8 55.5596H118.78C116.92 55.5596 114.53 54 113.04 54C112.37 54 111.88 54.3202 111.71 55.2402C113.76 56.6202 116.19 57.3496 118.6 57.3496C121.5 57.3496 124.38 56.29 126.54 54.04C128.54 51.96 129.23 48.8797 131.76 46.9297C133.58 45.5197 135.24 45.0098 136.83 45.0098C139.99 45.0098 142.93 47.0302 146.46 48.1602L146.86 49.3799L134.98 58.1904C133.83 58.4304 132.6 58.5098 131.33 58.5098C128.73 58.5098 125.94 58.1797 123.29 58.1797C120.25 58.1797 117.37 58.6202 115.11 60.4902C113.92 61.4702 113.44 62.9302 112.37 63.9102C111.97 64.2802 108.9 66.5801 107.77 66.5801C107.41 66.5801 107.25 66.3502 107.43 65.7402C108.43 62.3702 110.44 62.1399 107.88 57.8799C106.09 54.8899 102.66 55.6504 101.95 52.6904C101.69 51.6104 103.58 51.2297 104.36 50.9697C106.03 50.3997 107.44 50.1797 108.68 50.1797C112.66 50.1797 114.84 52.4404 117.98 52.4404C118.54 52.4404 119.13 52.3702 119.77 52.2002C125.83 50.5902 123.11 41.8196 131.93 40.3096C132.7 40.1796 133.41 40.1201 134.1 40.1201C139.68 40.1201 142.82 44.0098 148.89 44.0098C149.84 44.0098 150.87 43.9104 151.99 43.6904C153.12 43.4704 154.03 43.4095 153.67 42.0195L143.19 41.3896C141.72 40.0196 149.92 36.66 150.93 36.5C151.63 36.39 152.66 36.3398 153.65 36.3398C154.47 36.3398 155.26 36.3802 155.84 36.4502C157.69 36.6802 160.19 38.5703 161.69 38.5703L161.66 38.5596ZM31.21 140.06C29.16 140.06 26.88 139.13 24.44 136.92C21.58 134.33 10.57 120.48 9.04001 117.18C5.25001 109 4.24999 87.11 5.79999 78.21C10.15 53.21 38.87 34.45 65.01 34.46C73.29 34.46 81.32 36.3498 88.23 40.5098C91.69 42.5998 99.45 49.86 100.36 53.71C100.95 56.2 98.59 56.2197 98.76 58.6396C95.25 58.5996 95.8 55.4801 95.14 54.6201C94.84 54.2301 91.66 51.8396 90.95 51.3496C83.61 46.2596 74.59 43.4502 65.63 43.4502C58.61 43.4502 51.63 45.1804 45.55 48.9004C45 49.2404 38.93 53.54 41.12 53.71C41.24 53.72 41.35 53.7305 41.46 53.7305C43.56 53.7305 44.6 51.6097 46.14 50.7197C52.29 47.2197 59.15 45.5195 65.99 45.5195C75.56 45.5195 85.1 48.85 92.59 55.25C92.11 55.52 91.67 55.6299 91.24 55.6299C89.64 55.6299 88.3 54.1002 86.78 53.6602C83.58 52.7502 80.23 52.3203 76.84 52.3203C66.96 52.3203 56.76 55.9505 49.14 61.7305C48.14 62.4805 43.97 65.9204 43.58 66.6504C43.15 67.4504 42.83 68.54 43.85 68.54C43.95 68.54 44.07 68.5298 44.2 68.5098C45.3 68.3098 50.45 63.0801 52.32 61.8301C59.24 57.2101 67.97 54.2998 76.49 54.2998C79.23 54.2998 81.96 54.6 84.58 55.25C83.58 56.3 81.16 57.3402 80.59 58.6602C80.08 59.8502 80.39 61.1701 79.99 62.3701C78.48 66.9301 68.15 66.9699 64.06 68.6299C57.33 71.3499 56.81 76.2696 53.39 81.3896C51.48 84.2496 48.05 87.1099 46.46 89.8799C46.09 90.5199 45.37 91.6999 46.67 91.9199C46.68 91.9199 46.7 91.9199 46.71 91.9199C47.92 91.9199 53.33 84.8205 54.25 83.4805C58.32 77.5405 58.4 72.7098 66.1 70.0498C70.57 68.4998 79.31 68.8699 81.55 63.9199C82.29 62.2899 81.94 60.7796 82.57 59.3896C83.29 57.7996 85.38 57.1602 87.8 57.1602C91.93 57.1602 97.02 59.0104 97.86 61.1104C98.34 62.3104 96.29 65.8396 99.2 66.5596C99.38 66.6096 99.57 66.6299 99.75 66.6299C102.98 66.6299 105.92 59.93 101.85 59.25C101.96 61.06 101.82 64.1199 99.38 64.1699L101.28 56.8301C108.3 57.1801 107.91 62.7398 104.01 67.2598C101.94 69.6598 100.43 70.5498 99.23 70.5498C96.02 70.5498 94.96 64.2698 91.24 63.3398C90.87 63.2498 90.54 63.2002 90.26 63.2002C86.78 63.2002 89.43 69.7297 88.63 72.2197C87.36 76.1797 83.78 77.0498 79.86 77.0498C76.78 77.0498 73.48 76.5098 70.91 76.5098C70.22 76.5098 69.58 76.5504 69.02 76.6504C58.46 78.4604 49.86 95.4798 42.05 102.09L43.58 103.62L55.93 89.4502C55.93 89.4502 55.99 89.4502 56.02 89.4502C56.39 89.4502 56.31 90.0501 56.23 90.3701C55.63 92.8001 52.74 98.5797 51.41 100.97C46.42 110 38.69 118.16 32.28 126.22L32.19 127.66L34.7 126.78L49.45 107.95C47.69 115.48 43.14 123.14 38.06 128.91C36.14 131.09 31.9 132.77 33.12 135.68L40.83 128.91C39.62 134.89 36.08 140.07 31.25 140.07L31.21 140.06ZM109.63 72.9404C107.4 72.9404 105.17 72.2401 103.08 71.5801C104.06 68.7901 106.65 69.5304 108.46 68.6504C114.01 65.9704 115.71 60.6305 122.1 60.2305C122.37 60.2105 122.66 60.21 122.94 60.21C125.03 60.21 127.42 60.6104 129.66 60.6104C130.27 60.6104 130.87 60.58 131.44 60.5L127.34 64.0898C127.27 64.0998 127.21 64.1104 127.14 64.1104C125.98 64.1104 124.52 62.3203 122.16 62.3203C121.38 62.3203 120.49 62.52 119.49 63.04C115.85 64.96 115.87 71.44 112.36 72.54C111.45 72.82 110.54 72.9404 109.63 72.9404ZM79.87 79.0898C80.5 79.0898 81.16 79.06 81.83 79C89.37 78.28 92.25 72.3799 90.13 65.4199C90.18 65.3699 90.26 65.3496 90.37 65.3496C90.92 65.3496 92.09 65.89 92.42 66.21C93.29 67.07 93.93 69.6897 95.36 70.9697C98.1 73.4097 101.16 71.7896 104.89 74.3896C114.51 81.0996 123.42 88.4695 127.6 99.7695C129.91 106.02 131.25 118.84 126.52 124.11C123.48 127.5 104.4 134.47 99.41 135.4C96.81 135.88 94.3 136 91.8 136C89.49 136 87.19 135.9 84.85 135.9C82.74 135.9 80.61 135.98 78.41 136.29C77.98 135.9 82.8 127.68 78.41 127.67C79.03 136.37 73.06 136.35 66.7 138.76C68.42 132.21 73.9 122.39 81.66 122.39C81.82 122.39 81.98 122.39 82.14 122.4C87.73 122.69 97.53 127.64 103.03 127.64C103.55 127.64 104.03 127.6 104.46 127.5C111.17 126.02 107.76 114.58 105.42 110.51L104.64 110.36C103.59 110.51 98.82 111.52 98.77 112.56C98.74 113.13 99.24 113.31 99.93 113.31C101.03 113.31 102.64 112.87 103.51 112.87C103.67 112.87 103.81 112.88 103.91 112.92C104.63 113.17 106.88 120.58 106.77 121.74C106.5 124.6 104.8 125.51 102.61 125.51C99.35 125.51 95.01 123.49 92.72 122.9C88.49 121.82 84.82 120.51 80.95 120.51C78.82 120.51 76.63 120.91 74.25 121.96C70.14 123.78 65.77 133.74 64.78 138.07C64.73 138.11 64.55 138.13 64.28 138.13C62.77 138.13 58.4 137.52 58.17 137.35C57.7 137 57.14 135.27 55.89 134.43C54.4 133.42 52.43 133.04 50.34 133.04C46.98 133.04 43.31 134.03 40.78 135.05C43.36 132.74 41.79 128.02 42.32 126.46C43.07 124.23 47.39 119.1 48.9 115.75C51.06 110.97 51.05 107.48 52.37 103.2C52.99 101.18 54.85 98.7696 55.68 96.6396C58.16 90.3196 59.22 83.3903 65.62 80.0703C67.9 78.8903 69.96 78.5596 71.98 78.5596C74.53 78.5596 77.02 79.0801 79.85 79.0801L79.87 79.0898ZM781.37 65.4199L774.93 71.6201C771.29 76.9301 770.94 82.5903 774.46 88.0303C778.39 94.1003 790.65 101.07 781.97 108.85L527.01 109.16L525.72 108.6C524.41 106.83 521.73 103.08 519.75 102.24C518.61 101.76 517.5 101.71 516.4 101.71C516.13 101.71 515.86 101.71 515.59 101.71C513.88 101.71 512.16 101.6 510.32 99.96C508.87 98.66 508.5 96.9496 507.29 95.5996C505.24 93.2996 502.45 91.5899 500.2 89.1299C496.67 85.2599 494.06 80.4598 490.63 76.5098C488.99 74.6098 481.92 68.5803 481.36 67.2803C481.08 66.6303 481.83 66.0799 481.68 65.4199H781.36H781.37ZM778.29 111.02L768.4 119.93L765.67 120.9C752.52 120.86 739.37 120.85 726.21 120.85C691.28 120.85 656.35 120.94 621.41 120.94C604.53 120.94 587.64 120.92 570.76 120.85C570.71 120.85 570.65 120.85 570.59 120.85C566.87 120.85 560.11 121.31 554.48 121.31C551.36 121.31 548.59 121.17 546.88 120.73C545.22 120.31 540.22 116.14 537.16 115.03C533.76 113.8 528.92 114.27 527.92 111.02H778.27H778.29ZM619.3 143.05C619.08 143.05 618.85 142.98 618.63 142.79L595.57 129.41L576.65 122.74H756.09V142.46H620.74C620.51 142.46 619.93 143.05 619.3 143.05ZM107.77 151.12C107.94 151.12 108.12 151.12 108.29 151.11C111.77 150.92 115.85 147.96 114.69 144.12C114.23 142.6 105.41 139.62 104.32 136.6C109.66 132.97 115.61 134.4 121.57 132.9C126.49 131.66 130.94 128.83 135.78 127.38C138.08 126.69 144.44 125.22 148.68 125.22C150.29 125.22 151.59 125.43 152.25 125.98C152.93 126.54 159.29 139.91 160.11 141.85C166.89 157.93 170.78 176.2 174.46 193.23C168.55 198.56 162.94 204.34 157.98 210.57C142.93 229.47 133.6 246.68 114.51 263.26C113.01 264.56 107.57 269.13 105.68 269.13C105.62 269.13 105.56 269.13 105.5 269.11C103.63 268.75 100.09 266.54 97.56 265.98C96.49 265.74 95.01 265.64 93.24 265.64C83.45 265.64 64.87 268.83 58.03 270.29C55.33 270.87 50.45 273.3 52.19 276.8C54.2 280.84 69.3 279.27 73.48 281.12C72.58 282.23 68.54 285.1 67.47 285.32C67.36 285.34 67.25 285.35 67.14 285.35C65.82 285.35 64.02 283.98 62.55 283.72C61.82 283.59 60.85 283.53 59.73 283.53C54.69 283.53 46.59 284.69 43.1 285.56C37.41 286.97 44.48 290.68 44.49 291.27C44.06 291.86 43.69 292.08 42.97 292.2C40.91 292.54 36.16 292.82 33.41 292.82C33.07 292.82 32.76 292.82 32.49 292.81C30.61 292.75 16.29 290.62 15.5 290.07L15.61 209.7C23.61 206.9 32.15 206.11 40.34 204.02C40.84 203.89 40.62 202.93 41.7 202.79C42.28 202.72 42.86 202.69 43.44 202.69C46.25 202.69 48.99 203.42 51.58 203.48C62.48 203.73 73.17 203.96 83.77 203.96C111.36 203.96 138.23 202.43 166.11 195.87C167.41 195.56 173.08 194.92 172.77 193.3C172.39 192.71 172.11 192.54 171.83 192.54C171.47 192.54 171.12 192.83 170.56 192.9C158.42 194.48 146.02 198.12 133.54 199.68C118.62 201.55 103.55 202.25 88.47 202.25C75.53 202.25 62.59 201.73 49.75 201C43.95 200.67 39.12 200.6 33.29 199.58C28.39 198.72 8.06999 193.92 6.12 189.76C3.58 184.32 11.22 168.35 14.93 163.73C18.23 159.61 33.42 147.7 38.13 146.94C38.38 146.9 38.66 146.88 38.95 146.88C40.13 146.88 41.58 147.15 43.05 147.15C44.63 147.15 46.24 146.83 47.6 145.53C49.04 147.32 39.6 151.57 43.9 158.17C46.49 162.14 52.06 162.66 54.06 165.28C55.94 167.75 53.37 168.7 53.77 171.42C58.36 169.68 60.04 165.25 56.87 161.24C55.23 159.16 50.14 157.71 50.23 154.59C50.29 152.43 53.23 148.4 55.62 148.02C54.86 149.48 54.89 151.06 54.98 152.65C55.36 159.55 68.55 178.35 75.12 181.22C76.65 181.89 77.8 182.11 78.71 182.11C80.4 182.11 81.24 181.36 82.11 181.36C82.19 181.36 82.28 181.36 82.36 181.38C83.88 181.65 85.13 185.61 89.12 185.61C89.49 185.61 89.89 185.58 90.31 185.5C91.14 185.35 91.96 184.39 92.89 184.39C92.91 184.39 92.92 184.39 92.94 184.39C93.93 184.42 95.84 185.72 97.68 185.72C98.73 185.72 99.76 185.3 100.58 184C103.49 179.39 97.42 174.73 98.18 173.89C99.96 175.53 102.42 176.9 104.35 176.9C106.17 176.9 107.54 175.69 107.47 172.35C107.39 168.68 102.4 162.86 100.53 158.9C99.84 157.44 95.78 147.36 96.32 146.78C100.07 148.34 103.52 151.13 107.8 151.13L107.77 151.12ZM222.71 186.83L211.61 128.9C215.21 129.68 218.66 130.13 222.2 130.13C223.99 130.13 225.8 130.01 227.66 129.77C232.95 143.69 247.87 147.67 258.43 156.36L265.25 176.35L262.49 174.52C251.52 184.15 236.55 185.12 222.7 186.84L222.71 186.83ZM41.65 145.57C39.93 145.57 33.83 143.3 34.06 141.52C36.92 138.48 44.67 134.93 50.37 134.93C52.42 134.93 54.2 135.39 55.4 136.49C62.75 143.22 43.78 149.61 49.14 157.84C50.64 160.14 54.53 160.71 55.28 163.41C50.92 160.76 41.75 158.21 45.82 151.48C46.86 149.77 48.6 149.18 49.41 147.06C50.3 144.72 50.13 140.58 47.38 140.58C47.25 140.58 47.11 140.58 46.96 140.61C48.56 143.81 44.36 145.51 41.69 145.57C41.68 145.57 41.66 145.57 41.65 145.57ZM88.31 138.27C90.15 138.27 92.08 138.25 94.16 138.16C95.78 138.09 99.59 137.05 101.54 137.05C101.92 137.05 102.23 137.09 102.43 137.18C103.54 137.67 105.94 141.04 107.43 142.1C109.37 143.47 113.69 143.96 112.48 146.59C111.66 148.37 110.04 149.09 108.07 149.09C102.7 149.09 94.77 143.74 93.52 140H93.51C91.44 140 94.21 148.02 94.62 149.36C96.17 154.35 98.64 159.83 101.12 164.43C102.89 167.7 106.46 170.14 105.46 174.41C105.19 174.85 104.8 175.03 104.34 175.03C102 175.03 97.76 170.31 96.93 169.24C91.63 162.45 90.07 152.28 83.04 146.78C80.64 146.99 84.15 153.84 84.67 155C86.83 159.77 90.06 165.17 92.72 169.76C94.16 172.24 99.63 178.97 99.28 181.44C99.05 183.07 98.2 183.71 97.1 183.71C96.41 183.71 95.62 183.46 94.83 183.04C92.2 181.66 79.67 164.78 77.69 161.35C76 158.42 75.07 155.1 73.16 152.31C72.99 152.23 72.84 152.19 72.72 152.19C71.8 152.19 72.41 154.4 72.51 154.8C75.15 165.08 84.6 172.22 89.75 180.71C91.04 182.83 90.74 183.59 89.78 183.59C88.4 183.59 85.65 182.03 84.23 180.68C80.98 177.59 74.66 171.08 71.97 167.66C70.47 165.76 65.74 156.29 65.12 156.02C64.91 155.93 64.62 155.86 64.36 155.86C63.85 155.86 63.4 156.11 63.62 156.9C64.2 158.98 67.65 164.96 69 166.93C72.22 171.62 76.95 175.61 80.85 179.73C80.25 179.96 79.63 180.07 79 180.07C75.73 180.07 72.17 177.25 70.04 175.12C67.23 172.3 57.2 156.71 56.83 153.16C56.22 147.36 57.89 148.82 60.93 146.89C64.6 144.56 64.55 140.92 64.87 140.66C65.07 140.5 68.74 140.29 70.01 139.94C75.69 138.39 80.22 138.26 85.11 138.26C86.14 138.26 87.19 138.26 88.27 138.26L88.31 138.27ZM56.83 146.14C58.09 143.95 59.07 142.01 58.68 139.37L62.32 140.04C63.16 143.81 60.18 145.87 56.83 146.14ZM270.89 185.62C270.95 185.62 271.02 185.62 271.08 185.62C273.14 185.52 281.47 184.3 285.11 184.3C285.9 184.3 286.47 184.36 286.71 184.5C293.84 194.88 304.27 202.46 314.88 209.03C343 226.44 378.77 236.55 413.56 236.55C431.64 236.55 449.47 233.82 465.81 227.97C469.79 226.55 476.24 222.94 479.67 222.1C483.79 221.09 492.91 220.39 497.42 220.12C499.5 219.99 501.65 219.98 503.72 219.97C505.38 220.41 517.19 230.5 518.12 232.1C518.99 233.62 518.72 235.66 519.46 237.54C521.07 241.63 523.57 246 525.48 250.01L523.59 250.65L524.87 296.54C518.83 297.28 512.75 296.93 506.68 297.16C486.02 297.95 465.25 298.22 444.44 298.22C406.98 298.22 369.4 297.35 332.19 297.13C272.67 296.77 213.36 296.85 153.98 295.28C143.77 295.01 133.56 295.52 123.43 294.08V295.92C131.71 297.39 140.08 296.86 148.43 297.13C175.72 298.03 203.1 297.99 230.44 298.36C289.7 299.17 349.09 299.91 408.43 299.91C447.68 299.91 486.92 299.58 526.07 298.73L529.48 297.15L547.36 282.98C556.45 293 565.51 298.94 579 301.26C595.03 304.02 615.85 304.77 634.71 304.77C641.98 304.77 648.95 304.66 655.25 304.51C678.67 303.96 699.31 299.12 722.07 294.87C725.29 294.27 739.04 292.86 740.41 291.63C741.93 290.27 740.94 284.31 740.54 282.19C739.67 277.57 737.12 272.72 736.06 268.18C735.25 264.7 735.12 261.19 734.53 257.7C748.75 266.83 760.11 276.77 777.06 280.82C788.58 283.57 798.62 281.52 807.92 290.65C824.01 306.45 794.36 308.55 784.18 310.11H28.13C21.28 308.78 8.23001 308.46 4.14001 302.04C1.21001 297.45 6.78 294.46 10.59 293.14C12.17 292.59 13.81 292.39 15.48 292.39C20.65 292.39 26.15 294.39 31.21 294.7C31.83 294.74 32.45 294.76 33.08 294.76C37.53 294.76 42.17 293.9 46.53 293.53C47.86 293.86 49.87 298.39 51.66 299.53C53.94 300.99 57.32 301.5 61.11 301.5C68.78 301.5 78.15 299.43 83.65 299C94.77 298.14 106.23 299.11 117.07 296.04C157.64 274.65 195.19 251.15 221.93 212.9C223.7 205.02 223.83 196.64 222.7 188.68L224.81 189.96C239.06 187.52 253.48 185.99 267.91 185.21C267.95 185.21 267.98 185.21 268.02 185.21C268.8 185.21 269.8 185.63 270.88 185.63L270.89 185.62ZM656.81 273.1L671 264.79C690.12 248.95 697.54 219.84 699.67 196.06C700.41 196.09 702.78 198 703.27 198.69C706.8 203.64 706.54 222.61 706.17 229.07C705.21 245.47 696.31 260.77 686.1 273.1H656.81ZM792.93 281.04C783.34 281.04 770.66 277.36 763.88 274.25C753.53 269.49 744.87 260.87 734.63 255.73C734.29 241.97 733.99 226.57 725.87 214.87C725.95 214.87 726.02 214.87 726.1 214.87C737 214.87 745.78 223.75 755.48 227.81C771.69 234.59 785.37 235.06 798.94 248.47C801.65 251.15 811.43 262.72 812.48 265.75C814.51 271.6 805.1 278.31 800.29 280.02C798.25 280.75 795.72 281.06 792.93 281.06V281.04ZM62.58 287.79C60.87 287.79 59.29 286.89 58.06 285.43C58.59 285.43 59.18 285.4 59.8 285.4C61.72 285.4 63.83 285.61 64.84 287.26C64.07 287.62 63.31 287.78 62.58 287.78V287.79ZM56.84 289.79C55.24 289.79 53.32 289.04 52.09 288.62C51.32 288.36 49.08 287.49 48.82 286.66C49.9 286.19 50.89 286 51.84 286C54.44 286 56.69 287.43 59.29 288.51C58.8 289.46 57.88 289.78 56.83 289.78L56.84 289.79ZM786.64 311.96C793.65 310.42 803.22 310.1 809.33 306.28C810.99 305.25 812.02 303.26 814.05 302.68C813.9 309.35 814.26 316.07 814.09 322.74C814.05 324.4 813.15 325.48 813.11 326.38C812.84 333.02 815.34 340.9 810.07 346.45C804.92 351.88 791.85 351.49 784.79 353.23H26.9C16.7 351.1 3.76001 352.2 2.54001 338.75L2.57001 303.91C2.63001 303.84 2.71 303.81 2.81 303.81C3.7 303.81 6.01999 306.47 6.67999 306.89C12.28 310.42 19.94 310.52 26.29 311.94H786.64V311.96ZM786.95 63.2803C786.87 63.3903 786.79 63.4896 786.7 63.5996H786.95V63.2803Z" fill="#36248B"/>
<path d="M565.55 192.38C565.3 196.37 558.95 191.141 556.61 190.531C556.2 190.401 556.16 191.081 556.31 191.441C558.04 195.511 567.43 209.25 570.5 213.01C586.6 232.7 634.1 261.48 659.51 249.62C681.27 239.46 678.46 215.35 687.33 197.92C687.82 196.96 688.1 195.84 689.49 196.08C689.62 197.16 689.47 198.12 689.19 199.17C686.79 208.36 681.81 225.171 677.89 233.481C656.8 278.151 588.51 239.71 567.76 212.67C562.01 205.18 557.91 196.32 552.17 188.81C530.47 180.49 507.12 178.571 484.76 172.981C469.99 169.291 457.65 163.351 444.5 155.901C440.61 153.701 413.32 136.93 413.25 134.76C413.23 134.28 414.16 133.73 415.09 134.13C417.04 134.97 421.58 139.21 423.89 140.75C445.28 155.08 465.54 166.59 490.93 172.35C516.05 178.05 542.26 180.55 565.55 192.38Z" fill="#36248B"/>
<path d="M414.42 133.98C413.76 133.98 413.24 134.38 413.25 134.75C413.32 136.91 440.62 153.68 444.5 155.89C457.64 163.35 469.98 169.28 484.76 172.97C507.11 178.55 530.47 180.48 552.17 188.8C557.91 196.31 562.01 205.17 567.76 212.66C581.64 230.75 616.79 253.94 644.86 253.94C658.75 253.94 670.91 248.26 677.89 233.47C681.81 225.16 686.79 208.35 689.19 199.16C689.46 198.12 689.62 197.15 689.49 196.07C689.36 196.05 689.24 196.04 689.13 196.04C688.05 196.04 687.77 197.04 687.33 197.91C678.46 215.34 681.27 239.45 659.51 249.61C655.39 251.53 650.7 252.39 645.65 252.39C619.53 252.39 583.99 229.51 570.5 213.01C567.43 209.25 558.04 195.52 556.31 191.44C556.17 191.11 556.19 190.51 556.51 190.51C556.54 190.51 556.57 190.51 556.61 190.53C558.32 190.98 562.15 193.87 564.2 193.87C564.97 193.87 565.48 193.47 565.55 192.38C542.26 180.55 516.06 178.05 490.93 172.35C465.54 166.58 445.28 155.07 423.89 140.75C421.58 139.2 417.04 134.97 415.09 134.13C414.86 134.03 414.64 133.99 414.42 133.99V133.98Z" fill="#36248B"/>
<path d="M609.89 276.74C607.41 277.66 604.78 278.21 602.17 278.57C596.8 279.3 591.2 279.68 586.1 277.53C576.73 273.58 571.27 261.89 564.01 255.23C562.43 258.58 555.95 256.849 553.04 255.719C549.59 254.369 538.06 246.48 535.33 243.84C534.67 243.2 533.89 242.759 534.11 241.679C535.49 240.479 541.95 246.3 543.53 247.36C549.3 251.26 555.68 256.71 563.09 254.61L536.27 222.57L535.96 221.03C535.98 220.46 537.07 220.64 537.44 220.79C538.07 221.04 545.29 229.54 546.44 230.9C556.63 243 566.26 255.909 576.97 267.559C586.81 278.249 593.92 278.68 608.12 275.26C591.98 265.85 575.69 258.029 562.79 244.139C552.62 233.199 540.09 211 527.97 204.37C526.06 203.33 522.62 203.11 522.41 200.99C529.56 200.62 535.87 207.46 540.27 212.4C557.86 232.14 563.32 246.27 587.58 261.26C591.2 263.49 608.59 272.15 609.65 274.34C610.02 275.1 610.16 275.92 609.91 276.73L609.89 276.74Z" fill="#36248B"/>
<path d="M522.95 200.99C522.76 200.99 522.58 200.99 522.39 201C522.6 203.12 526.04 203.34 527.95 204.38C540.07 211.01 552.6 233.2 562.77 244.15C575.67 258.04 591.96 265.86 608.1 275.27C603.2 276.45 599.14 277.17 595.52 277.17C588.66 277.17 583.39 274.57 576.95 267.57C566.24 255.92 556.61 243.01 546.42 230.91C545.27 229.54 538.05 221.05 537.42 220.8C537.25 220.73 536.91 220.65 536.6 220.65C536.26 220.65 535.96 220.74 535.95 221.04L536.26 222.58L563.08 254.62C561.95 254.94 560.84 255.08 559.75 255.08C553.73 255.08 548.41 250.67 543.52 247.36C542.09 246.39 536.63 241.52 534.61 241.52C534.4 241.52 534.23 241.57 534.1 241.68C533.88 242.76 534.66 243.2 535.32 243.84C538.06 246.49 549.58 254.38 553.03 255.72C554.67 256.36 557.45 257.19 559.84 257.19C561.69 257.19 563.31 256.69 564 255.23C571.25 261.89 576.72 273.58 586.09 277.53C588.95 278.73 591.96 279.15 595 279.15C597.39 279.15 599.8 278.9 602.16 278.57C604.78 278.21 607.41 277.66 609.88 276.74C610.13 275.92 609.98 275.1 609.62 274.35C608.57 272.17 591.17 263.51 587.55 261.27C563.29 246.29 557.83 232.15 540.24 212.41C535.95 207.59 529.86 200.98 522.94 200.98L522.95 200.99Z" fill="#36248B"/>
<path d="M535.95 230.58C534.95 231.68 529.84 223.651 529.15 222.901C515.37 207.831 490.74 214.27 472.77 214.59C444.25 215.09 409.67 207.2 384.24 194.55C371.6 188.26 359.3 180.95 347.27 173.58C348.21 172.28 348.38 172.74 349.54 173.14C356.77 175.59 368.19 183.85 375.6 187.77C402.42 201.96 426.83 209.32 457.32 212.09C476.63 213.85 504.42 206.861 521.36 214.651C527.29 217.381 534.16 224.29 535.94 230.58H535.95Z" fill="#36248B"/>
<path d="M348.32 172.72C348.02 172.72 347.74 172.93 347.27 173.58C359.3 180.95 371.6 188.26 384.24 194.55C408.9 206.82 442.17 214.61 470.17 214.61C471.04 214.61 471.9 214.61 472.76 214.59C481.16 214.44 491.02 212.96 500.54 212.96C511.38 212.96 521.8 214.89 529.13 222.91C529.77 223.61 534.3 230.69 535.69 230.69C535.79 230.69 535.87 230.66 535.93 230.59C534.16 224.3 527.28 217.38 521.35 214.66C514.98 211.73 507.07 210.89 498.66 210.89C487.39 210.89 475.2 212.4 464.58 212.4C462.06 212.4 459.62 212.32 457.31 212.1C426.82 209.32 402.4 201.97 375.59 187.78C368.18 183.86 356.76 175.6 349.53 173.15C348.94 172.95 348.61 172.73 348.3 172.73L348.32 172.72Z" fill="#36248B"/>
<path d="M646.94 265.1C630.06 262.55 615.24 259.88 600.51 250.8C598.77 249.73 593.18 246.22 592.09 245.04C591.07 243.93 591.8 242.92 592.37 242.92C593.24 242.92 604.61 250.98 607.07 252.26C613.91 255.82 621.39 258.4 628.95 259.97C635.66 261.37 643.75 260.93 649.38 264.86C650.86 269.87 633.75 271.95 630.6 271.91C600.57 271.54 585.83 248.04 567.72 228.72C560.38 220.89 551.36 213.22 544.59 205C544.02 204.31 543.09 204.01 543.36 202.85C544.61 202.58 545.01 203.12 545.85 203.74C550.13 206.88 557.19 214.98 561.25 219.16C583.07 241.57 601.69 273.85 637.85 269.25C638.91 269.12 648.27 266.89 646.95 265.1H646.94Z" fill="#36248B"/>
<path d="M543.95 202.78C543.77 202.78 543.58 202.8 543.35 202.85C543.08 204.01 544.01 204.31 544.58 205C551.35 213.22 560.38 220.89 567.71 228.72C585.82 248.04 600.56 271.55 630.59 271.91C630.62 271.91 630.65 271.91 630.68 271.91C634.05 271.91 650.84 269.82 649.37 264.86C643.74 260.92 635.65 261.36 628.94 259.97C621.38 258.39 613.9 255.82 607.06 252.26C604.6 250.98 593.23 242.93 592.36 242.92C591.79 242.92 591.07 243.93 592.08 245.03C593.17 246.22 598.76 249.72 600.5 250.79C615.23 259.86 630.05 262.53 646.93 265.09C648.26 266.88 638.89 269.11 637.83 269.24C635.48 269.54 633.2 269.68 630.99 269.68C599.23 269.68 581.63 240.11 561.23 219.15C557.17 214.97 550.1 206.87 545.83 203.73C545.14 203.22 544.74 202.77 543.94 202.77L543.95 202.78Z" fill="#36248B"/>
<path d="M492.73 90.1204C493.06 90.5904 492.79 91.9506 492.49 92.5306C490.82 95.7606 473.86 98.9705 470.6 102.7C470.34 104.08 471.21 103.56 472.13 103.62C480.42 104.18 488 98.0605 495.72 96.9905C498.51 96.6105 503.89 95.6704 503.28 99.5804C502.67 103.49 487.65 108.051 483.94 110.491C483.3 110.911 481.74 111.74 482.9 112.55C487.61 115.16 510.13 107.011 517.22 106.741C518.4 106.701 519.1 106.421 519.9 107.611C519.86 108.911 509.3 110.16 507.47 110.58C501.53 111.92 487.07 116.681 481.84 114.241C476.13 111.591 486.25 107.131 488.25 106.151C492.72 103.961 498.34 103.01 501.42 98.6702C494.37 97.8502 488.28 102.2 481.82 104.04C479.33 104.75 468.07 107.48 468.1 103.29C468.13 98.0103 487.29 95.0706 490.32 91.2806C484.08 90.5406 477.18 90.3202 470.87 90.6302C461.67 91.0902 451.84 93.7507 442.97 94.1907C441.82 94.2507 441.24 94.74 440.39 93.43C440.99 92.69 441.76 92.2606 442.68 92.0306C453.32 89.3606 477.32 87.7101 488.17 88.8001C488.91 88.8701 492.55 89.8401 492.73 90.0901V90.1204Z" fill="#36248B"/>
<path d="M479.68 88.4902C467.68 88.4902 451.05 89.9596 442.67 92.0596C441.75 92.2896 440.98 92.71 440.38 93.46C440.85 94.18 441.24 94.3496 441.69 94.3496C442.05 94.3496 442.45 94.24 442.96 94.21C451.84 93.77 461.67 91.1104 470.86 90.6504C472.71 90.5604 474.62 90.5098 476.54 90.5098C481.17 90.5098 485.9 90.7798 490.31 91.2998C487.28 95.0898 468.13 98.0196 468.09 103.31C468.08 105.04 469.99 105.59 472.42 105.59C475.87 105.59 480.35 104.48 481.81 104.06C487.72 102.38 493.32 98.5898 499.63 98.5898C500.21 98.5898 500.81 98.6204 501.4 98.6904C498.32 103.03 492.7 103.98 488.23 106.17C486.23 107.15 476.11 111.6 481.82 114.26C482.86 114.74 484.25 114.94 485.88 114.94C492.45 114.94 502.69 111.67 507.46 110.59C509.29 110.18 519.86 108.92 519.89 107.62C519.37 106.84 518.89 106.69 518.29 106.69C517.97 106.69 517.62 106.73 517.21 106.75C511.1 106.98 493.5 113.07 485.76 113.07C484.52 113.07 483.54 112.91 482.89 112.56C481.73 111.74 483.29 110.92 483.93 110.5C487.63 108.06 502.65 103.53 503.27 99.5898C503.64 97.1998 501.77 96.6201 499.62 96.6201C498.26 96.6201 496.79 96.85 495.71 97C488.32 98.02 481.07 103.66 473.2 103.66C472.84 103.66 472.48 103.65 472.12 103.62C472.06 103.62 472.01 103.62 471.95 103.62C471.63 103.62 471.33 103.67 471.09 103.67C470.68 103.67 470.44 103.52 470.59 102.7C473.85 98.9602 490.81 95.7603 492.48 92.5303C492.78 91.9503 493.06 90.5901 492.72 90.1201C492.54 89.8601 488.9 88.9001 488.16 88.8301C485.84 88.6001 482.93 88.4902 479.68 88.4902Z" fill="#36248B"/>
<path d="M532.13 249.83C539.48 258.02 546.79 268.069 555.06 275.269C576.03 293.539 597.71 285.64 621.98 284.2C633.76 283.5 640.3 287.84 651.15 289.55C656.7 290.42 662.06 290.44 667.62 290.96C668.71 291.06 669.61 290.75 670.36 291.9C669.62 293.02 668.73 292.769 667.62 292.849C651.44 294.049 637.19 285.23 623.2 286.05C596.03 287.64 574.03 296.22 551.35 274.65C548.19 271.64 531.98 254.259 530.72 251.519C529.92 249.789 530.29 249.27 532.12 249.83H532.13Z" fill="#36248B"/>
<path d="M531 249.61C530.18 249.61 530.13 250.23 530.72 251.52C531.99 254.27 548.19 271.65 551.35 274.65C563.42 286.13 575.29 289.07 587.85 289.07C598.9 289.07 610.48 286.79 623.2 286.05C623.82 286.01 624.44 286 625.07 286C637.56 286 650.33 292.97 664.55 292.97C665.57 292.97 666.59 292.93 667.62 292.86C668.72 292.78 669.62 293.03 670.36 291.91C669.61 290.75 668.71 291.07 667.62 290.97C662.06 290.45 656.7 290.43 651.15 289.56C641.1 287.98 634.74 284.14 624.49 284.14C623.68 284.14 622.84 284.16 621.98 284.22C610.17 284.92 598.98 287.15 588.18 287.15C576.79 287.15 565.83 284.67 555.06 275.29C546.79 268.09 539.48 258.04 532.13 249.85C531.66 249.71 531.29 249.63 531 249.63V249.61Z" fill="#36248B"/>
<path d="M722.78 228.12C724.07 233 723.1 238.2 723.41 243.21C724 252.7 727.65 269.02 723.13 277.45C717.19 288.53 693.21 287.98 682.69 285.76C677.28 284.62 671.5 281.44 666.32 280.55C658 279.12 648.53 282.18 640.17 282.34C639.94 280.98 640.74 280.87 641.74 280.53C644.84 279.47 657.28 278.01 660.81 277.98C667.64 277.93 673.24 281.1 679.49 282.78C690.02 285.61 719.77 287.95 722.64 273.26C724.87 261.87 721.18 244.33 720.9 232.14C720.86 230.5 720.5 227.99 722.78 228.12Z" fill="#36248B"/>
<path d="M722.62 228.11C720.52 228.11 720.86 230.54 720.9 232.14C721.19 244.33 724.87 261.87 722.64 273.26C720.87 282.3 708.94 284.89 697.57 284.89C690.45 284.89 683.54 283.87 679.49 282.78C673.29 281.11 667.72 277.98 660.96 277.98C660.91 277.98 660.86 277.98 660.8 277.98C657.27 278.01 644.83 279.46 641.73 280.53C640.73 280.87 639.93 280.98 640.16 282.34C646.95 282.21 654.47 280.17 661.51 280.17C663.14 280.17 664.75 280.28 666.32 280.55C671.49 281.44 677.27 284.61 682.69 285.76C686.2 286.5 691.2 287.05 696.53 287.05C707.19 287.05 719.17 284.83 723.13 277.45C727.65 269.02 724 252.7 723.41 243.21C723.1 238.2 724.07 233 722.78 228.12C722.72 228.12 722.67 228.12 722.62 228.12V228.11Z" fill="#36248B"/>
<path d="M514.36 198.55L513.44 200.4L488.8 197.88C458.73 196.61 410.33 201.67 383.41 187.97C382.53 187.52 379.12 185.8 379.33 184.67C379.59 183.22 380.78 184.25 381.37 184.46C388.01 186.78 392.69 189.81 400.27 191.46C437.97 199.67 476.55 192.62 514.36 198.54V198.55Z" fill="#36248B"/>
<path d="M379.98 183.92C379.68 183.92 379.43 184.1 379.33 184.68C379.13 185.82 382.53 187.54 383.41 187.98C400.46 196.66 426.12 197.81 450.29 197.81C459.02 197.81 467.55 197.66 475.42 197.66C480.16 197.66 484.66 197.71 488.81 197.89L513.45 200.41L514.37 198.56C498.39 196.06 482.28 195.87 466.14 195.87C463.32 195.87 460.5 195.87 457.69 195.87C438.47 195.87 419.26 195.61 400.28 191.47C392.7 189.82 388.02 186.79 381.38 184.47C381.02 184.34 380.45 183.92 379.99 183.92H379.98Z" fill="#36248B"/>
<path d="M627.83 213.33C643.55 208.51 660.38 203.55 672.84 192.38C658.35 197.87 645.06 205.36 629.29 207.09C624.46 207.62 603.76 207.6 600.7 205.01C599.85 204.29 600.47 203.57 601.02 203.47C602.12 203.26 610.33 205.2 612.7 205.35C624.47 206.09 635.5 204.69 646.65 201.02C654.8 198.34 666.76 190.87 674.06 189.56C675.15 189.36 675.86 188.98 676.5 190.3C677.12 192.26 674.77 193.971 673.41 195.111C661.38 205.141 643.91 210.24 629.25 215.1L627.83 213.35V213.33Z" fill="#36248B"/>
<path d="M675.3 189.34C674.94 189.34 674.54 189.46 674.06 189.55C666.75 190.86 654.79 198.33 646.65 201.01C637.42 204.05 628.27 205.53 618.72 205.53C616.73 205.53 614.73 205.47 612.7 205.34C610.46 205.2 602.94 203.45 601.24 203.45C601.15 203.45 601.08 203.45 601.02 203.47C600.47 203.57 599.85 204.29 600.7 205.01C602.81 206.8 613.37 207.36 621.28 207.36C624.8 207.36 627.8 207.25 629.29 207.09C645.06 205.37 658.35 197.87 672.84 192.38C660.37 203.56 643.55 208.52 627.83 213.33L629.25 215.08C643.91 210.22 661.37 205.12 673.41 195.09C674.77 193.95 677.12 192.24 676.5 190.28C676.14 189.53 675.76 189.33 675.3 189.33V189.34Z" fill="#36248B"/>
<path d="M662.97 181.9C654.62 182.09 646.41 184.01 638.03 184.39C611.32 185.59 583.82 183.78 557.53 179.43V177.59C566.69 178.59 575.8 180.43 584.98 181.28C604.08 183.06 626.32 183.34 645.4 181.89C651.54 181.42 657.57 179.28 663.82 180.14L664.77 181.06C665.91 184.44 659.74 187.93 657.24 189.4C652.86 191.97 647.88 193.38 643.56 196.06L642.64 194.54C642.87 193.56 654.58 188.59 656.53 187.46C657.3 187.01 664.08 182.88 662.98 181.9H662.97Z" fill="#36248B"/>
<path d="M557.53 177.58V179.42C578.48 182.89 600.21 184.74 621.69 184.74C627.16 184.74 632.61 184.62 638.02 184.38C646.4 184 654.62 182.08 662.97 181.89C664.07 182.87 657.29 187 656.52 187.45C654.57 188.58 642.86 193.55 642.63 194.53L643.55 196.05C647.87 193.37 652.85 191.96 657.23 189.39C659.74 187.92 665.9 184.43 664.76 181.05L663.81 180.13C662.79 179.99 661.77 179.93 660.76 179.93C655.59 179.93 650.53 181.49 645.39 181.88C637.17 182.5 628.35 182.81 619.46 182.81C607.72 182.81 595.84 182.28 584.97 181.27C575.79 180.41 566.68 178.58 557.53 177.58Z" fill="#36248B"/>
<path d="M411.24 154.21C411.49 154.42 411.73 154.63 411.98 154.84L411.77 155.08C411.59 154.79 411.41 154.5 411.25 154.21H411.24Z" fill="#36248B"/>
<path d="M406.85 147.95C406.73 147.95 406.6 147.96 406.46 148C406.21 149.16 406.64 149.84 407.04 150.8C409.3 156.24 417.47 167.51 421.55 172.04C430.04 181.45 442.29 187.53 455.14 187.53C455.66 187.53 456.19 187.52 456.72 187.5C458.29 187.44 459.14 187.24 460.09 185.9C460.09 184.33 447.66 178.92 445.5 177.69C430.49 169.07 421.5 159.8 408.61 149.23C408 148.73 407.69 147.95 406.84 147.95H406.85ZM453.82 185.1C453.26 185.1 452.67 185.02 452.38 185C436.95 183.97 427.53 177.22 418.54 165.2C417.86 164.29 412.87 157.05 413.25 156.63C426.15 167.31 439.44 178.05 455.17 184.37C455.24 184.97 454.55 185.11 453.82 185.11V185.1Z" fill="#36248B"/>
<path d="M249.84 60.4901C250.99 60.2501 251.33 61.0594 251.95 61.7694C258.6 69.4094 264.5 83.8 271.43 90.37C275.02 93.77 276.62 90.5295 278.06 87.1395C282.23 77.3095 281.9 55.1097 281.31 44.1297C281.21 42.3197 279.86 38.4297 280.05 37.3797C280.76 33.5797 282.81 41.0195 282.96 41.8495C284.82 51.8295 283.75 76.8698 280.5 86.4998C278.23 93.2198 274.63 96.8895 268.97 90.3494C264.3 84.9594 253.72 69.5294 250.44 63.2694C249.92 62.2794 249.64 61.6603 249.84 60.4803V60.4901Z" fill="#36248B"/>
<path d="M280.61 36.3203C280.39 36.3203 280.19 36.6296 280.05 37.3896C279.85 38.4396 281.21 42.3299 281.31 44.1299C281.9 55.1099 282.23 77.3196 278.06 87.1396C277.05 89.5096 275.97 91.8096 274.17 91.8096C273.4 91.8096 272.5 91.3901 271.43 90.3701C264.5 83.8001 258.61 69.4095 251.95 61.7695C251.41 61.1495 251.08 60.4502 250.23 60.4502C250.11 60.4502 249.98 60.4602 249.84 60.4902C249.63 61.6602 249.92 62.2903 250.44 63.2803C253.72 69.5503 264.3 84.9804 268.97 90.3604C271.05 92.7604 272.86 93.79 274.42 93.79C277.11 93.79 279.07 90.7598 280.51 86.5098C283.76 76.8798 284.83 51.8504 282.97 41.8604C282.85 41.2004 281.52 36.3096 280.62 36.3096L280.61 36.3203Z" fill="#36248B"/>
<path d="M326.22 72.1107L324.45 72.1908C323.33 71.1408 332.11 54.7599 333.44 52.5199C335.43 49.1799 349.67 29.4705 347.87 27.2005C342.6 30.0705 341.06 37.3607 338.12 42.4007C333.97 49.4907 328.88 56.0604 325.36 63.5404C323.53 64.9704 322.74 64.3704 323.49 62.2904C325.54 56.5404 333.98 45.4406 337.5 39.3206C339.39 36.0406 340.31 32.1402 342.68 29.0902C348.58 21.4902 351.87 25.8206 347.99 33.7806C344.29 41.3506 337.8 48.8504 333.59 56.3704C330.77 61.4104 328.48 66.8007 326.21 72.1107H326.22Z" fill="#36248B"/>
<path d="M347.87 25.1396C346.63 25.1396 344.83 26.3296 342.67 29.0996C340.3 32.1496 339.38 36.0501 337.49 39.3301C333.96 45.4501 325.53 56.5498 323.48 62.2998C323.01 63.6098 323.15 64.3301 323.77 64.3301C324.14 64.3301 324.67 64.0798 325.35 63.5498C328.87 56.0698 333.96 49.5004 338.11 42.4004C341.06 37.3604 342.59 30.0702 347.86 27.2002C349.66 29.4702 335.42 49.1795 333.43 52.5195C332.1 54.7595 323.32 71.1404 324.44 72.1904L326.21 72.1104C328.48 66.8104 330.76 61.4101 333.59 56.3701C337.8 48.8501 344.29 41.3503 347.99 33.7803C350.46 28.7303 350.03 25.1299 347.88 25.1299L347.87 25.1396Z" fill="#36248B"/>
<path d="M613.03 151.07C607.95 152.34 602.81 153.61 597.63 154.48C575.45 158.21 554.26 157.86 532.05 154.67C530.28 154.42 513.1 151.73 513.13 150.76C513.16 149.88 513.62 149.28 514.54 149.35C546.28 156.62 579.94 157.91 611.53 149.24L613.03 151.07Z" fill="#36248B"/>
<path d="M611.52 149.24C596.31 153.42 580.62 155.28 564.89 155.28C547.96 155.28 530.99 153.12 514.53 149.35C514.48 149.35 514.44 149.35 514.4 149.35C513.57 149.35 513.16 149.93 513.13 150.77C513.1 151.73 530.27 154.42 532.05 154.68C543.29 156.29 554.27 157.18 565.24 157.18C576.21 157.18 586.68 156.33 597.63 154.49C602.81 153.62 607.95 152.35 613.03 151.08L611.53 149.25L611.52 149.24Z" fill="#36248B"/>
<path d="M274.49 30.29C277.1 40.46 277.65 52.1799 276.99 62.6699C276.86 64.7999 275.5 76.0698 273.56 76.5098C269.11 74.0998 268.8 67.1299 267.11 62.6299C265.79 59.1099 264.48 55.4598 262.89 52.0498C261.22 48.4698 251.78 33.6298 251.66 31.8398C251.6 30.8698 251.58 30.7702 252.6 30.9102C257.69 37.7402 261.81 45.4204 265.54 53.1104L273.26 74.04C275.97 60.02 276.07 45.2195 272.74 31.2695L274.5 30.29H274.49Z" fill="#36248B"/>
<path d="M274.49 30.29L272.73 31.2695C276.06 45.2095 275.96 60.01 273.25 74.04L265.53 53.1104C261.8 45.4104 257.68 37.7402 252.59 30.9102C252.36 30.8802 252.19 30.8604 252.05 30.8604C251.58 30.8604 251.6 31.0898 251.65 31.8398C251.77 33.6398 261.21 48.4698 262.88 52.0498C264.46 55.4598 265.78 59.0999 267.1 62.6299C268.79 67.1299 269.09 74.0898 273.55 76.5098C275.49 76.0698 276.85 64.7999 276.98 62.6699C277.64 52.1799 277.09 40.46 274.48 30.29H274.49Z" fill="#36248B"/>
<path d="M278.2 168.34C278.25 170.55 276.25 170.5 274.65 169.73C270.61 167.79 271.34 157.42 270.73 153.32C270.15 149.46 269.42 145.58 268.77 141.73C266.16 126.33 260.08 107.31 258.76 92.5703C258.66 91.4403 258.08 90.9598 259.41 90.0898C260.24 90.6798 260.48 91.4904 260.78 92.4004C264.7 104.2 267.78 124.62 270 137.41C270.88 142.5 271.82 147.6 272.57 152.71C273.32 157.82 271.79 168.42 278.21 168.34H278.2Z" fill="#36248B"/>
<path d="M259.39 90.0801C258.06 90.9501 258.64 91.4296 258.74 92.5596C260.07 107.31 266.14 126.32 268.75 141.72C269.4 145.57 270.14 149.45 270.71 153.31C271.32 157.41 270.6 167.78 274.63 169.72C275.24 170.01 275.91 170.2 276.49 170.2C277.45 170.2 278.21 169.7 278.18 168.33C278.16 168.33 278.13 168.33 278.11 168.33C271.77 168.33 273.27 157.61 272.54 152.7C271.79 147.59 270.85 142.49 269.97 137.4C267.75 124.61 264.66 104.18 260.75 92.3896C260.45 91.4796 260.2 90.6701 259.38 90.0801H259.39Z" fill="#36248B"/>
<path d="M330.61 27.21C331.59 28.12 322.81 49.7102 321.65 52.4502C317.37 62.5902 310.16 74.0696 308.47 84.8896C307.97 88.1297 308.17 92.0798 307.82 95.3398C307.71 96.4098 307.66 97.46 306.26 97.46L305.91 90.96C305.97 77.74 313.07 67.5904 317.94 56.1504C321.92 46.7904 325.66 37.2803 328.7 27.5703L330.6 27.21H330.61Z" fill="#36248B"/>
<path d="M330.61 27.21L328.71 27.5703C325.67 37.2803 321.94 46.7904 317.95 56.1504C313.08 67.5904 305.97 77.74 305.92 90.96L306.27 97.46C307.68 97.46 307.72 96.4098 307.83 95.3398C308.17 92.0898 307.97 88.1297 308.48 84.8896C310.17 74.0696 317.38 62.6002 321.66 52.4502C322.82 49.7102 331.6 28.12 330.62 27.21H330.61Z" fill="#36248B"/>
<path d="M384.26 152.93C384.47 154.52 383.3 154.67 382.13 154.81C368.83 156.38 354.52 149.961 342.33 145.531C342.12 144.851 342.74 143.82 343.29 143.71C344.18 143.53 357.69 149.25 360.35 150.02C363.01 150.79 370.55 152.941 372.85 152.941H384.26V152.93Z" fill="#36248B"/>
<path d="M343.34 143.7C343.34 143.7 343.3 143.7 343.29 143.7C342.74 143.81 342.12 144.85 342.33 145.52C353.24 149.48 365.84 155.05 377.9 155.05C379.32 155.05 380.73 154.97 382.13 154.81C383.3 154.67 384.46 154.52 384.26 152.93H372.85C370.56 152.93 363.01 150.78 360.35 150.01C357.73 149.25 344.6 143.7 343.34 143.7Z" fill="#36248B"/>
<path d="M286.84 78.3599C288.44 78.1799 288.57 79.24 288.72 80.48C289.25 84.97 288.84 98.7399 286.5 102.36C283.29 107.33 277.95 106.05 274.52 102.08C275.96 99.9996 277.62 102.859 279.43 103.339C289.37 105.959 286.27 83.7691 286.85 78.3491L286.84 78.3599Z" fill="#36248B"/>
<path d="M287.16 78.3398C287.06 78.3398 286.95 78.3404 286.83 78.3604C286.29 83.4804 289.02 103.56 280.95 103.56C280.48 103.56 279.97 103.49 279.42 103.35C278.08 103 276.83 101.34 275.68 101.34C275.28 101.34 274.89 101.55 274.51 102.09C276.37 104.25 278.8 105.61 281.14 105.61C283.11 105.61 285.03 104.64 286.5 102.37C288.84 98.7501 289.25 84.9802 288.72 80.4902C288.58 79.3402 288.46 78.3496 287.17 78.3496L287.16 78.3398Z" fill="#36248B"/>
<path d="M321.98 105.469C321.78 103.479 324.67 103.3 326.06 103.08C330.16 102.43 340.65 101.46 344.56 101.83C345.48 101.92 346.02 101.73 346.64 102.71L345.1 104.24L321.98 105.469Z" fill="#36248B"/>
<path d="M342.36 101.75C337.6 101.75 329.53 102.53 326.06 103.08C324.67 103.3 321.79 103.48 321.98 105.47L345.1 104.24L346.64 102.71C346.03 101.73 345.48 101.92 344.56 101.83C343.96 101.77 343.21 101.75 342.36 101.75Z" fill="#36248B"/>
<path d="M297.043 198.216L228.217 201.185L228.322 203.632L297.148 200.663L297.043 198.216Z" fill="#36248B"/>
<path d="M296.69 198.25L227.87 201.21L227.97 203.65L296.79 200.69L296.69 198.25Z" fill="#36248B"/>
<path d="M158.054 204.075L19.8879 211.389L20.0163 213.815L158.183 206.501L158.054 204.075Z" fill="#36248B"/>
<path d="M158.52 204.03L20.35 211.35L20.47 213.77L158.65 206.46L158.52 204.03Z" fill="#36248B"/>
<path d="M80.25 106.71C78.13 108.49 76.77 102.08 76.62 100.79C75.93 94.68 77.76 85.1402 83.02 81.4502C83.98 82.2002 83.94 82.2196 83.68 83.3096C82.62 87.6896 80.56 90.6997 80.26 95.9297C80.15 97.8697 81.08 106.01 80.25 106.71Z" fill="#36248B"/>
<path d="M83.03 81.4404C77.78 85.1304 75.94 94.6703 76.63 100.78C76.76 101.92 77.83 107.01 79.53 107.01C79.76 107.01 80.01 106.91 80.26 106.7C81.1 106 80.16 97.8599 80.27 95.9199C80.57 90.6899 82.63 87.6798 83.69 83.2998C83.96 82.1998 84 82.1904 83.03 81.4404Z" fill="#36248B"/>
<path d="M109.86 129.51C110.22 126.41 112.22 124.28 112.89 121.14C113.13 120.03 112.8 118.7 112.99 117.54C113.56 114.14 115.18 111.5 113.55 107.64C116.76 105.9 116.31 112.3 116.05 114.43C115.86 115.95 115.05 116.86 114.83 118.14C114.19 121.89 114.54 127.87 109.87 129.51H109.86Z" fill="#36248B"/>
<path d="M114.53 107.34C114.25 107.34 113.92 107.43 113.54 107.64C115.18 111.5 113.54 114.14 112.98 117.54C112.79 118.7 113.11 120.03 112.88 121.14C112.21 124.28 110.21 126.41 109.85 129.51C114.52 127.88 114.17 121.89 114.81 118.14C115.03 116.86 115.84 115.95 116.03 114.43C116.26 112.55 116.64 107.34 114.52 107.34H114.53Z" fill="#36248B"/>
<path d="M84.58 105.47C84.87 102.37 87.93 101.06 88.25 97.6904C88.49 95.1604 87.22 91.7397 86.08 89.4697L87.35 88.2197C90.4 92.0297 90.99 97.1501 89.01 101.58C88.6 102.49 85.93 106.78 84.59 105.48L84.58 105.47Z" fill="#36248B"/>
<path d="M87.35 88.2197L86.08 89.4697C87.22 91.7497 88.5 95.1604 88.25 97.6904C87.93 101.05 84.87 102.37 84.58 105.47C84.75 105.64 84.95 105.71 85.16 105.71C86.58 105.71 88.64 102.36 89 101.57C90.99 97.1403 90.39 92.03 87.34 88.21L87.35 88.2197Z" fill="#36248B"/>
<path d="M113.56 128.89C114.25 125.14 117.71 122.86 117.75 118.73C117.77 116.92 115.59 113.78 118.17 113.49C121.5 118.07 118.72 126.83 113.56 128.89Z" fill="#36248B"/>
<path d="M118.17 113.49C115.59 113.79 117.77 116.92 117.75 118.73C117.71 122.86 114.25 125.14 113.56 128.89C118.72 126.83 121.51 118.07 118.17 113.49Z" fill="#36248B"/>
<path d="M89.51 111.031V112.861C88.92 113.471 78.62 110.81 79.03 108.87C80.32 107.01 82.5 109.24 84.24 109.81C85.98 110.38 87.72 110.841 89.5 111.031H89.51Z" fill="#36248B"/>
<path d="M80.31 108.15C79.83 108.15 79.39 108.35 79.03 108.88C78.66 110.63 86.98 112.96 89.07 112.96C89.3 112.96 89.46 112.93 89.51 112.87V111.04C87.72 110.84 85.95 110.37 84.24 109.82C82.99 109.42 81.52 108.15 80.31 108.15Z" fill="#36248B"/>
</svg>
